<?xml version="1.0" encoding="UTF-8"?>
<!DOCTYPE svg PUBLIC "-//W3C//DTD SVG 1.1//EN" "http://www.w3.org/Graphics/SVG/1.1/DTD/svg11.dtd">
<svg xmlns="http://www.w3.org/2000/svg" version="1.1" width="1200px" height="1200px" style="shape-rendering:geometricPrecision; text-rendering:geometricPrecision; image-rendering:optimizeQuality; fill-rule:evenodd; clip-rule:evenodd" xmlns:xlink="http://www.w3.org/1999/xlink">
<g><path style="opacity:0.005" fill="#000000" d="M 564.5,293.5 C 563.508,293.328 562.842,293.662 562.5,294.5C 558.5,294.5 554.5,294.5 550.5,294.5C 550.082,293.778 549.416,293.278 548.5,293C 548.833,292.667 549.167,292.333 549.5,292C 554.167,291.333 558.833,291.333 563.5,292C 564.056,292.383 564.389,292.883 564.5,293.5 Z"/></g>
<g><path style="opacity:0.01" fill="#141414" d="M 660.5,294.5 C 659.209,294.263 658.209,294.596 657.5,295.5C 644.252,293.17 630.919,292.837 617.5,294.5C 616.833,294.5 616.5,294.833 616.5,295.5C 616.167,295.5 615.833,295.5 615.5,295.5C 615.167,294.167 614.833,294.167 614.5,295.5C 612.003,297.871 609.003,298.871 605.5,298.5C 604.833,298.5 604.5,298.833 604.5,299.5C 603.833,299.167 603.167,298.833 602.5,298.5C 609.168,294.401 616.502,291.901 624.5,291C 636.297,289.902 647.963,290.569 659.5,293C 660.056,293.383 660.389,293.883 660.5,294.5 Z"/></g>
<g><path style="opacity:0.005" fill="#131313" d="M 550.5,294.5 C 549.129,295.787 547.295,296.453 545,296.5C 542.967,296.494 541.134,296.161 539.5,295.5C 544.5,294.997 544.167,294.664 538.5,294.5C 541.191,292.404 544.191,292.07 547.5,293.5C 546.975,294.192 546.308,294.692 545.5,295C 547.197,295.384 548.863,295.218 550.5,294.5 Z"/></g>
<g><path style="opacity:0.981" fill="#303030" d="M 574.5,294.5 C 567.833,294.833 567.833,295.167 574.5,295.5C 574.611,296.117 574.944,296.617 575.5,297C 578.757,298.043 582.09,298.543 585.5,298.5C 585.5,298.833 585.5,299.167 585.5,299.5C 589.031,300.975 592.698,302.308 596.5,303.5C 596.833,303.5 597.167,303.5 597.5,303.5C 599.359,302.406 601.359,301.573 603.5,301C 602.748,300.329 602.414,299.496 602.5,298.5C 603.167,298.833 603.833,299.167 604.5,299.5C 605.167,299.5 605.5,299.167 605.5,298.5C 609.003,298.871 612.003,297.871 614.5,295.5C 614.833,295.5 615.167,295.5 615.5,295.5C 615.833,295.5 616.167,295.5 616.5,295.5C 617.167,295.5 617.5,295.167 617.5,294.5C 630.919,292.837 644.252,293.17 657.5,295.5C 658.791,295.737 659.791,295.404 660.5,294.5C 661.167,294.5 661.833,294.5 662.5,294.5C 662.047,295.458 661.381,296.292 660.5,297C 663.03,297.379 665.363,298.213 667.5,299.5C 667.833,299.5 668.167,299.5 668.5,299.5C 670.086,300.148 671.753,300.648 673.5,301C 672.66,302.666 673.16,302.833 675,301.5C 676.23,305.245 678.563,306.912 682,306.5C 682.652,308.723 684.152,309.89 686.5,310C 686.167,310.333 685.833,310.667 685.5,311C 687.001,312.252 688.668,313.252 690.5,314C 690.167,314.333 689.833,314.667 689.5,315C 690.618,316.074 691.618,317.24 692.5,318.5C 693.425,319.641 694.259,319.641 695,318.5C 695.202,320.256 695.702,321.922 696.5,323.5C 698.521,324.855 700.188,326.521 701.5,328.5C 701.328,329.492 701.662,330.158 702.5,330.5C 702.75,332.674 703.75,334.341 705.5,335.5C 705.5,336.167 705.833,336.5 706.5,336.5C 706.833,336.5 707.167,336.5 707.5,336.5C 707.5,336.833 707.5,337.167 707.5,337.5C 705.776,337.461 705.443,337.794 706.5,338.5C 707.005,341.521 707.672,344.521 708.5,347.5C 708.747,348.713 709.414,349.38 710.5,349.5C 710.5,350.167 710.5,350.833 710.5,351.5C 712.049,353.405 713.882,353.739 716,352.5C 718.046,353.911 719.879,355.577 721.5,357.5C 722.773,357.254 723.94,357.254 725,357.5C 725.583,359.002 726.416,360.335 727.5,361.5C 730.893,363.02 733.893,365.02 736.5,367.5C 736.5,368.167 736.833,368.5 737.5,368.5C 737.794,371.481 739.128,372.148 741.5,370.5C 742.167,370.5 742.5,370.833 742.5,371.5C 742.5,372.167 742.167,372.5 741.5,372.5C 745.825,376.952 749.492,381.952 752.5,387.5C 752.833,388.833 753.167,388.833 753.5,387.5C 754.167,387.5 754.5,387.833 754.5,388.5C 754.167,389.167 753.833,389.833 753.5,390.5C 753.5,390.833 753.5,391.167 753.5,391.5C 754.604,393.389 755.937,395.055 757.5,396.5C 757.328,397.492 757.662,398.158 758.5,398.5C 759.285,404.716 761.618,410.049 765.5,414.5C 765.5,414.833 765.5,415.167 765.5,415.5C 764.903,415.735 764.57,416.235 764.5,417C 767.121,426.355 769.454,435.521 771.5,444.5C 771.815,458.579 771.482,472.579 770.5,486.5C 770.5,490.5 770.5,494.5 770.5,498.5C 769.883,498.611 769.383,498.944 769,499.5C 768.169,505.477 767.669,511.477 767.5,517.5C 766.527,519.948 766.194,522.615 766.5,525.5C 766.167,525.5 765.833,525.5 765.5,525.5C 764.105,533.728 762.772,542.062 761.5,550.5C 759.143,563.919 758.143,577.585 758.5,591.5C 758.5,591.833 758.5,592.167 758.5,592.5C 757.175,611.402 757.175,630.402 758.5,649.5C 758.458,669.041 759.458,688.374 761.5,707.5C 762.836,724.959 764.17,742.293 765.5,759.5C 766.167,764.5 766.833,769.5 767.5,774.5C 767.5,774.833 767.5,775.167 767.5,775.5C 767.334,780.179 767.501,784.845 768,789.5C 768.383,790.056 768.883,790.389 769.5,790.5C 769.5,790.833 769.5,791.167 769.5,791.5C 768.84,792.964 768.507,794.631 768.5,796.5C 768.556,798.64 769.223,800.306 770.5,801.5C 770.187,805.042 770.521,808.375 771.5,811.5C 771.405,816.887 771.905,822.22 773,827.5C 773.383,828.056 773.883,828.389 774.5,828.5C 774.246,830.401 774.58,831.067 775.5,830.5C 776.833,831.5 776.833,832.5 775.5,833.5C 774.167,833.833 774.167,834.167 775.5,834.5C 775.5,834.833 775.5,835.167 775.5,835.5C 775.205,837.735 775.539,839.735 776.5,841.5C 776.777,845.332 777.11,849.165 777.5,853C 777.034,858.233 776.368,863.066 775.5,867.5C 774.833,867.5 774.5,867.833 774.5,868.5C 773.046,871.179 770.879,873.846 768,876.5C 767.667,876.167 767.333,875.833 767,875.5C 765.786,877.049 764.286,878.215 762.5,879C 762.833,879.333 763.167,879.667 763.5,880C 762.451,880.492 761.451,880.326 760.5,879.5C 757.953,879.771 755.953,880.771 754.5,882.5C 752.585,882.216 750.919,882.549 749.5,883.5C 744.88,883.74 740.547,884.74 736.5,886.5C 736.5,886.833 736.5,887.167 736.5,887.5C 734.473,887.338 732.473,887.505 730.5,888C 722.775,890.441 715.108,892.941 707.5,895.5C 706.5,895.5 705.5,895.5 704.5,895.5C 700.532,896.394 696.532,897.227 692.5,898C 691.944,898.383 691.611,898.883 691.5,899.5C 689.833,899.5 688.167,899.5 686.5,899.5C 681.612,900.738 676.612,901.571 671.5,902C 670.944,902.383 670.611,902.883 670.5,903.5C 668.801,903.34 667.134,903.506 665.5,904C 666.094,904.464 666.761,904.631 667.5,904.5C 666.167,905.833 664.833,905.833 663.5,904.5C 662.833,903.167 662.167,903.167 661.5,904.5C 661.167,904.5 660.833,904.5 660.5,904.5C 628.501,905.792 596.501,905.792 564.5,904.5C 564.158,903.662 563.492,903.328 562.5,903.5C 561.127,903.343 559.793,903.51 558.5,904C 559.094,904.464 559.761,904.631 560.5,904.5C 558.5,905.833 556.5,905.833 554.5,904.5C 553.118,903.723 551.118,903.056 548.5,902.5C 532.764,899.892 516.764,897.559 500.5,895.5C 499.167,895.5 497.833,895.5 496.5,895.5C 496.03,894.307 495.03,893.64 493.5,893.5C 487.952,892.342 482.619,891.675 477.5,891.5C 478.067,890.58 477.401,890.246 475.5,890.5C 475.5,890.167 475.5,889.833 475.5,889.5C 468.331,887.951 461.331,885.617 454.5,882.5C 453.833,882.5 453.167,882.5 452.5,882.5C 448.248,880.384 443.915,878.051 439.5,875.5C 438.914,875.709 438.414,876.043 438,876.5C 436.814,874.396 434.814,872.396 432,870.5C 431.667,870.833 431.333,871.167 431,871.5C 428.791,867.732 426.625,864.066 424.5,860.5C 424.167,860.5 423.833,860.5 423.5,860.5C 423.324,857.273 422.657,854.273 421.5,851.5C 421.302,839.35 422.302,827.35 424.5,815.5C 425.682,809.699 426.348,803.699 426.5,797.5C 427.23,793.939 427.897,790.273 428.5,786.5C 428.5,783.5 428.5,780.5 428.5,777.5C 429.117,777.389 429.617,777.056 430,776.5C 430.637,766.76 431.47,757.093 432.5,747.5C 432.181,742.637 432.514,737.97 433.5,733.5C 434.488,728.36 434.821,723.026 434.5,717.5C 435.519,707.433 436.519,697.266 437.5,687C 437.272,686.601 436.938,686.435 436.5,686.5C 436.5,686.167 436.5,685.833 436.5,685.5C 438.45,680.265 439.117,674.598 438.5,668.5C 439.493,660.35 439.826,652.017 439.5,643.5C 440.663,622.004 440.829,600.337 440,578.5C 439.79,568.96 438.957,559.627 437.5,550.5C 436.118,539.032 434.451,527.699 432.5,516.5C 432.167,516.5 431.833,516.5 431.5,516.5C 431.147,507.619 430.147,498.952 428.5,490.5C 427.278,480.422 426.278,470.422 425.5,460.5C 424.513,455.695 424.179,450.695 424.5,445.5C 425.117,445.389 425.617,445.056 426,444.5C 426.23,435.39 427.063,426.39 428.5,417.5C 428.5,415.833 428.5,414.167 428.5,412.5C 430.452,408.789 431.785,404.789 432.5,400.5C 432.5,399.5 432.5,398.5 432.5,397.5C 435.067,395.963 435.734,393.796 434.5,391C 436.239,390.081 436.906,388.915 436.5,387.5C 437.167,387.5 437.5,387.167 437.5,386.5C 439.539,385.089 440.539,383.089 440.5,380.5C 441.167,380.5 441.5,380.167 441.5,379.5C 442.635,378.526 443.635,377.359 444.5,376C 444.167,375.667 443.833,375.333 443.5,375C 444.833,374.333 446.167,373.667 447.5,373C 448.523,370.103 450.357,367.936 453,366.5C 453.483,365.552 453.649,364.552 453.5,363.5C 455.77,361.025 458.437,359.025 461.5,357.5C 462.167,357.5 462.5,357.833 462.5,358.5C 466.631,356.684 470.631,354.684 474.5,352.5C 479.861,354.146 483.194,352.146 484.5,346.5C 484.5,345.5 484.5,344.5 484.5,343.5C 486.572,341.65 487.905,339.317 488.5,336.5C 488.5,336.167 488.5,335.833 488.5,335.5C 488.925,332.886 490.258,330.886 492.5,329.5C 491.8,329.213 491.133,328.88 490.5,328.5C 490.5,327.833 490.833,327.5 491.5,327.5C 491.833,327.5 492.167,327.5 492.5,327.5C 493.167,327.5 493.5,327.167 493.5,326.5C 494.557,325.216 495.557,323.883 496.5,322.5C 497.167,322.5 497.5,322.167 497.5,321.5C 505.614,311.667 515.281,304.334 526.5,299.5C 527.492,299.672 528.158,299.338 528.5,298.5C 530.848,298.33 533.182,297.997 535.5,297.5C 537.03,297.36 538.03,296.693 538.5,295.5C 538.833,295.5 539.167,295.5 539.5,295.5C 541.134,296.161 542.967,296.494 545,296.5C 547.295,296.453 549.129,295.787 550.5,294.5C 554.5,294.5 558.5,294.5 562.5,294.5C 564.068,295.473 565.735,295.64 567.5,295C 566.263,294.768 565.263,294.268 564.5,293.5C 568.104,291.97 571.437,292.303 574.5,294.5 Z"/></g>
<g><path style="opacity:0.009" fill="#161616" d="M 538.5,294.5 C 538.5,294.833 538.5,295.167 538.5,295.5C 538.03,296.693 537.03,297.36 535.5,297.5C 533.182,297.997 530.848,298.33 528.5,298.5C 527.833,298.5 527.167,298.5 526.5,298.5C 526.5,298.167 526.5,297.833 526.5,297.5C 530.163,295.584 534.163,294.584 538.5,294.5 Z"/></g>
<g><path style="opacity:0.008" fill="#0d0d0d" d="M 662.5,294.5 C 681.794,301.842 696.127,314.175 705.5,331.5C 705.291,332.086 704.957,332.586 704.5,333C 706.426,333.422 707.426,334.589 707.5,336.5C 707.167,336.5 706.833,336.5 706.5,336.5C 705.833,336.5 705.5,336.167 705.5,335.5C 703.75,334.341 702.75,332.674 702.5,330.5C 702.672,329.508 702.338,328.842 701.5,328.5C 700.188,326.521 698.521,324.855 696.5,323.5C 695.702,321.922 695.202,320.256 695,318.5C 694.259,319.641 693.425,319.641 692.5,318.5C 691.618,317.24 690.618,316.074 689.5,315C 689.833,314.667 690.167,314.333 690.5,314C 688.668,313.252 687.001,312.252 685.5,311C 685.833,310.667 686.167,310.333 686.5,310C 684.152,309.89 682.652,308.723 682,306.5C 678.563,306.912 676.23,305.245 675,301.5C 673.16,302.833 672.66,302.666 673.5,301C 671.753,300.648 670.086,300.148 668.5,299.5C 668.167,298.167 667.833,298.167 667.5,299.5C 665.363,298.213 663.03,297.379 660.5,297C 661.381,296.292 662.047,295.458 662.5,294.5 Z"/></g>
<g><path style="opacity:0.009" fill="#0b0b0b" d="M 574.5,294.5 C 582.43,295.024 589.93,297.024 597,300.5C 598.8,299.68 600.634,299.014 602.5,298.5C 602.414,299.496 602.748,300.329 603.5,301C 601.359,301.573 599.359,302.406 597.5,303.5C 597.167,302.167 596.833,302.167 596.5,303.5C 592.698,302.308 589.031,300.975 585.5,299.5C 589.5,299.167 589.5,298.833 585.5,298.5C 582.09,298.543 578.757,298.043 575.5,297C 574.944,296.617 574.611,296.117 574.5,295.5C 574.5,295.167 574.5,294.833 574.5,294.5 Z"/></g>
<g><path style="opacity:0.005" fill="#070707" d="M 526.5,297.5 C 526.5,297.833 526.5,298.167 526.5,298.5C 526.5,298.833 526.5,299.167 526.5,299.5C 515.281,304.334 505.614,311.667 497.5,321.5C 497.5,320.833 497.167,320.5 496.5,320.5C 499.251,316.243 502.584,312.41 506.5,309C 512.806,304.512 519.472,300.679 526.5,297.5 Z"/></g>
<g><path style="opacity:1" fill="#aaaaaa" d="M 649.5,319.5 C 640.833,318.167 632.167,318.167 623.5,319.5C 623.918,318.778 624.584,318.278 625.5,318C 632.5,317.333 639.5,317.333 646.5,318C 647.737,318.232 648.737,318.732 649.5,319.5 Z"/></g>
<g><path style="opacity:1" fill="#535353" d="M 566.5,320.5 C 559.167,319.167 551.833,319.167 544.5,320.5C 548.203,318.945 552.203,318.278 556.5,318.5C 559.5,318.667 562.5,318.833 565.5,319C 566.056,319.383 566.389,319.883 566.5,320.5 Z"/></g>
<g><path style="opacity:1" fill="#fefefe" d="M 649.5,319.5 C 654.919,320.445 659.919,322.445 664.5,325.5C 664.973,326.906 665.973,327.573 667.5,327.5C 669.806,329.139 671.806,331.139 673.5,333.5C 673.738,335.404 674.738,336.738 676.5,337.5C 679.164,339.484 680.831,342.151 681.5,345.5C 681.427,347.027 682.094,348.027 683.5,348.5C 683.884,352.586 684.717,356.586 686,360.5C 686.499,365.155 686.666,369.821 686.5,374.5C 690.833,374.5 695.167,374.5 699.5,374.5C 709.36,377.185 717.527,382.518 724,390.5C 726.347,393.194 728.18,396.194 729.5,399.5C 729.427,401.027 730.094,402.027 731.5,402.5C 732.674,403.514 733.34,404.847 733.5,406.5C 733.427,408.027 734.094,409.027 735.5,409.5C 736.537,410.93 737.204,412.597 737.5,414.5C 737.755,416.967 738.755,418.967 740.5,420.5C 741.79,424.082 742.79,427.749 743.5,431.5C 743.41,434.152 744.076,436.485 745.5,438.5C 745.5,439.5 745.5,440.5 745.5,441.5C 746.294,452.815 746.627,464.148 746.5,475.5C 745.78,481.138 745.447,486.804 745.5,492.5C 744.778,492.918 744.278,493.584 744,494.5C 743.535,498.848 743.035,503.181 742.5,507.5C 742.5,510.167 742.5,512.833 742.5,515.5C 741.693,519.021 741.026,522.688 740.5,526.5C 739.076,528.515 738.41,530.848 738.5,533.5C 737.838,537.466 737.505,541.466 737.5,545.5C 737.483,547.565 737.15,549.565 736.5,551.5C 734.783,554.845 734.116,558.511 734.5,562.5C 733.92,566.81 733.586,571.143 733.5,575.5C 733.5,578.833 733.5,582.167 733.5,585.5C 732.527,587.948 732.194,590.615 732.5,593.5C 725.477,593.031 718.477,592.364 711.5,591.5C 708.726,589.936 706.059,588.103 703.5,586C 700.223,584.857 696.89,584.023 693.5,583.5C 685.294,578.882 676.627,578.216 667.5,581.5C 664.825,583.513 663.158,586.18 662.5,589.5C 661.837,591.473 661.504,593.639 661.5,596C 661.792,600.614 662.625,605.114 664,609.5C 665.564,612.438 667.73,614.772 670.5,616.5C 680.965,628.904 694.298,636.404 710.5,639C 715.833,639.667 721.167,639.667 726.5,639C 727.737,638.768 728.737,638.268 729.5,637.5C 730.15,637.196 730.817,636.863 731.5,636.5C 732.167,642.319 732.833,647.986 733.5,653.5C 733.5,655.833 733.5,658.167 733.5,660.5C 733.709,670.172 734.042,679.839 734.5,689.5C 734.613,694.518 734.947,699.518 735.5,704.5C 735.5,706.5 735.5,708.5 735.5,710.5C 729.491,710.666 723.491,710.499 717.5,710C 710.924,706.551 703.924,705.218 696.5,706C 695.058,706.377 694.058,707.21 693.5,708.5C 691.62,708.229 690.287,708.896 689.5,710.5C 685.792,712.384 683.292,715.384 682,719.5C 681.333,724.167 681.333,728.833 682,733.5C 682.383,734.056 682.883,734.389 683.5,734.5C 684.657,740.506 687.99,745.006 693.5,748C 703.143,749.774 712.81,751.274 722.5,752.5C 724.476,754.011 726.809,754.844 729.5,755C 732.817,755.498 736.15,755.665 739.5,755.5C 739.833,755.5 740.167,755.5 740.5,755.5C 741.654,772.552 743.321,789.552 745.5,806.5C 745.833,810.5 746.167,814.5 746.5,818.5C 746.425,822.897 746.925,827.23 748,831.5C 748.383,832.056 748.883,832.389 749.5,832.5C 750.533,840.268 751.7,847.934 753,855.5C 750.026,857.063 746.859,858.063 743.5,858.5C 740.422,858.62 737.755,859.62 735.5,861.5C 729.665,862.937 723.998,864.604 718.5,866.5C 716.435,866.517 714.435,866.85 712.5,867.5C 710.517,867.157 709.183,867.824 708.5,869.5C 704.96,869.753 701.627,870.419 698.5,871.5C 695.848,871.41 693.515,872.076 691.5,873.5C 689.194,873.993 686.861,874.326 684.5,874.5C 680.837,874.952 677.17,875.452 673.5,876C 672.944,876.383 672.611,876.883 672.5,877.5C 670.833,877.5 669.167,877.5 667.5,877.5C 663.154,877.334 658.821,877.501 654.5,878C 653.944,878.383 653.611,878.883 653.5,879.5C 633.183,880.399 612.849,880.732 592.5,880.5C 581.78,880.575 571.113,879.909 560.5,878.5C 555.438,878.726 550.438,878.392 545.5,877.5C 540.731,876.111 535.731,875.444 530.5,875.5C 524.833,874.833 519.167,874.167 513.5,873.5C 513.389,872.883 513.056,872.383 512.5,872C 508.83,871.452 505.163,870.952 501.5,870.5C 501.167,870.5 500.833,870.5 500.5,870.5C 499.653,869.034 498.32,868.2 496.5,868C 493.173,867.39 489.839,866.89 486.5,866.5C 483.311,866.142 480.311,865.475 477.5,864.5C 476.07,863.463 474.403,862.796 472.5,862.5C 470.302,862.125 468.302,861.458 466.5,860.5C 464.898,858.926 462.898,858.259 460.5,858.5C 460.047,857.542 459.381,856.708 458.5,856C 455.588,855.725 452.921,854.891 450.5,853.5C 449.833,853.167 449.167,852.833 448.5,852.5C 448.573,850.973 447.906,849.973 446.5,849.5C 445.182,840.993 445.516,832.66 447.5,824.5C 448.525,821.026 449.192,817.36 449.5,813.5C 449.741,808.306 450.407,803.306 451.5,798.5C 453.669,792.48 454.669,786.147 454.5,779.5C 454.5,778.5 454.5,777.5 454.5,776.5C 456.735,776.795 458.735,776.461 460.5,775.5C 470.79,772.541 480.456,768.207 489.5,762.5C 490.167,762.5 490.833,762.5 491.5,762.5C 504.655,759.285 517.989,758.618 531.5,760.5C 544.015,764.41 556.682,768.076 569.5,771.5C 574.915,774.891 580.915,776.224 587.5,775.5C 595.855,775.821 603.522,774.154 610.5,770.5C 615.377,768.061 620.377,765.561 625.5,763C 630.316,758.704 633.65,753.538 635.5,747.5C 636.931,747.119 637.764,746.119 638,744.5C 638.876,737.679 638.209,731.012 636,724.5C 634.669,722.004 632.836,720.004 630.5,718.5C 628.833,716.167 626.833,714.167 624.5,712.5C 615.303,706.596 605.637,705.929 595.5,710.5C 583.95,713.842 572.95,712.509 562.5,706.5C 555.223,702.174 547.889,697.84 540.5,693.5C 536.14,691.242 531.473,689.909 526.5,689.5C 524.435,689.483 522.435,689.15 520.5,688.5C 519.833,688.5 519.167,688.5 518.5,688.5C 516.631,687.835 514.631,687.169 512.5,686.5C 503.675,685.179 495.009,685.179 486.5,686.5C 486.167,686.5 485.833,686.5 485.5,686.5C 477.839,686.862 471.173,689.529 465.5,694.5C 464.167,694.833 462.833,695.167 461.5,695.5C 461.5,695.167 461.5,694.833 461.5,694.5C 462.222,694.082 462.722,693.416 463,692.5C 463.763,680.508 464.263,668.508 464.5,656.5C 465.207,648.854 465.54,641.187 465.5,633.5C 469.739,636.527 474.406,637.194 479.5,635.5C 480.612,634.735 481.279,633.735 481.5,632.5C 485.822,630.598 489.322,627.598 492,623.5C 493.676,618.808 496.342,614.808 500,611.5C 500.838,608.148 501.671,604.815 502.5,601.5C 504.358,592.691 503.525,584.024 500,575.5C 499.292,574.619 498.458,573.953 497.5,573.5C 497.116,569.728 495.45,566.728 492.5,564.5C 491.457,561.944 489.79,559.777 487.5,558C 483.565,556.063 480.232,553.396 477.5,550C 472.237,547.864 466.904,546.031 461.5,544.5C 461.5,543.833 461.167,543.5 460.5,543.5C 459.259,530.064 457.592,516.731 455.5,503.5C 455.397,497.139 454.897,490.806 454,484.5C 453.617,483.944 453.117,483.611 452.5,483.5C 450.828,467.365 450.161,451.031 450.5,434.5C 451.525,431.026 452.192,427.36 452.5,423.5C 453.57,416.69 455.237,410.023 457.5,403.5C 459.771,401.388 461.104,398.721 461.5,395.5C 462.433,392.63 464.1,390.296 466.5,388.5C 467.833,387.833 468.833,386.833 469.5,385.5C 470.891,383.11 472.891,381.443 475.5,380.5C 477.027,380.573 478.027,379.906 478.5,378.5C 480.698,378.88 482.365,378.213 483.5,376.5C 483.833,376.5 484.167,376.5 484.5,376.5C 486.861,376.326 489.194,375.993 491.5,375.5C 496.5,375.5 501.5,375.5 506.5,375.5C 506.5,369.167 506.5,362.833 506.5,356.5C 506.5,356.167 506.5,355.833 506.5,355.5C 508.245,353.967 509.245,351.967 509.5,349.5C 509.66,347.847 510.326,346.514 511.5,345.5C 512.906,345.027 513.573,344.027 513.5,342.5C 515.817,338.854 518.484,335.52 521.5,332.5C 523.404,332.262 524.738,331.262 525.5,329.5C 527.267,327.11 529.6,325.443 532.5,324.5C 535.112,323.629 537.779,322.963 540.5,322.5C 551.826,321.222 563.159,321.222 574.5,322.5C 576.042,323.301 577.708,323.634 579.5,323.5C 581.701,324.566 584.035,325.233 586.5,325.5C 586.973,326.906 587.973,327.573 589.5,327.5C 592.945,328.73 595.945,330.73 598.5,333.5C 601.235,334.821 602.902,333.821 603.5,330.5C 605.637,327.027 608.637,324.694 612.5,323.5C 615.947,322.917 618.947,321.584 621.5,319.5C 622.167,319.5 622.833,319.5 623.5,319.5C 632.167,318.167 640.833,318.167 649.5,319.5 Z"/></g>
<g><path style="opacity:0.006" fill="#010101" d="M 496.5,320.5 C 496.5,321.167 496.5,321.833 496.5,322.5C 495.557,323.883 494.557,325.216 493.5,326.5C 492.833,326.5 492.5,326.833 492.5,327.5C 492.167,327.5 491.833,327.5 491.5,327.5C 492.433,324.63 494.1,322.296 496.5,320.5 Z"/></g>
<g><path style="opacity:1" fill="#acacac" d="M 621.5,319.5 C 618.947,321.584 615.947,322.917 612.5,323.5C 615.053,321.416 618.053,320.083 621.5,319.5 Z"/></g>
<g><path style="opacity:1" fill="#d8d8d8" d="M 566.5,320.5 C 569.127,321.092 571.794,321.425 574.5,321.5C 574.5,321.833 574.5,322.167 574.5,322.5C 563.159,321.222 551.826,321.222 540.5,322.5C 541.5,321.833 542.5,321.167 543.5,320.5C 543.833,320.5 544.167,320.5 544.5,320.5C 551.833,319.167 559.167,319.167 566.5,320.5 Z"/></g>
<g><path style="opacity:1" fill="#959595" d="M 543.5,320.5 C 542.5,321.167 541.5,321.833 540.5,322.5C 537.779,322.963 535.112,323.629 532.5,324.5C 535.626,322.01 539.292,320.677 543.5,320.5 Z"/></g>
<g><path style="opacity:1" fill="#888888" d="M 574.5,322.5 C 574.5,322.167 574.5,321.833 574.5,321.5C 576.698,321.12 578.365,321.787 579.5,323.5C 577.708,323.634 576.042,323.301 574.5,322.5 Z"/></g>
<g><path style="opacity:1" fill="#757575" d="M 664.5,325.5 C 666.027,325.427 667.027,326.094 667.5,327.5C 665.973,327.573 664.973,326.906 664.5,325.5 Z"/></g>
<g><path style="opacity:1" fill="#7c7c7c" d="M 586.5,325.5 C 588.027,325.427 589.027,326.094 589.5,327.5C 587.973,327.573 586.973,326.906 586.5,325.5 Z"/></g>
<g><path style="opacity:1" fill="#b1b1b1" d="M 525.5,329.5 C 524.738,331.262 523.404,332.262 521.5,332.5C 522.262,330.738 523.596,329.738 525.5,329.5 Z"/></g>
<g><path style="opacity:1" fill="#ababab" d="M 603.5,330.5 C 602.902,333.821 601.235,334.821 598.5,333.5C 600.411,332.925 602.078,331.925 603.5,330.5 Z"/></g>
<g><path style="opacity:1" fill="#b0b0b0" d="M 673.5,333.5 C 675.262,334.262 676.262,335.596 676.5,337.5C 674.738,336.738 673.738,335.404 673.5,333.5 Z"/></g>
<g><path style="opacity:0.01" fill="#111111" d="M 490.5,328.5 C 491.133,328.88 491.8,329.213 492.5,329.5C 490.258,330.886 488.925,332.886 488.5,335.5C 487.167,335.833 487.167,336.167 488.5,336.5C 487.905,339.317 486.572,341.65 484.5,343.5C 483.167,344.5 483.167,345.5 484.5,346.5C 483.194,352.146 479.861,354.146 474.5,352.5C 475.833,352.167 475.833,351.833 474.5,351.5C 476.448,350.869 478.281,349.869 480,348.5C 482.754,341.321 486.254,334.654 490.5,328.5 Z"/></g>
<g><path style="opacity:1" fill="#a1a1a1" d="M 513.5,342.5 C 513.573,344.027 512.906,345.027 511.5,345.5C 511.427,343.973 512.094,342.973 513.5,342.5 Z"/></g>
<g><path style="opacity:1" fill="#999999" d="M 681.5,345.5 C 682.906,345.973 683.573,346.973 683.5,348.5C 682.094,348.027 681.427,347.027 681.5,345.5 Z"/></g>
<g><path style="opacity:0.007" fill="#101010" d="M 707.5,336.5 C 709.474,340.668 711.307,345.001 713,349.5C 724.08,354.287 733.58,361.287 741.5,370.5C 739.128,372.148 737.794,371.481 737.5,368.5C 736.833,368.5 736.5,368.167 736.5,367.5C 733.893,365.02 730.893,363.02 727.5,361.5C 726.416,360.335 725.583,359.002 725,357.5C 723.94,357.254 722.773,357.254 721.5,357.5C 719.879,355.577 718.046,353.911 716,352.5C 713.882,353.739 712.049,353.405 710.5,351.5C 711.833,350.833 711.833,350.167 710.5,349.5C 709.414,349.38 708.747,348.713 708.5,347.5C 707.672,344.521 707.005,341.521 706.5,338.5C 707.167,338.5 707.5,338.167 707.5,337.5C 707.5,337.167 707.5,336.833 707.5,336.5 Z"/></g>
<g><path style="opacity:0.01" fill="#0b0b0b" d="M 474.5,351.5 C 474.5,351.833 474.5,352.167 474.5,352.5C 470.631,354.684 466.631,356.684 462.5,358.5C 462.5,357.833 462.167,357.5 461.5,357.5C 464.404,355.705 467.404,353.872 470.5,352C 471.793,351.51 473.127,351.343 474.5,351.5 Z"/></g>
<g><path style="opacity:1" fill="#7f7f7f" d="M 509.5,349.5 C 509.245,351.967 508.245,353.967 506.5,355.5C 506.755,353.033 507.755,351.033 509.5,349.5 Z"/></g>
<g><path style="opacity:1" fill="#cccccc" d="M 506.5,356.5 C 506.5,362.833 506.5,369.167 506.5,375.5C 501.5,375.5 496.5,375.5 491.5,375.5C 491.5,375.167 491.5,374.833 491.5,374.5C 496.167,374.5 500.833,374.5 505.5,374.5C 505.177,368.31 505.51,362.31 506.5,356.5 Z"/></g>
<g><path style="opacity:1" fill="#acacac" d="M 683.5,348.5 C 686.91,356.02 688.244,364.02 687.5,372.5C 690.85,372.335 694.183,372.502 697.5,373C 698.416,373.278 699.082,373.778 699.5,374.5C 695.167,374.5 690.833,374.5 686.5,374.5C 686.666,369.821 686.499,365.155 686,360.5C 684.717,356.586 683.884,352.586 683.5,348.5 Z"/></g>
<g><path style="opacity:1" fill="#929292" d="M 491.5,374.5 C 491.5,374.833 491.5,375.167 491.5,375.5C 489.194,375.993 486.861,376.326 484.5,376.5C 486.515,375.076 488.848,374.41 491.5,374.5 Z"/></g>
<g><path style="opacity:0.006" fill="#070707" d="M 742.5,371.5 C 747.139,376.092 750.805,381.425 753.5,387.5C 753.167,387.5 752.833,387.5 752.5,387.5C 749.492,381.952 745.825,376.952 741.5,372.5C 742.167,372.5 742.5,372.167 742.5,371.5 Z"/></g>
<g><path style="opacity:1" fill="#9d9d9d" d="M 483.5,376.5 C 482.365,378.213 480.698,378.88 478.5,378.5C 479.93,377.463 481.597,376.796 483.5,376.5 Z"/></g>
<g><path style="opacity:1" fill="#f1c1cf" d="M 576.5,378.5 C 571.156,378.334 565.823,378.501 560.5,379C 559.295,380.376 557.962,381.542 556.5,382.5C 557.8,378.704 560.467,376.537 564.5,376C 567.167,375.333 569.833,375.333 572.5,376C 574.32,376.2 575.653,377.034 576.5,378.5 Z"/></g>
<g><path style="opacity:1" fill="#fdb0c6" d="M 576.5,378.5 C 578.371,378.859 579.871,379.859 581,381.5C 582.459,383.432 583.625,385.432 584.5,387.5C 584.98,396.957 584.314,406.29 582.5,415.5C 581.833,415.833 581.167,416.167 580.5,416.5C 578.75,417.742 577.083,419.242 575.5,421C 573.188,422.349 570.688,423.182 568,423.5C 563.736,422.557 559.569,421.224 555.5,419.5C 555.167,418.5 554.5,417.833 553.5,417.5C 553.5,416.833 553.5,416.167 553.5,415.5C 551.802,404.231 552.802,393.231 556.5,382.5C 557.962,381.542 559.295,380.376 560.5,379C 565.823,378.501 571.156,378.334 576.5,378.5 Z"/></g>
<g><path style="opacity:1" fill="#f3ccd7" d="M 629.5,376.5 C 628.158,377.793 626.491,378.626 624.5,379C 623.672,380.992 622.339,382.492 620.5,383.5C 621.436,378.569 624.436,376.235 629.5,376.5 Z"/></g>
<g><path style="opacity:1" fill="#fdb0c6" d="M 643.5,381.5 C 646.1,392.168 646.1,402.834 643.5,413.5C 642.796,418.204 640.129,420.871 635.5,421.5C 628.791,422.671 623.457,420.671 619.5,415.5C 618.637,411.28 617.637,407.113 616.5,403C 617.735,396.46 619.069,389.96 620.5,383.5C 622.339,382.492 623.672,380.992 624.5,379C 626.491,378.626 628.158,377.793 629.5,376.5C 635.468,374.181 640.135,375.848 643.5,381.5 Z"/></g>
<g><path style="opacity:1" fill="#949494" d="M 478.5,378.5 C 478.027,379.906 477.027,380.573 475.5,380.5C 475.973,379.094 476.973,378.427 478.5,378.5 Z"/></g>
<g><path style="opacity:1" fill="#a3a3a3" d="M 469.5,385.5 C 468.833,386.833 467.833,387.833 466.5,388.5C 466.5,386.5 467.5,385.5 469.5,385.5 Z"/></g>
<g><path style="opacity:0.006" fill="#080808" d="M 754.5,388.5 C 760.119,396.406 764.119,405.073 766.5,414.5C 766.167,414.5 765.833,414.5 765.5,414.5C 761.618,410.049 759.285,404.716 758.5,398.5C 758.672,397.508 758.338,396.842 757.5,396.5C 755.937,395.055 754.604,393.389 753.5,391.5C 754.833,391.167 754.833,390.833 753.5,390.5C 753.833,389.833 754.167,389.167 754.5,388.5 Z"/></g>
<g><path style="opacity:0.008" fill="#0f0f0f" d="M 453.5,363.5 C 453.649,364.552 453.483,365.552 453,366.5C 450.357,367.936 448.523,370.103 447.5,373C 446.167,373.667 444.833,374.333 443.5,375C 443.833,375.333 444.167,375.667 444.5,376C 443.635,377.359 442.635,378.526 441.5,379.5C 440.833,379.5 440.5,379.833 440.5,380.5C 440.539,383.089 439.539,385.089 437.5,386.5C 436.833,386.5 436.5,386.833 436.5,387.5C 436.906,388.915 436.239,390.081 434.5,391C 435.734,393.796 435.067,395.963 432.5,397.5C 431.167,398.5 431.167,399.5 432.5,400.5C 431.785,404.789 430.452,408.789 428.5,412.5C 427.167,414.167 427.167,415.833 428.5,417.5C 427.063,426.39 426.23,435.39 426,444.5C 425.617,445.056 425.117,445.389 424.5,445.5C 421.666,415.117 430.166,388.45 450,365.5C 451.113,364.695 452.279,364.028 453.5,363.5 Z"/></g>
<g><path style="opacity:1" fill="#f3c9d5" d="M 643.5,381.5 C 644.966,382.347 645.8,383.68 646,385.5C 646.832,393.521 646.665,401.521 645.5,409.5C 644.828,410.949 644.161,412.282 643.5,413.5C 646.1,402.834 646.1,392.168 643.5,381.5 Z"/></g>
<g><path style="opacity:1" fill="#f6d4de" d="M 584.5,387.5 C 586.895,394.963 587.061,402.629 585,410.5C 584.901,412.653 584.067,414.319 582.5,415.5C 584.314,406.29 584.98,396.957 584.5,387.5 Z"/></g>
<g><path style="opacity:1" fill="#adadad" d="M 461.5,395.5 C 461.104,398.721 459.771,401.388 457.5,403.5C 457.896,400.279 459.229,397.612 461.5,395.5 Z"/></g>
<g><path style="opacity:1" fill="#efbac9" d="M 556.5,382.5 C 552.802,393.231 551.802,404.231 553.5,415.5C 549.86,407.768 549.527,399.768 552.5,391.5C 552.838,389.146 553.338,386.813 554,384.5C 554.417,383.244 555.25,382.577 556.5,382.5 Z"/></g>
<g><path style="opacity:1" fill="#b0b0b0" d="M 729.5,399.5 C 730.906,399.973 731.573,400.973 731.5,402.5C 730.094,402.027 729.427,401.027 729.5,399.5 Z"/></g>
<g><path style="opacity:1" fill="#fde6ed" d="M 552.5,391.5 C 549.527,399.768 549.86,407.768 553.5,415.5C 553.5,416.167 553.5,416.833 553.5,417.5C 552.542,417.047 551.708,416.381 551,415.5C 549.576,409.224 549.242,402.891 550,396.5C 550.099,394.347 550.933,392.681 552.5,391.5 Z"/></g>
<g><path style="opacity:1" fill="#a2a2a2" d="M 733.5,406.5 C 734.906,406.973 735.573,407.973 735.5,409.5C 734.094,409.027 733.427,408.027 733.5,406.5 Z"/></g>
<g><path style="opacity:0.006" fill="#171717" d="M 766.5,414.5 C 767.117,414.611 767.617,414.944 768,415.5C 769.994,423.632 771.827,431.799 773.5,440C 773.241,441.787 772.575,443.287 771.5,444.5C 769.454,435.521 767.121,426.355 764.5,417C 764.57,416.235 764.903,415.735 765.5,415.5C 766.167,415.5 766.5,415.167 766.5,414.5 Z"/></g>
<g><path style="opacity:1" fill="#f0bccb" d="M 620.5,383.5 C 619.069,389.96 617.735,396.46 616.5,403C 617.637,407.113 618.637,411.28 619.5,415.5C 623.457,420.671 628.791,422.671 635.5,421.5C 635.389,422.117 635.056,422.617 634.5,423C 627.827,424.462 622.327,422.628 618,417.5C 614.748,406.848 614.748,396.182 618,385.5C 618.417,384.244 619.25,383.577 620.5,383.5 Z"/></g>
<g><path style="opacity:1" fill="#909090" d="M 737.5,414.5 C 739.245,416.033 740.245,418.033 740.5,420.5C 738.755,418.967 737.755,416.967 737.5,414.5 Z"/></g>
<g><path style="opacity:1" fill="#f2bccb" d="M 697.5,458.5 C 698.256,451.509 698.423,444.509 698,437.5C 695.05,423.909 687.217,420.075 674.5,426C 674.085,428.026 673.085,429.526 671.5,430.5C 671.557,429.391 671.89,428.391 672.5,427.5C 674.594,422.883 678.261,420.55 683.5,420.5C 689.231,421.019 694.064,423.352 698,427.5C 701.248,435.192 702.248,443.192 701,451.5C 700.33,454.174 699.163,456.507 697.5,458.5 Z"/></g>
<g><path style="opacity:1" fill="#f2bccb" d="M 580.5,416.5 C 577.109,425.202 570.776,428.035 561.5,425C 559.004,423.669 557.004,421.836 555.5,419.5C 559.569,421.224 563.736,422.557 568,423.5C 570.688,423.182 573.188,422.349 575.5,421C 577.083,419.242 578.75,417.742 580.5,416.5 Z"/></g>
<g><path style="opacity:1" fill="#feb0c6" d="M 697.5,458.5 C 691.52,465.669 684.187,467.169 675.5,463C 669.56,454.893 667.227,445.727 668.5,435.5C 669.687,433.928 670.687,432.261 671.5,430.5C 673.085,429.526 674.085,428.026 674.5,426C 687.217,420.075 695.05,423.909 698,437.5C 698.423,444.509 698.256,451.509 697.5,458.5 Z"/></g>
<g><path style="opacity:1" fill="#fdb0c6" d="M 528.5,460.5 C 525.577,462.415 522.91,464.749 520.5,467.5C 515.544,468.494 510.544,468.827 505.5,468.5C 504.167,466.833 502.833,465.167 501.5,463.5C 501.496,461.158 500.663,459.158 499,457.5C 498.333,450.167 498.333,442.833 499,435.5C 500.666,433.004 502.5,430.671 504.5,428.5C 504.5,427.833 504.833,427.5 505.5,427.5C 510.284,425.353 515.284,425.019 520.5,426.5C 523.172,429.006 525.672,431.672 528,434.5C 528.7,439.384 529.534,444.217 530.5,449C 530.062,452.909 529.396,456.742 528.5,460.5 Z"/></g>
<g><path style="opacity:1" fill="#787878" d="M 452.5,423.5 C 452.192,427.36 451.525,431.026 450.5,434.5C 450.116,430.511 450.783,426.845 452.5,423.5 Z"/></g>
<g><path style="opacity:1" fill="#f2c2d0" d="M 528.5,460.5 C 529.396,456.742 530.062,452.909 530.5,449C 529.534,444.217 528.7,439.384 528,434.5C 525.672,431.672 523.172,429.006 520.5,426.5C 515.284,425.019 510.284,425.353 505.5,427.5C 506.453,425.39 508.119,424.223 510.5,424C 514.594,423.233 518.594,423.566 522.5,425C 529.649,430.702 532.649,438.202 531.5,447.5C 531.333,450.5 531.167,453.5 531,456.5C 530.8,458.32 529.966,459.653 528.5,460.5 Z"/></g>
<g><path style="opacity:1" fill="#929292" d="M 743.5,431.5 C 744.924,433.515 745.59,435.848 745.5,438.5C 744.076,436.485 743.41,434.152 743.5,431.5 Z"/></g>
<g><path style="opacity:1" fill="#fbe3eb" d="M 672.5,427.5 C 671.89,428.391 671.557,429.391 671.5,430.5C 670.687,432.261 669.687,433.928 668.5,435.5C 667.23,441.704 667.23,448.037 668.5,454.5C 667.883,454.389 667.383,454.056 667,453.5C 666.333,447.167 666.333,440.833 667,434.5C 668.391,431.664 670.224,429.331 672.5,427.5 Z"/></g>
<g><path style="opacity:1" fill="#f0c7d3" d="M 504.5,428.5 C 502.5,430.671 500.666,433.004 499,435.5C 498.333,442.833 498.333,450.167 499,457.5C 500.663,459.158 501.496,461.158 501.5,463.5C 498.438,461.377 496.938,458.377 497,454.5C 495.874,446.955 496.54,439.621 499,432.5C 500.451,430.536 502.284,429.203 504.5,428.5 Z"/></g>
<g><path style="opacity:0.014" fill="#010101" d="M 771.5,444.5 C 772.5,444.5 773.5,444.5 774.5,444.5C 774.667,458.504 774.5,472.504 774,486.5C 773.617,487.056 773.117,487.389 772.5,487.5C 772.158,486.662 771.492,486.328 770.5,486.5C 771.482,472.579 771.815,458.579 771.5,444.5 Z"/></g>
<g><path style="opacity:1" fill="#8e8e8e" d="M 745.5,441.5 C 746.29,442.609 746.79,443.942 747,445.5C 747.825,455.675 747.658,465.675 746.5,475.5C 746.627,464.148 746.294,452.815 745.5,441.5 Z"/></g>
<g><path style="opacity:0.008" fill="#151515" d="M 425.5,460.5 C 426.278,470.422 427.278,480.422 428.5,490.5C 427.167,493.5 427.167,496.5 428.5,499.5C 428.5,499.833 428.5,500.167 428.5,500.5C 428.784,502.415 428.451,504.081 427.5,505.5C 424.571,491.012 423.404,476.345 424,461.5C 425.107,462.712 425.607,462.379 425.5,460.5 Z"/></g>
<g><path style="opacity:1" fill="#f1bdcb" d="M 668.5,435.5 C 667.227,445.727 669.56,454.893 675.5,463C 684.187,467.169 691.52,465.669 697.5,458.5C 696.577,461.838 694.577,464.338 691.5,466C 686.924,467.476 682.257,467.81 677.5,467C 675,464.5 672.5,462 670,459.5C 668.991,457.975 668.491,456.308 668.5,454.5C 667.23,448.037 667.23,441.704 668.5,435.5 Z"/></g>
<g><path style="opacity:1" fill="#efbdcb" d="M 528.5,460.5 C 523.309,470.341 515.642,473.008 505.5,468.5C 510.544,468.827 515.544,468.494 520.5,467.5C 522.91,464.749 525.577,462.415 528.5,460.5 Z"/></g>
<g><path style="opacity:1" fill="#feb0c6" d="M 609.5,480.5 C 609.369,481.376 609.702,482.043 610.5,482.5C 616.631,484.401 622.298,487.068 627.5,490.5C 629.167,493.167 630.833,495.833 632.5,498.5C 633.5,498.5 634.5,498.5 635.5,498.5C 638.432,503.792 641.432,509.125 644.5,514.5C 645.419,519.514 646.419,524.514 647.5,529.5C 646.5,533.5 645.5,537.5 644.5,541.5C 642.813,544.024 641.48,546.69 640.5,549.5C 636.583,551.642 632.417,553.309 628,554.5C 623.639,552.682 618.972,551.349 614,550.5C 609.311,547.393 604.478,544.56 599.5,542C 593.317,541.386 587.317,541.886 581.5,543.5C 581.5,544.5 581.5,545.5 581.5,546.5C 581.5,546.833 581.5,547.167 581.5,547.5C 577.299,548.223 573.632,549.89 570.5,552.5C 562.47,553.844 555.304,552.177 549,547.5C 547.546,544.929 546.38,542.262 545.5,539.5C 545.335,535.818 545.501,532.152 546,528.5C 548.167,523.659 549.834,518.659 551,513.5C 554.288,511.38 556.122,508.38 556.5,504.5C 560.833,500.833 564.833,496.833 568.5,492.5C 577.41,487.968 586.743,484.135 596.5,481C 600.821,480.501 605.154,480.334 609.5,480.5 Z"/></g>
<g><path style="opacity:1" fill="#d3d3d3" d="M 452.5,483.5 C 453.117,483.611 453.617,483.944 454,484.5C 454.897,490.806 455.397,497.139 455.5,503.5C 453.781,497.076 452.781,490.409 452.5,483.5 Z"/></g>
<g><path style="opacity:1" fill="#f2bbcb" d="M 609.5,480.5 C 616.906,481.495 622.906,484.828 627.5,490.5C 622.298,487.068 616.631,484.401 610.5,482.5C 609.702,482.043 609.369,481.376 609.5,480.5 Z"/></g>
<g><path style="opacity:1" fill="#f3c2d0" d="M 609.5,480.5 C 605.154,480.334 600.821,480.501 596.5,481C 586.743,484.135 577.41,487.968 568.5,492.5C 580.112,481.445 593.778,477.445 609.5,480.5 Z"/></g>
<g><path style="opacity:1" fill="#f3ccd6" d="M 568.5,492.5 C 564.833,496.833 560.833,500.833 556.5,504.5C 559.5,499.5 563.5,495.5 568.5,492.5 Z"/></g>
<g><path style="opacity:1" fill="#c0c0c0" d="M 745.5,492.5 C 744.838,496.466 744.505,500.466 744.5,504.5C 743.833,505.5 743.167,506.5 742.5,507.5C 743.035,503.181 743.535,498.848 744,494.5C 744.278,493.584 744.778,492.918 745.5,492.5 Z"/></g>
<g><path style="opacity:1" fill="#f2baca" d="M 627.5,490.5 C 632.713,493.876 637.213,498.209 641,503.5C 643.947,507.39 645.78,511.723 646.5,516.5C 648.729,524.383 649.062,532.383 647.5,540.5C 644.991,543.341 642.658,546.341 640.5,549.5C 641.48,546.69 642.813,544.024 644.5,541.5C 645.5,537.5 646.5,533.5 647.5,529.5C 646.419,524.514 645.419,519.514 644.5,514.5C 641.432,509.125 638.432,503.792 635.5,498.5C 634.5,498.5 633.5,498.5 632.5,498.5C 630.833,495.833 629.167,493.167 627.5,490.5 Z"/></g>
<g><path style="opacity:0.007" fill="#0d0d0d" d="M 428.5,490.5 C 430.147,498.952 431.147,507.619 431.5,516.5C 431.598,518.603 431.265,520.936 430.5,523.5C 429.064,517.571 428.064,511.571 427.5,505.5C 428.451,504.081 428.784,502.415 428.5,500.5C 429.833,500.167 429.833,499.833 428.5,499.5C 428.5,496.5 428.5,493.5 428.5,490.5 Z"/></g>
<g><path style="opacity:0.007" fill="#131313" d="M 772.5,487.5 C 773.569,490.408 773.736,493.408 773,496.5C 772.005,503.906 770.505,511.072 768.5,518C 769.591,520.064 769.758,522.231 769,524.5C 768.617,525.056 768.117,525.389 767.5,525.5C 767.5,522.833 767.5,520.167 767.5,517.5C 767.669,511.477 768.169,505.477 769,499.5C 769.383,498.944 769.883,498.611 770.5,498.5C 771.167,494.833 771.833,491.167 772.5,487.5 Z"/></g>
<g><path style="opacity:1" fill="#7a7a7a" d="M 744.5,504.5 C 744.192,508.36 743.525,512.026 742.5,515.5C 742.5,512.833 742.5,510.167 742.5,507.5C 743.167,506.5 743.833,505.5 744.5,504.5 Z"/></g>
<g><path style="opacity:1" fill="#f2c0ce" d="M 556.5,504.5 C 556.122,508.38 554.288,511.38 551,513.5C 549.834,518.659 548.167,523.659 546,528.5C 545.501,532.152 545.335,535.818 545.5,539.5C 544.349,534.35 544.183,529.016 545,523.5C 547.047,520.036 548.713,516.37 550,512.5C 551.965,509.509 554.132,506.843 556.5,504.5 Z"/></g>
<g><path style="opacity:1" fill="#fad6e1" d="M 646.5,516.5 C 647.558,517.6 648.392,518.934 649,520.5C 649.667,526.5 649.667,532.5 649,538.5C 648.722,539.416 648.222,540.082 647.5,540.5C 649.062,532.383 648.729,524.383 646.5,516.5 Z"/></g>
<g><path style="opacity:0.01" fill="#171717" d="M 432.5,516.5 C 434.451,527.699 436.118,539.032 437.5,550.5C 436.833,550.5 436.5,550.833 436.5,551.5C 436.5,553.5 436.5,555.5 436.5,557.5C 435.539,555.735 435.205,553.735 435.5,551.5C 432.863,545.063 432.196,538.397 433.5,531.5C 432.753,531.264 431.92,530.93 431,530.5C 430.833,529.667 430.667,528.833 430.5,528C 432.181,524.412 432.848,520.578 432.5,516.5 Z"/></g>
<g><path style="opacity:1" fill="#b5b5b5" d="M 740.5,526.5 C 740.5,527.833 740.5,529.167 740.5,530.5C 739.833,531.5 739.167,532.5 738.5,533.5C 738.41,530.848 739.076,528.515 740.5,526.5 Z"/></g>
<g><path style="opacity:0.009" fill="#141414" d="M 765.5,525.5 C 765.833,526.833 766.167,526.833 766.5,525.5C 766.833,525.5 767.167,525.5 767.5,525.5C 767.982,526.416 768.315,527.416 768.5,528.5C 767.074,536.296 765.407,543.962 763.5,551.5C 763.784,553.415 763.451,555.081 762.5,556.5C 762.5,554.833 762.5,553.167 762.5,551.5C 762.5,550.833 762.167,550.5 761.5,550.5C 762.772,542.062 764.105,533.728 765.5,525.5 Z"/></g>
<g><path style="opacity:1" fill="#777777" d="M 740.5,530.5 C 740.138,535.752 739.138,540.752 737.5,545.5C 737.505,541.466 737.838,537.466 738.5,533.5C 739.167,532.5 739.833,531.5 740.5,530.5 Z"/></g>
<g><path style="opacity:1" fill="#f2bfcd" d="M 640.5,549.5 C 639.71,550.794 638.71,551.961 637.5,553C 631.691,555.258 625.691,555.925 619.5,555C 612.149,551.303 604.816,547.636 597.5,544C 591.909,543.584 586.576,544.417 581.5,546.5C 581.5,545.5 581.5,544.5 581.5,543.5C 587.317,541.886 593.317,541.386 599.5,542C 604.478,544.56 609.311,547.393 614,550.5C 618.972,551.349 623.639,552.682 628,554.5C 632.417,553.309 636.583,551.642 640.5,549.5 Z"/></g>
<g><path style="opacity:1" fill="#f7c693" d="M 492.5,564.5 C 495.45,566.728 497.116,569.728 497.5,573.5C 502.044,582.21 503.711,591.543 502.5,601.5C 501.671,604.815 500.838,608.148 500,611.5C 496.342,614.808 493.676,618.808 492,623.5C 489.322,627.598 485.822,630.598 481.5,632.5C 476.823,633.704 472.156,633.704 467.5,632.5C 467.667,612.831 467.5,593.164 467,573.5C 466.243,571.685 465.41,570.019 464.5,568.5C 464.5,565.5 464.5,562.5 464.5,559.5C 464.5,555.833 464.5,552.167 464.5,548.5C 470.214,549.591 475.547,551.591 480.5,554.5C 484.78,557.442 488.78,560.776 492.5,564.5 Z"/></g>
<g><path style="opacity:1" fill="#fadde6" d="M 581.5,547.5 C 578.291,549.934 574.624,551.601 570.5,552.5C 573.632,549.89 577.299,548.223 581.5,547.5 Z"/></g>
<g><path style="opacity:0.004" fill="#000000" d="M 435.5,551.5 C 435.205,553.735 435.539,555.735 436.5,557.5C 436.5,558.833 436.5,560.167 436.5,561.5C 434.469,558.292 434.135,554.959 435.5,551.5 Z"/></g>
<g><path style="opacity:0.004" fill="#000000" d="M 763.5,551.5 C 764.802,554.107 764.636,556.773 763,559.5C 762.517,558.552 762.351,557.552 762.5,556.5C 763.451,555.081 763.784,553.415 763.5,551.5 Z"/></g>
<g><path style="opacity:1" fill="#ecc9a5" d="M 461.5,544.5 C 466.904,546.031 472.237,547.864 477.5,550C 480.232,553.396 483.565,556.063 487.5,558C 489.79,559.777 491.457,561.944 492.5,564.5C 488.78,560.776 484.78,557.442 480.5,554.5C 475.547,551.591 470.214,549.591 464.5,548.5C 464.5,552.167 464.5,555.833 464.5,559.5C 463.833,557.833 463.167,556.167 462.5,554.5C 462.384,551.14 462.051,547.807 461.5,544.5 Z"/></g>
<g><path style="opacity:1" fill="#c5c5c5" d="M 736.5,551.5 C 736.5,552.833 736.5,554.167 736.5,555.5C 735.833,557.833 735.167,560.167 734.5,562.5C 734.116,558.511 734.783,554.845 736.5,551.5 Z"/></g>
<g><path style="opacity:0.019" fill="#060606" d="M 437.5,550.5 C 438.957,559.627 439.79,568.96 440,578.5C 440.829,600.337 440.663,622.004 439.5,643.5C 439.158,642.662 438.492,642.328 437.5,642.5C 437.615,615.493 437.281,588.493 436.5,561.5C 437.833,560.167 437.833,558.833 436.5,557.5C 436.5,555.5 436.5,553.5 436.5,551.5C 437.167,551.5 437.5,551.167 437.5,550.5 Z M 437.5,575.5 C 438.621,577.316 439.121,579.316 439,581.5C 437.681,579.75 437.181,577.75 437.5,575.5 Z"/></g>
<g><path style="opacity:1" fill="#967e65" d="M 462.5,554.5 C 463.167,556.167 463.833,557.833 464.5,559.5C 464.5,562.5 464.5,565.5 464.5,568.5C 464.5,570.833 464.5,573.167 464.5,575.5C 463.435,568.683 462.768,561.683 462.5,554.5 Z"/></g>
<g><path style="opacity:0.015" fill="#090909" d="M 761.5,550.5 C 762.167,550.5 762.5,550.833 762.5,551.5C 762.5,553.167 762.5,554.833 762.5,556.5C 761.751,557.531 761.085,558.698 760.5,560C 761.733,561.698 762.4,563.698 762.5,566C 762.333,567.833 762.167,569.667 762,571.5C 761.667,570.5 761.333,569.5 761,568.5C 761.356,576.121 761.523,583.788 761.5,591.5C 760.5,591.5 759.5,591.5 758.5,591.5C 758.143,577.585 759.143,563.919 761.5,550.5 Z"/></g>
<g><path style="opacity:1" fill="#797979" d="M 736.5,555.5 C 736.415,562.435 735.415,569.101 733.5,575.5C 733.586,571.143 733.92,566.81 734.5,562.5C 735.167,560.167 735.833,557.833 736.5,555.5 Z"/></g>
<g><path style="opacity:1" fill="#f7c592" d="M 710.5,592.5 C 717.363,594.169 724.363,594.836 731.5,594.5C 732.093,609.008 731.426,623.342 729.5,637.5C 723.158,637.666 716.825,637.5 710.5,637C 701.254,634.308 692.254,631.141 683.5,627.5C 683.5,626.5 683.5,625.5 683.5,624.5C 681.187,623.332 678.854,621.998 676.5,620.5C 674.847,618.035 672.847,616.035 670.5,614.5C 669.664,611.813 668.164,609.48 666,607.5C 665.327,603.139 664.493,598.806 663.5,594.5C 663.582,591.02 664.248,587.687 665.5,584.5C 674.462,581.676 683.462,581.842 692.5,585C 697.534,589.528 703.534,592.028 710.5,592.5 Z"/></g>
<g><path style="opacity:1" fill="#f5dfc8" d="M 497.5,573.5 C 498.458,573.953 499.292,574.619 500,575.5C 503.525,584.024 504.358,592.691 502.5,601.5C 503.711,591.543 502.044,582.21 497.5,573.5 Z"/></g>
<g><path style="opacity:1" fill="#f9edde" d="M 693.5,583.5 C 696.89,584.023 700.223,584.857 703.5,586C 706.059,588.103 708.726,589.936 711.5,591.5C 711.167,591.5 710.833,591.5 710.5,591.5C 704.341,589.584 698.674,586.917 693.5,583.5 Z"/></g>
<g><path style="opacity:0.004" fill="#1d1d1d" d="M 758.5,592.5 C 759.117,592.611 759.617,592.944 760,593.5C 760.167,602.333 760.333,611.167 760.5,620C 760.655,629.323 760.155,638.49 759,647.5C 758.5,629.17 758.333,610.836 758.5,592.5 Z"/></g>
<g><path style="opacity:1" fill="#e2cdb8" d="M 733.5,585.5 C 733.81,588.713 733.477,591.713 732.5,594.5C 732.167,594.5 731.833,594.5 731.5,594.5C 724.363,594.836 717.363,594.169 710.5,592.5C 710.5,592.167 710.5,591.833 710.5,591.5C 710.833,591.5 711.167,591.5 711.5,591.5C 718.477,592.364 725.477,593.031 732.5,593.5C 732.194,590.615 732.527,587.948 733.5,585.5 Z"/></g>
<g><path style="opacity:1" fill="#f0cca8" d="M 693.5,583.5 C 698.674,586.917 704.341,589.584 710.5,591.5C 710.5,591.833 710.5,592.167 710.5,592.5C 703.534,592.028 697.534,589.528 692.5,585C 683.462,581.842 674.462,581.676 665.5,584.5C 664.248,587.687 663.582,591.02 663.5,594.5C 664.493,598.806 665.327,603.139 666,607.5C 668.164,609.48 669.664,611.813 670.5,614.5C 668.45,612.763 666.617,610.763 665,608.5C 663.296,602.277 662.463,595.944 662.5,589.5C 663.158,586.18 664.825,583.513 667.5,581.5C 676.627,578.216 685.294,578.882 693.5,583.5 Z"/></g>
<g><path style="opacity:1" fill="#42382e" d="M 460.5,543.5 C 461.167,543.5 461.5,543.833 461.5,544.5C 462.051,547.807 462.384,551.14 462.5,554.5C 462.768,561.683 463.435,568.683 464.5,575.5C 465.486,594.09 465.82,612.757 465.5,631.5C 465.167,631.5 464.833,631.5 464.5,631.5C 463.691,629.708 463.191,627.708 463,625.5C 462.874,598.125 462.04,570.792 460.5,543.5 Z"/></g>
<g><path style="opacity:1" fill="#e9c49e" d="M 464.5,568.5 C 465.41,570.019 466.243,571.685 467,573.5C 467.5,593.164 467.667,612.831 467.5,632.5C 472.156,633.704 476.823,633.704 481.5,632.5C 481.279,633.735 480.612,634.735 479.5,635.5C 474.406,637.194 469.739,636.527 465.5,633.5C 465.5,632.833 465.5,632.167 465.5,631.5C 465.82,612.757 465.486,594.09 464.5,575.5C 464.5,573.167 464.5,570.833 464.5,568.5 Z"/></g>
<g><path style="opacity:1" fill="#faecdc" d="M 662.5,589.5 C 662.463,595.944 663.296,602.277 665,608.5C 666.617,610.763 668.45,612.763 670.5,614.5C 670.5,615.167 670.5,615.833 670.5,616.5C 667.73,614.772 665.564,612.438 664,609.5C 662.625,605.114 661.792,600.614 661.5,596C 661.504,593.639 661.837,591.473 662.5,589.5 Z"/></g>
<g><path style="opacity:1" fill="#c4a98e" d="M 731.5,594.5 C 731.833,594.5 732.167,594.5 732.5,594.5C 732.46,614.175 732.793,633.841 733.5,653.5C 732.833,647.986 732.167,642.319 731.5,636.5C 730.817,636.863 730.15,637.196 729.5,637.5C 731.426,623.342 732.093,609.008 731.5,594.5 Z"/></g>
<g><path style="opacity:1" fill="#9c9c9c" d="M 563.5,624.5 C 565.655,624.372 567.655,624.872 569.5,626C 581.247,645.701 598.247,652.034 620.5,645C 623.646,642.688 626.646,640.188 629.5,637.5C 631.582,633.253 634.249,629.419 637.5,626C 642.329,624.662 644.662,626.496 644.5,631.5C 643.972,637.221 641.805,642.221 638,646.5C 625.133,658.512 609.966,662.678 592.5,659C 578.775,655.615 568.941,647.449 563,634.5C 562.253,631.076 562.42,627.743 563.5,624.5 Z"/></g>
<g><path style="opacity:1" fill="#efcaa5" d="M 670.5,614.5 C 672.847,616.035 674.847,618.035 676.5,620.5C 678.854,621.998 681.187,623.332 683.5,624.5C 683.5,625.5 683.5,626.5 683.5,627.5C 692.254,631.141 701.254,634.308 710.5,637C 716.825,637.5 723.158,637.666 729.5,637.5C 728.737,638.268 727.737,638.768 726.5,639C 721.167,639.667 715.833,639.667 710.5,639C 694.298,636.404 680.965,628.904 670.5,616.5C 670.5,615.833 670.5,615.167 670.5,614.5 Z"/></g>
<g><path style="opacity:0.005" fill="#131313" d="M 437.5,642.5 C 437.337,644.857 437.503,647.19 438,649.5C 438.191,647.292 438.691,645.292 439.5,643.5C 439.826,652.017 439.493,660.35 438.5,668.5C 438.607,666.621 438.107,666.288 437,667.5C 436.177,658.99 436.343,650.656 437.5,642.5 Z"/></g>
<g><path style="opacity:1" fill="#8c8c8c" d="M 464.5,631.5 C 464.833,631.5 465.167,631.5 465.5,631.5C 465.5,632.167 465.5,632.833 465.5,633.5C 465.54,641.187 465.207,648.854 464.5,656.5C 464.167,656.5 463.833,656.5 463.5,656.5C 463.482,648.149 463.815,639.816 464.5,631.5 Z"/></g>
<g><path style="opacity:0.277" fill="#1b1b1b" d="M 438.5,668.5 C 439.117,674.598 438.45,680.265 436.5,685.5C 436.167,685.5 435.833,685.5 435.5,685.5C 434.101,679.828 434.268,674.161 436,668.5C 436.333,670.5 436.667,672.5 437,674.5C 437.191,672.292 437.691,670.292 438.5,668.5 Z"/></g>
<g><path style="opacity:1" fill="#949494" d="M 733.5,660.5 C 735.041,672.307 736.041,684.307 736.5,696.5C 735.833,694.167 735.167,691.833 734.5,689.5C 734.042,679.839 733.709,670.172 733.5,660.5 Z"/></g>
<g><path style="opacity:0.127" fill="#131313" d="M 758.5,649.5 C 759.5,649.5 760.5,649.5 761.5,649.5C 761.5,657.167 761.5,664.833 761.5,672.5C 762.653,678.653 762.82,684.986 762,691.5C 761.444,689.405 760.944,689.238 760.5,691C 760.99,693.346 761.657,695.513 762.5,697.5C 763.477,700.287 763.81,703.287 763.5,706.5C 763.5,706.833 763.5,707.167 763.5,707.5C 763.167,707.5 762.833,707.5 762.5,707.5C 762.167,704.833 761.833,704.833 761.5,707.5C 759.458,688.374 758.458,669.041 758.5,649.5 Z M 761.5,672.5 C 761.547,678.853 760.881,679.02 759.5,673C 760.094,672.536 760.761,672.369 761.5,672.5 Z"/></g>
<g><path style="opacity:0.009" fill="#161616" d="M 435.5,685.5 C 435.5,686.167 435.833,686.5 436.5,686.5C 436.938,686.435 437.272,686.601 437.5,687C 436.519,697.266 435.519,707.433 434.5,717.5C 434.821,723.026 434.488,728.36 433.5,733.5C 433.158,732.662 432.492,732.328 431.5,732.5C 431.5,729.5 431.5,726.5 431.5,723.5C 432.391,711.18 433.225,698.846 434,686.5C 434.383,685.944 434.883,685.611 435.5,685.5 Z"/></g>
<g><path style="opacity:1" fill="#f1d2b2" d="M 486.5,686.5 C 495.009,685.179 503.675,685.179 512.5,686.5C 514.631,687.169 516.631,687.835 518.5,688.5C 508.016,686.767 497.35,686.1 486.5,686.5 Z"/></g>
<g><path style="opacity:1" fill="#d4d4d4" d="M 463.5,656.5 C 463.833,656.5 464.167,656.5 464.5,656.5C 464.263,668.508 463.763,680.508 463,692.5C 462.722,693.416 462.222,694.082 461.5,694.5C 461.833,689.167 462.167,683.833 462.5,678.5C 462.944,671.173 463.277,663.84 463.5,656.5 Z"/></g>
<g><path style="opacity:1" fill="#f7c692" d="M 485.5,686.5 C 485.833,686.5 486.167,686.5 486.5,686.5C 497.35,686.1 508.016,686.767 518.5,688.5C 519.167,688.5 519.833,688.5 520.5,688.5C 520.5,689.5 520.5,690.5 520.5,691.5C 523.247,691.187 525.914,691.52 528.5,692.5C 537.707,696.043 546.707,700.043 555.5,704.5C 555.833,704.5 556.167,704.5 556.5,704.5C 556.414,705.496 556.748,706.329 557.5,707C 560.689,708.426 563.689,710.092 566.5,712C 573.104,712.356 579.604,713.19 586,714.5C 593.979,713.037 601.979,711.704 610,710.5C 613.349,710.696 616.516,711.363 619.5,712.5C 621.167,712.5 622.833,712.5 624.5,712.5C 626.833,714.167 628.833,716.167 630.5,718.5C 632.156,722.633 633.989,726.633 636,730.5C 636.554,736.188 636.387,741.855 635.5,747.5C 633.65,753.538 630.316,758.704 625.5,763C 620.377,765.561 615.377,768.061 610.5,770.5C 599.307,773.133 587.974,773.966 576.5,773C 575.263,772.768 574.263,772.268 573.5,771.5C 566.096,769.193 558.763,766.359 551.5,763C 546.903,761.684 542.236,760.684 537.5,760C 536.833,759.333 536.167,758.667 535.5,758C 525.903,756.155 516.236,755.489 506.5,756C 505.944,756.383 505.611,756.883 505.5,757.5C 500.708,758.764 496.042,760.431 491.5,762.5C 490.833,762.5 490.167,762.5 489.5,762.5C 487.473,762.338 485.473,762.505 483.5,763C 475.561,766.785 467.894,770.952 460.5,775.5C 459.167,775.5 457.833,775.5 456.5,775.5C 456.5,769.5 456.5,763.5 456.5,757.5C 456.5,755.833 456.5,754.167 456.5,752.5C 457.232,751.192 458.066,749.858 459,748.5C 459.406,731.133 460.239,713.8 461.5,696.5C 461.5,696.167 461.5,695.833 461.5,695.5C 462.833,695.167 464.167,694.833 465.5,694.5C 472.349,692.001 479.016,689.335 485.5,686.5 Z"/></g>
<g><path style="opacity:1" fill="#5b5a59" d="M 462.5,678.5 C 462.167,683.833 461.833,689.167 461.5,694.5C 461.5,694.833 461.5,695.167 461.5,695.5C 461.5,695.833 461.5,696.167 461.5,696.5C 461.167,696.5 460.833,696.5 460.5,696.5C 460.276,690.261 460.943,684.261 462.5,678.5 Z"/></g>
<g><path style="opacity:1" fill="#f0d4b8" d="M 485.5,686.5 C 479.016,689.335 472.349,692.001 465.5,694.5C 471.173,689.529 477.839,686.862 485.5,686.5 Z"/></g>
<g><path style="opacity:1" fill="#f0caa3" d="M 520.5,688.5 C 522.435,689.15 524.435,689.483 526.5,689.5C 533.965,692.153 541.299,695.32 548.5,699C 550.903,700.853 553.236,702.686 555.5,704.5C 546.707,700.043 537.707,696.043 528.5,692.5C 525.914,691.52 523.247,691.187 520.5,691.5C 520.5,690.5 520.5,689.5 520.5,688.5 Z"/></g>
<g><path style="opacity:1" fill="#fbf0e3" d="M 526.5,689.5 C 531.473,689.909 536.14,691.242 540.5,693.5C 547.889,697.84 555.223,702.174 562.5,706.5C 560.142,706.747 558.142,706.081 556.5,704.5C 556.167,704.5 555.833,704.5 555.5,704.5C 553.236,702.686 550.903,700.853 548.5,699C 541.299,695.32 533.965,692.153 526.5,689.5 Z"/></g>
<g><path style="opacity:0.005" fill="#000000" d="M 763.5,706.5 C 763.81,703.287 763.477,700.287 762.5,697.5C 762.343,696.127 762.51,694.793 763,693.5C 763.333,693.833 763.667,694.167 764,694.5C 764.812,698.689 764.645,702.689 763.5,706.5 Z"/></g>
<g><path style="opacity:1" fill="#cecece" d="M 734.5,689.5 C 735.167,691.833 735.833,694.167 736.5,696.5C 736.5,699.167 736.5,701.833 736.5,704.5C 736.167,704.5 735.833,704.5 735.5,704.5C 734.947,699.518 734.613,694.518 734.5,689.5 Z"/></g>
<g><path style="opacity:1" fill="#fbf5ea" d="M 735.5,704.5 C 735.833,704.5 736.167,704.5 736.5,704.5C 736.5,706.167 736.5,707.833 736.5,709.5C 736.5,710.5 736.5,711.5 736.5,712.5C 731.482,712.387 726.482,712.053 721.5,711.5C 716.725,710.906 712.059,709.906 707.5,708.5C 702.965,707.256 698.298,707.256 693.5,708.5C 694.058,707.21 695.058,706.377 696.5,706C 703.924,705.218 710.924,706.551 717.5,710C 723.491,710.499 729.491,710.666 735.5,710.5C 735.5,708.5 735.5,706.5 735.5,704.5 Z"/></g>
<g><path style="opacity:1" fill="#efd9c2" d="M 707.5,708.5 C 701.38,708.268 695.38,708.935 689.5,710.5C 690.287,708.896 691.62,708.229 693.5,708.5C 698.298,707.256 702.965,707.256 707.5,708.5 Z"/></g>
<g><path style="opacity:0.008" fill="#151515" d="M 761.5,707.5 C 761.833,707.5 762.167,707.5 762.5,707.5C 762.833,708.833 763.167,708.833 763.5,707.5C 764.117,707.611 764.617,707.944 765,708.5C 766.298,721.181 766.632,733.848 766,746.5C 766.333,745.167 766.667,743.833 767,742.5C 768.656,747.843 768.822,753.176 767.5,758.5C 766.075,756.969 765.409,757.302 765.5,759.5C 764.17,742.293 762.836,724.959 761.5,707.5 Z"/></g>
<g><path style="opacity:1" fill="#f0d6bb" d="M 624.5,712.5 C 622.833,712.5 621.167,712.5 619.5,712.5C 619.586,711.504 619.252,710.671 618.5,710C 610.805,709.309 603.139,709.475 595.5,710.5C 605.637,705.929 615.303,706.596 624.5,712.5 Z"/></g>
<g><path style="opacity:1" fill="#f7c693" d="M 707.5,708.5 C 712.059,709.906 716.725,710.906 721.5,711.5C 726.184,713.451 731.184,714.451 736.5,714.5C 736.642,728.342 737.642,742.009 739.5,755.5C 736.15,755.665 732.817,755.498 729.5,755C 726.809,754.844 724.476,754.011 722.5,752.5C 722.5,751.5 722.5,750.5 722.5,749.5C 717.156,749.666 711.823,749.499 706.5,749C 702.644,747.897 698.644,747.064 694.5,746.5C 692.253,745.755 690.42,744.422 689,742.5C 687.456,739.513 685.622,736.846 683.5,734.5C 683.334,729.489 683.501,724.489 684,719.5C 685.844,716.472 687.678,713.472 689.5,710.5C 695.38,708.935 701.38,708.268 707.5,708.5 Z"/></g>
<g><path style="opacity:1" fill="#f0c8a0" d="M 556.5,704.5 C 558.142,706.081 560.142,706.747 562.5,706.5C 572.95,712.509 583.95,713.842 595.5,710.5C 603.139,709.475 610.805,709.309 618.5,710C 619.252,710.671 619.586,711.504 619.5,712.5C 616.516,711.363 613.349,710.696 610,710.5C 601.979,711.704 593.979,713.037 586,714.5C 579.604,713.19 573.104,712.356 566.5,712C 563.689,710.092 560.689,708.426 557.5,707C 556.748,706.329 556.414,705.496 556.5,704.5 Z"/></g>
<g><path style="opacity:1" fill="#846d53" d="M 460.5,704.5 C 460.638,709.414 459.972,714.081 458.5,718.5C 458.362,713.586 459.028,708.919 460.5,704.5 Z"/></g>
<g><path style="opacity:1" fill="#eed0b3" d="M 689.5,710.5 C 687.678,713.472 685.844,716.472 684,719.5C 683.501,724.489 683.334,729.489 683.5,734.5C 682.883,734.389 682.383,734.056 682,733.5C 681.333,728.833 681.333,724.167 682,719.5C 683.292,715.384 685.792,712.384 689.5,710.5 Z"/></g>
<g><path style="opacity:1" fill="#e5c29e" d="M 736.5,709.5 C 737.434,710.568 737.768,711.901 737.5,713.5C 737.5,716.167 737.5,718.833 737.5,721.5C 737.444,726.731 738.111,731.731 739.5,736.5C 740.372,742.789 740.705,749.122 740.5,755.5C 740.167,755.5 739.833,755.5 739.5,755.5C 737.642,742.009 736.642,728.342 736.5,714.5C 731.184,714.451 726.184,713.451 721.5,711.5C 726.482,712.053 731.482,712.387 736.5,712.5C 736.5,711.5 736.5,710.5 736.5,709.5 Z"/></g>
<g><path style="opacity:1" fill="#756351" d="M 737.5,713.5 C 738.889,718.269 739.556,723.269 739.5,728.5C 738.833,726.167 738.167,723.833 737.5,721.5C 737.5,718.833 737.5,716.167 737.5,713.5 Z"/></g>
<g><path style="opacity:1" fill="#f1d2b3" d="M 630.5,718.5 C 632.836,720.004 634.669,722.004 636,724.5C 638.209,731.012 638.876,737.679 638,744.5C 637.764,746.119 636.931,747.119 635.5,747.5C 636.387,741.855 636.554,736.188 636,730.5C 633.989,726.633 632.156,722.633 630.5,718.5 Z"/></g>
<g><path style="opacity:1" fill="#af9172" d="M 737.5,721.5 C 738.167,723.833 738.833,726.167 739.5,728.5C 739.5,731.167 739.5,733.833 739.5,736.5C 738.111,731.731 737.444,726.731 737.5,721.5 Z"/></g>
<g><path style="opacity:1" fill="#efcba8" d="M 683.5,734.5 C 685.622,736.846 687.456,739.513 689,742.5C 690.42,744.422 692.253,745.755 694.5,746.5C 698.644,747.064 702.644,747.897 706.5,749C 711.823,749.499 717.156,749.666 722.5,749.5C 722.5,750.5 722.5,751.5 722.5,752.5C 712.81,751.274 703.143,749.774 693.5,748C 687.99,745.006 684.657,740.506 683.5,734.5 Z"/></g>
<g><path style="opacity:1" fill="#deb992" d="M 460.5,696.5 C 460.833,696.5 461.167,696.5 461.5,696.5C 460.239,713.8 459.406,731.133 459,748.5C 458.066,749.858 457.232,751.192 456.5,752.5C 456.833,747.167 457.167,741.833 457.5,736.5C 458.241,730.529 458.575,724.529 458.5,718.5C 459.972,714.081 460.638,709.414 460.5,704.5C 460.5,701.833 460.5,699.167 460.5,696.5 Z"/></g>
<g><path style="opacity:1" fill="#f0caa4" d="M 573.5,771.5 C 572.167,771.5 570.833,771.5 569.5,771.5C 556.682,768.076 544.015,764.41 531.5,760.5C 523.17,757.865 514.503,756.865 505.5,757.5C 505.611,756.883 505.944,756.383 506.5,756C 516.236,755.489 525.903,756.155 535.5,758C 536.167,758.667 536.833,759.333 537.5,760C 542.236,760.684 546.903,761.684 551.5,763C 558.763,766.359 566.096,769.193 573.5,771.5 Z"/></g>
<g><path style="opacity:1" fill="#fcefdf" d="M 505.5,757.5 C 514.503,756.865 523.17,757.865 531.5,760.5C 517.989,758.618 504.655,759.285 491.5,762.5C 496.042,760.431 500.708,758.764 505.5,757.5 Z"/></g>
<g><path style="opacity:0.007" fill="#0d0d0d" d="M 767.5,758.5 C 768.268,759.263 768.768,760.263 769,761.5C 769.921,770.813 770.421,780.147 770.5,789.5C 769.833,789.5 769.5,789.833 769.5,790.5C 768.883,790.389 768.383,790.056 768,789.5C 767.501,784.845 767.334,780.179 767.5,775.5C 768.833,775.167 768.833,774.833 767.5,774.5C 767.5,769.167 767.5,763.833 767.5,758.5 Z"/></g>
<g><path style="opacity:0.008" fill="#0f0f0f" d="M 431.5,723.5 C 431.5,726.5 431.5,729.5 431.5,732.5C 431.179,737.695 431.513,742.695 432.5,747.5C 431.47,757.093 430.637,766.76 430,776.5C 429.617,777.056 429.117,777.389 428.5,777.5C 427.167,780.5 427.167,783.5 428.5,786.5C 427.897,790.273 427.23,793.939 426.5,797.5C 423.906,793.996 423.906,790.496 426.5,787C 425.892,785.769 425.559,784.436 425.5,783C 426.966,771.159 428.632,759.492 430.5,748C 429.486,739.707 429.819,731.541 431.5,723.5 Z"/></g>
<g><path style="opacity:1" fill="#705e4b" d="M 457.5,736.5 C 457.167,741.833 456.833,747.167 456.5,752.5C 456.5,754.167 456.5,755.833 456.5,757.5C 455.833,760.167 455.167,762.833 454.5,765.5C 454.666,755.596 455.666,745.929 457.5,736.5 Z"/></g>
<g><path style="opacity:1" fill="#efcaa4" d="M 489.5,762.5 C 480.456,768.207 470.79,772.541 460.5,775.5C 467.894,770.952 475.561,766.785 483.5,763C 485.473,762.505 487.473,762.338 489.5,762.5 Z"/></g>
<g><path style="opacity:1" fill="#d1b08f" d="M 456.5,757.5 C 456.5,763.5 456.5,769.5 456.5,775.5C 457.833,775.5 459.167,775.5 460.5,775.5C 458.735,776.461 456.735,776.795 454.5,776.5C 454.5,777.5 454.5,778.5 454.5,779.5C 454.167,779.5 453.833,779.5 453.5,779.5C 454.229,774.87 454.563,770.203 454.5,765.5C 455.167,762.833 455.833,760.167 456.5,757.5 Z"/></g>
<g><path style="opacity:1" fill="#fcf2e5" d="M 610.5,770.5 C 603.522,774.154 595.855,775.821 587.5,775.5C 580.915,776.224 574.915,774.891 569.5,771.5C 570.833,771.5 572.167,771.5 573.5,771.5C 574.263,772.268 575.263,772.768 576.5,773C 587.974,773.966 599.307,773.133 610.5,770.5 Z"/></g>
<g><path style="opacity:1" fill="#bebebe" d="M 453.5,779.5 C 453.833,779.5 454.167,779.5 454.5,779.5C 454.669,786.147 453.669,792.48 451.5,798.5C 452.005,792.147 452.672,785.813 453.5,779.5 Z"/></g>
<g><path style="opacity:0.22" fill="#1b1b1b" d="M 770.5,789.5 C 771.483,793.298 771.817,797.298 771.5,801.5C 771.167,801.5 770.833,801.5 770.5,801.5C 769.223,800.306 768.556,798.64 768.5,796.5C 768.507,794.631 768.84,792.964 769.5,791.5C 770.42,792.067 770.754,791.401 770.5,789.5 Z"/></g>
<g><path style="opacity:1" fill="#505050" d="M 745.5,806.5 C 746.117,806.611 746.617,806.944 747,807.5C 747.499,811.152 747.665,814.818 747.5,818.5C 747.167,818.5 746.833,818.5 746.5,818.5C 746.167,814.5 745.833,810.5 745.5,806.5 Z"/></g>
<g><path style="opacity:0.013" fill="#151515" d="M 426.5,797.5 C 426.348,803.699 425.682,809.699 424.5,815.5C 422.302,827.35 421.302,839.35 421.5,851.5C 421.167,851.5 420.833,851.5 420.5,851.5C 420.737,850.209 420.404,849.209 419.5,848.5C 419.167,848.5 418.833,848.5 418.5,848.5C 417.84,847.036 417.507,845.369 417.5,843.5C 419.289,827.813 421.456,812.479 424,797.5C 424.77,798.598 425.603,798.598 426.5,797.5 Z"/></g>
<g><path style="opacity:1" fill="#5e5e5e" d="M 449.5,813.5 C 449.192,817.36 448.525,821.026 447.5,824.5C 447.335,821.482 447.502,818.482 448,815.5C 448.278,814.584 448.778,813.918 449.5,813.5 Z"/></g>
<g><path style="opacity:0.01" fill="#0e0e0e" d="M 771.5,801.5 C 772.117,801.611 772.617,801.944 773,802.5C 773.463,806.838 773.963,811.171 774.5,815.5C 774.351,817.32 773.684,818.82 772.5,820C 775.7,825.274 777.7,831.107 778.5,837.5C 778.197,839.114 777.53,840.448 776.5,841.5C 775.539,839.735 775.205,837.735 775.5,835.5C 776.833,835.167 776.833,834.833 775.5,834.5C 775.5,834.167 775.5,833.833 775.5,833.5C 776.833,832.5 776.833,831.5 775.5,830.5C 775.672,829.508 775.338,828.842 774.5,828.5C 773.883,828.389 773.383,828.056 773,827.5C 771.905,822.22 771.405,816.887 771.5,811.5C 771.5,808.167 771.5,804.833 771.5,801.5 Z"/></g>
<g><path style="opacity:1" fill="#b8b8b8" d="M 746.5,818.5 C 746.833,818.5 747.167,818.5 747.5,818.5C 748.037,823.186 748.704,827.853 749.5,832.5C 748.883,832.389 748.383,832.056 748,831.5C 746.925,827.23 746.425,822.897 746.5,818.5 Z"/></g>
<g><path style="opacity:0.005" fill="#000000" d="M 418.5,848.5 C 418.833,848.5 419.167,848.5 419.5,848.5C 419.263,849.791 419.596,850.791 420.5,851.5C 420.5,851.833 420.5,852.167 420.5,852.5C 420.167,852.5 419.833,852.5 419.5,852.5C 418.566,851.432 418.232,850.099 418.5,848.5 Z"/></g>
<g><path style="opacity:1" fill="#7c7c7c" d="M 446.5,849.5 C 447.906,849.973 448.573,850.973 448.5,852.5C 447.094,852.027 446.427,851.027 446.5,849.5 Z"/></g>
<g><path style="opacity:0.011" fill="#111111" d="M 421.5,851.5 C 422.657,854.273 423.324,857.273 423.5,860.5C 423.5,861.167 423.5,861.833 423.5,862.5C 420.819,859.808 419.486,856.475 419.5,852.5C 419.833,852.5 420.167,852.5 420.5,852.5C 421.167,852.5 421.5,852.167 421.5,851.5 Z"/></g>
<g><path style="opacity:1" fill="#c2c2c2" d="M 450.5,853.5 C 452.921,854.891 455.588,855.725 458.5,856C 459.381,856.708 460.047,857.542 460.5,858.5C 456.489,857.956 453.156,856.289 450.5,853.5 Z"/></g>
<g><path style="opacity:1" fill="#a4a4a4" d="M 460.5,858.5 C 462.898,858.259 464.898,858.926 466.5,860.5C 464.102,860.741 462.102,860.074 460.5,858.5 Z"/></g>
<g><path style="opacity:0.006" fill="#121212" d="M 776.5,841.5 C 777.5,841.5 778.5,841.5 779.5,841.5C 783.663,858.181 778.663,871.348 764.5,881C 762,881.885 759.667,883.052 757.5,884.5C 756.482,883.807 755.482,883.141 754.5,882.5C 755.953,880.771 757.953,879.771 760.5,879.5C 761.451,880.326 762.451,880.492 763.5,880C 763.167,879.667 762.833,879.333 762.5,879C 764.286,878.215 765.786,877.049 767,875.5C 767.333,875.833 767.667,876.167 768,876.5C 770.879,873.846 773.046,871.179 774.5,868.5C 775.167,868.5 775.5,868.167 775.5,867.5C 776.368,863.066 777.034,858.233 777.5,853C 777.11,849.165 776.777,845.332 776.5,841.5 Z"/></g>
<g><path style="opacity:1" fill="#707070" d="M 743.5,858.5 C 741.245,860.38 738.578,861.38 735.5,861.5C 737.755,859.62 740.422,858.62 743.5,858.5 Z"/></g>
<g><path style="opacity:0.008" fill="#090909" d="M 424.5,860.5 C 426.625,864.066 428.791,867.732 431,871.5C 431.333,871.167 431.667,870.833 432,870.5C 434.814,872.396 436.814,874.396 438,876.5C 438.414,876.043 438.914,875.709 439.5,875.5C 443.915,878.051 448.248,880.384 452.5,882.5C 453.167,883.833 453.833,883.833 454.5,882.5C 461.331,885.617 468.331,887.951 475.5,889.5C 474.167,889.833 474.167,890.167 475.5,890.5C 475.5,890.833 475.5,891.167 475.5,891.5C 458.866,888.85 443.866,882.517 430.5,872.5C 427.337,869.683 425.004,866.35 423.5,862.5C 424.338,862.158 424.672,861.492 424.5,860.5 Z"/></g>
<g><path style="opacity:1" fill="#7d7d7d" d="M 472.5,862.5 C 474.403,862.796 476.07,863.463 477.5,864.5C 475.302,864.88 473.635,864.213 472.5,862.5 Z"/></g>
<g><path style="opacity:1" fill="#a5a5a5" d="M 712.5,867.5 C 712.5,867.833 712.5,868.167 712.5,868.5C 711.167,868.833 709.833,869.167 708.5,869.5C 709.183,867.824 710.517,867.157 712.5,867.5 Z"/></g>
<g><path style="opacity:1" fill="#5d5d5d" d="M 718.5,866.5 C 716.898,868.074 714.898,868.741 712.5,868.5C 712.5,868.167 712.5,867.833 712.5,867.5C 714.435,866.85 716.435,866.517 718.5,866.5 Z"/></g>
<g><path style="opacity:1" fill="#bdbdbd" d="M 486.5,866.5 C 489.839,866.89 493.173,867.39 496.5,868C 498.32,868.2 499.653,869.034 500.5,870.5C 495.4,870.289 490.734,868.955 486.5,866.5 Z"/></g>
<g><path style="opacity:1" fill="#888888" d="M 501.5,870.5 C 505.163,870.952 508.83,871.452 512.5,872C 513.056,872.383 513.389,872.883 513.5,873.5C 509.2,873.245 505.2,872.245 501.5,870.5 Z"/></g>
<g><path style="opacity:1" fill="#858585" d="M 698.5,871.5 C 696.485,872.924 694.152,873.59 691.5,873.5C 693.515,872.076 695.848,871.41 698.5,871.5 Z"/></g>
<g><path style="opacity:1" fill="#9c9c9c" d="M 530.5,875.5 C 535.731,875.444 540.731,876.111 545.5,877.5C 540.269,877.556 535.269,876.889 530.5,875.5 Z"/></g>
<g><path style="opacity:1" fill="#8f8f8f" d="M 684.5,874.5 C 680.8,876.245 676.8,877.245 672.5,877.5C 672.611,876.883 672.944,876.383 673.5,876C 677.17,875.452 680.837,874.952 684.5,874.5 Z"/></g>
<g><path style="opacity:1" fill="#d7d7d7" d="M 667.5,877.5 C 663.036,878.644 658.37,879.31 653.5,879.5C 653.611,878.883 653.944,878.383 654.5,878C 658.821,877.501 663.154,877.334 667.5,877.5 Z"/></g>
<g><path style="opacity:1" fill="#6f6f6f" d="M 560.5,878.5 C 571.113,879.909 581.78,880.575 592.5,880.5C 592.5,880.833 592.5,881.167 592.5,881.5C 581.551,881.971 570.884,880.971 560.5,878.5 Z"/></g>
<g><path style="opacity:1" fill="#8c8c8c" d="M 653.5,879.5 C 651.708,880.309 649.708,880.809 647.5,881C 629.17,881.5 610.836,881.667 592.5,881.5C 592.5,881.167 592.5,880.833 592.5,880.5C 612.849,880.732 633.183,880.399 653.5,879.5 Z"/></g>
<g><path style="opacity:0.009" fill="#101010" d="M 749.5,883.5 C 751.288,883.215 752.955,883.548 754.5,884.5C 733.246,891.276 711.413,897.276 689,902.5C 685.544,903.143 681.877,903.143 678,902.5C 674.132,904.41 669.966,905.744 665.5,906.5C 663.645,906.66 662.312,905.993 661.5,904.5C 662.167,904.5 662.833,904.5 663.5,904.5C 664.833,905.833 666.167,905.833 667.5,904.5C 668.791,904.737 669.791,904.404 670.5,903.5C 670.611,902.883 670.944,902.383 671.5,902C 676.612,901.571 681.612,900.738 686.5,899.5C 688.167,900.833 689.833,900.833 691.5,899.5C 691.611,898.883 691.944,898.383 692.5,898C 696.532,897.227 700.532,896.394 704.5,895.5C 705.5,896.833 706.5,896.833 707.5,895.5C 715.108,892.941 722.775,890.441 730.5,888C 732.473,887.505 734.473,887.338 736.5,887.5C 740.5,887.167 740.5,886.833 736.5,886.5C 740.547,884.74 744.88,883.74 749.5,883.5 Z"/></g>
<g><path style="opacity:0.009" fill="#121212" d="M 475.5,891.5 C 476.167,891.5 476.833,891.5 477.5,891.5C 482.619,891.675 487.952,892.342 493.5,893.5C 495.03,893.64 496.03,894.307 496.5,895.5C 496.5,895.833 496.5,896.167 496.5,896.5C 495.735,896.923 494.902,897.257 494,897.5C 488.283,895.622 482.449,894.122 476.5,893C 475.944,892.617 475.611,892.117 475.5,891.5 Z"/></g>
<g><path style="opacity:0.01" fill="#141414" d="M 500.5,895.5 C 516.764,897.559 532.764,899.892 548.5,902.5C 547.662,902.842 547.328,903.508 547.5,904.5C 544.15,904.665 540.817,904.498 537.5,904C 538.888,903.111 538.722,902.611 537,902.5C 529.9,903.973 523.067,903.307 516.5,900.5C 515.707,900.931 514.873,901.265 514,901.5C 508.589,899.964 503.089,898.798 497.5,898C 496.944,897.617 496.611,897.117 496.5,896.5C 498.099,896.768 499.432,896.434 500.5,895.5 Z"/></g>
<g><path style="opacity:0.005" fill="#000000" d="M 562.5,903.5 C 563.492,903.328 564.158,903.662 564.5,904.5C 563.833,904.5 563.5,904.833 563.5,905.5C 557.942,907.007 552.608,906.674 547.5,904.5C 549.833,904.5 552.167,904.5 554.5,904.5C 556.5,905.833 558.5,905.833 560.5,904.5C 561.492,904.672 562.158,904.338 562.5,903.5 Z"/></g>
<g><path style="opacity:0.199" fill="#171717" d="M 564.5,904.5 C 596.501,905.792 628.501,905.792 660.5,904.5C 660.5,905.5 660.5,906.5 660.5,907.5C 634.508,908.521 608.508,908.687 582.5,908C 575.754,908.131 569.421,907.298 563.5,905.5C 564.167,905.5 564.5,905.167 564.5,904.5 Z"/></g>
</svg>
