<?xml version="1.0" encoding="UTF-8"?>
<!DOCTYPE svg PUBLIC "-//W3C//DTD SVG 1.1//EN" "http://www.w3.org/Graphics/SVG/1.1/DTD/svg11.dtd">
<svg xmlns="http://www.w3.org/2000/svg" version="1.1" width="1200px" height="1200px" style="shape-rendering:geometricPrecision; text-rendering:geometricPrecision; image-rendering:optimizeQuality; fill-rule:evenodd; clip-rule:evenodd" xmlns:xlink="http://www.w3.org/1999/xlink">
<g><path style="opacity:1" fill="#fefefe" d="M -0.5,-0.5 C 399.5,-0.5 799.5,-0.5 1199.5,-0.5C 1199.5,399.5 1199.5,799.5 1199.5,1199.5C 799.5,1199.5 399.5,1199.5 -0.5,1199.5C -0.5,799.5 -0.5,399.5 -0.5,-0.5 Z"/></g>
<g><path style="opacity:1" fill="#d4d4d4" d="M 648.5,294.5 C 638.768,293.104 629.102,293.438 619.5,295.5C 619.97,294.307 620.97,293.64 622.5,293.5C 630.478,292.43 638.478,292.263 646.5,293C 647.416,293.278 648.082,293.778 648.5,294.5 Z"/></g>
<g><path style="opacity:1" fill="#555555" d="M 648.5,294.5 C 651.495,294.294 654.162,294.96 656.5,296.5C 643.835,295.195 631.168,295.195 618.5,296.5C 618.5,296.167 618.5,295.833 618.5,295.5C 618.833,295.5 619.167,295.5 619.5,295.5C 629.102,293.438 638.768,293.104 648.5,294.5 Z"/></g>
<g><path style="opacity:1" fill="#909090" d="M 565.5,296.5 C 555.806,296.307 546.139,296.64 536.5,297.5C 537.609,296.71 538.942,296.21 540.5,296C 549.01,295.177 557.344,295.343 565.5,296.5 Z"/></g>
<g><path style="opacity:1" fill="#313131" d="M 656.5,296.5 C 662.819,298.05 668.819,300.383 674.5,303.5C 674.973,304.906 675.973,305.573 677.5,305.5C 677.973,306.906 678.973,307.573 680.5,307.5C 681.262,309.262 682.596,310.262 684.5,310.5C 685.833,312.5 687.5,314.167 689.5,315.5C 695.738,321.654 700.738,328.654 704.5,336.5C 704.59,338.696 704.923,340.863 705.5,343C 705.684,344.376 706.351,345.209 707.5,345.5C 708.048,347.626 708.715,349.626 709.5,351.5C 711.033,353.245 713.033,354.245 715.5,354.5C 721.16,357.329 726.494,360.662 731.5,364.5C 732.833,366.5 734.5,368.167 736.5,369.5C 740.18,373.183 743.514,377.183 746.5,381.5C 746.427,383.027 747.094,384.027 748.5,384.5C 753.027,391.554 757.027,398.887 760.5,406.5C 760.12,408.698 760.787,410.365 762.5,411.5C 762.5,411.833 762.5,412.167 762.5,412.5C 762.935,415.157 763.935,417.491 765.5,419.5C 766.422,423.112 767.089,426.779 767.5,430.5C 767.833,433.167 768.167,435.833 768.5,438.5C 769.833,456.5 769.833,474.5 768.5,492.5C 768.126,499.532 767.459,506.532 766.5,513.5C 766.5,515.167 766.5,516.833 766.5,518.5C 764.044,522.726 763.044,527.393 763.5,532.5C 762.735,535.096 762.401,537.763 762.5,540.5C 761.778,540.918 761.278,541.584 761,542.5C 760.499,546.51 759.999,550.51 759.5,554.5C 759.002,559.152 758.669,563.819 758.5,568.5C 758.533,572.869 758.2,577.202 757.5,581.5C 755.991,592.627 755.325,603.961 755.5,615.5C 755.5,623.341 755.834,631.007 756.5,638.5C 757.32,644.797 757.653,651.131 757.5,657.5C 758.2,669.831 758.867,682.164 759.5,694.5C 759.758,704.723 760.758,714.723 762.5,724.5C 762.5,725.5 762.5,726.5 762.5,727.5C 762.447,733.196 762.78,738.862 763.5,744.5C 764.089,751.485 764.422,758.485 764.5,765.5C 764.67,774.404 765.67,783.071 767.5,791.5C 767.5,792.167 767.5,792.833 767.5,793.5C 768.055,799.154 768.555,804.82 769,810.5C 769.232,811.737 769.732,812.737 770.5,813.5C 771.167,818.833 771.833,824.167 772.5,829.5C 772.763,834.124 773.763,838.458 775.5,842.5C 777.036,850.26 776.702,857.926 774.5,865.5C 772.271,869.075 769.605,872.408 766.5,875.5C 764.326,875.75 762.659,876.75 761.5,878.5C 758.994,879.75 756.327,880.416 753.5,880.5C 749.841,880.149 746.841,881.149 744.5,883.5C 741.084,883.528 738.084,884.528 735.5,886.5C 733.5,886.833 731.5,887.167 729.5,887.5C 725.917,888.007 722.583,889.007 719.5,890.5C 716.918,890.025 714.918,890.692 713.5,892.5C 711.435,892.517 709.435,892.85 707.5,893.5C 704.772,893.171 702.438,893.837 700.5,895.5C 694.542,896.096 688.875,897.43 683.5,899.5C 680.833,899.833 678.167,900.167 675.5,900.5C 670.167,901.167 664.833,901.833 659.5,902.5C 631.511,903.389 603.511,903.722 575.5,903.5C 567.507,902.76 559.507,902.093 551.5,901.5C 550.5,901.5 549.5,901.5 548.5,901.5C 539.5,898.86 530.167,897.527 520.5,897.5C 517.14,897.384 513.807,897.051 510.5,896.5C 505.17,894.333 499.503,893.333 493.5,893.5C 491.343,892.593 489.01,891.927 486.5,891.5C 484.5,891.167 482.5,890.833 480.5,890.5C 478.152,888.903 475.486,887.903 472.5,887.5C 466.014,885.745 459.681,883.745 453.5,881.5C 451.429,880.055 449.096,879.055 446.5,878.5C 444.967,876.755 442.967,875.755 440.5,875.5C 437.205,873.859 434.205,871.859 431.5,869.5C 431.573,867.973 430.906,866.973 429.5,866.5C 426.912,862.326 424.579,857.993 422.5,853.5C 422.448,844.482 422.782,835.482 423.5,826.5C 423.5,825.5 423.5,824.5 423.5,823.5C 424.222,823.082 424.722,822.416 425,821.5C 425.548,817.83 426.048,814.163 426.5,810.5C 426.505,806.466 426.838,802.466 427.5,798.5C 427.279,795.721 427.612,793.054 428.5,790.5C 429.768,788.095 430.435,785.428 430.5,782.5C 430.467,778.131 430.8,773.798 431.5,769.5C 431.833,764.167 432.167,758.833 432.5,753.5C 432.5,752.167 432.5,750.833 432.5,749.5C 434.242,739.723 435.242,729.723 435.5,719.5C 435.713,712.826 436.046,706.159 436.5,699.5C 437.268,698.737 437.768,697.737 438,696.5C 438.5,690.175 438.666,683.842 438.5,677.5C 439.457,669.005 440.123,660.338 440.5,651.5C 440.5,649.5 440.5,647.5 440.5,645.5C 442.014,633.036 442.681,620.369 442.5,607.5C 442.333,598.833 442.167,590.167 442,581.5C 441.814,578.964 441.314,576.631 440.5,574.5C 440.5,572.833 440.5,571.167 440.5,569.5C 440.303,562.974 439.636,556.641 438.5,550.5C 438.665,547.482 438.498,544.482 438,541.5C 437.722,540.584 437.222,539.918 436.5,539.5C 436.5,538.833 436.5,538.167 436.5,537.5C 435.833,532.833 435.167,528.167 434.5,523.5C 433.719,515.072 433.219,506.739 433,498.5C 432.667,499.5 432.333,500.5 432,501.5C 431.768,500.263 431.268,499.263 430.5,498.5C 430.5,497.167 430.5,495.833 430.5,494.5C 429.965,490.181 429.465,485.848 429,481.5C 428.722,480.584 428.222,479.918 427.5,479.5C 427.5,477.167 427.5,474.833 427.5,472.5C 427.5,469.833 427.5,467.167 427.5,464.5C 427.003,448.059 428.003,431.726 430.5,415.5C 430.5,414.167 430.5,412.833 430.5,411.5C 430.802,408.627 431.469,405.961 432.5,403.5C 434.28,400.081 435.613,396.414 436.5,392.5C 436.402,390.447 437.069,388.78 438.5,387.5C 439.401,386.71 440.068,385.71 440.5,384.5C 440.66,382.847 441.326,381.514 442.5,380.5C 444.262,379.738 445.262,378.404 445.5,376.5C 447.587,375.415 448.92,373.749 449.5,371.5C 453.341,365.986 458.341,361.986 464.5,359.5C 470.505,356.274 476.839,353.941 483.5,352.5C 485.077,349.021 486.41,345.355 487.5,341.5C 487.5,341.167 487.5,340.833 487.5,340.5C 489.718,337.887 491.385,334.887 492.5,331.5C 492.845,328.802 494.178,326.802 496.5,325.5C 498.914,324.089 500.581,322.089 501.5,319.5C 502.833,318.833 503.833,317.833 504.5,316.5C 504.5,315.833 504.833,315.5 505.5,315.5C 506.833,314.833 507.833,313.833 508.5,312.5C 510.749,311.92 512.415,310.587 513.5,308.5C 513.5,307.833 513.833,307.5 514.5,307.5C 516.027,307.573 517.027,306.906 517.5,305.5C 519.833,304.167 522.167,302.833 524.5,301.5C 526.698,301.88 528.365,301.213 529.5,299.5C 532.01,299.073 534.343,298.407 536.5,297.5C 546.139,296.64 555.806,296.307 565.5,296.5C 572.039,297.699 578.705,298.699 585.5,299.5C 587.033,301.245 589.033,302.245 591.5,302.5C 591.833,302.5 592.167,302.5 592.5,302.5C 596.038,306.573 599.372,306.24 602.5,301.5C 604.898,301.741 606.898,301.074 608.5,299.5C 611.55,297.899 614.884,296.899 618.5,296.5C 631.168,295.195 643.835,295.195 656.5,296.5 Z"/></g>
<g><path style="opacity:1" fill="#c1c1c1" d="M 618.5,295.5 C 618.5,295.833 618.5,296.167 618.5,296.5C 614.884,296.899 611.55,297.899 608.5,299.5C 608.167,299.5 607.833,299.5 607.5,299.5C 607.47,298.503 607.97,297.836 609,297.5C 612.094,296.434 615.26,295.768 618.5,295.5 Z"/></g>
<g><path style="opacity:1" fill="#8b8b8b" d="M 529.5,299.5 C 528.365,301.213 526.698,301.88 524.5,301.5C 525.93,300.463 527.597,299.796 529.5,299.5 Z"/></g>
<g><path style="opacity:1" fill="#9c9c9c" d="M 585.5,299.5 C 587.967,299.755 589.967,300.755 591.5,302.5C 589.033,302.245 587.033,301.245 585.5,299.5 Z"/></g>
<g><path style="opacity:1" fill="#717171" d="M 607.5,299.5 C 607.833,299.5 608.167,299.5 608.5,299.5C 606.898,301.074 604.898,301.741 602.5,301.5C 603.78,300.069 605.447,299.402 607.5,299.5 Z"/></g>
<g><path style="opacity:1" fill="#6c6c6c" d="M 602.5,301.5 C 599.372,306.24 596.038,306.573 592.5,302.5C 596.019,303.913 599.353,303.579 602.5,301.5 Z"/></g>
<g><path style="opacity:1" fill="#a5a5a5" d="M 674.5,303.5 C 676.027,303.427 677.027,304.094 677.5,305.5C 675.973,305.573 674.973,304.906 674.5,303.5 Z"/></g>
<g><path style="opacity:1" fill="#b0b0b0" d="M 677.5,305.5 C 679.027,305.427 680.027,306.094 680.5,307.5C 678.973,307.573 677.973,306.906 677.5,305.5 Z"/></g>
<g><path style="opacity:1" fill="#898989" d="M 517.5,305.5 C 517.027,306.906 516.027,307.573 514.5,307.5C 514.973,306.094 515.973,305.427 517.5,305.5 Z"/></g>
<g><path style="opacity:1" fill="#c7c7c7" d="M 684.5,310.5 C 687.167,311.167 688.833,312.833 689.5,315.5C 687.5,314.167 685.833,312.5 684.5,310.5 Z"/></g>
<g><path style="opacity:1" fill="#626262" d="M 513.5,308.5 C 512.415,310.587 510.749,311.92 508.5,312.5C 509.585,310.413 511.251,309.08 513.5,308.5 Z"/></g>
<g><path style="opacity:1" fill="#7e7e7e" d="M 508.5,312.5 C 507.833,313.833 506.833,314.833 505.5,315.5C 505.5,313.5 506.5,312.5 508.5,312.5 Z"/></g>
<g><path style="opacity:1" fill="#7b7b7b" d="M 504.5,316.5 C 503.833,317.833 502.833,318.833 501.5,319.5C 501.5,317.5 502.5,316.5 504.5,316.5 Z"/></g>
<g><path style="opacity:1" fill="#aaaaaa" d="M 649.5,319.5 C 640.833,318.167 632.167,318.167 623.5,319.5C 623.918,318.778 624.584,318.278 625.5,318C 632.5,317.333 639.5,317.333 646.5,318C 647.737,318.232 648.737,318.732 649.5,319.5 Z"/></g>
<g><path style="opacity:1" fill="#535353" d="M 566.5,320.5 C 559.167,319.167 551.833,319.167 544.5,320.5C 548.203,318.945 552.203,318.278 556.5,318.5C 559.5,318.667 562.5,318.833 565.5,319C 566.056,319.383 566.389,319.883 566.5,320.5 Z"/></g>
<g><path style="opacity:1" fill="#fefefe" d="M 649.5,319.5 C 654.919,320.445 659.919,322.445 664.5,325.5C 664.973,326.906 665.973,327.573 667.5,327.5C 669.806,329.139 671.806,331.139 673.5,333.5C 673.738,335.404 674.738,336.738 676.5,337.5C 679.164,339.484 680.831,342.151 681.5,345.5C 681.427,347.027 682.094,348.027 683.5,348.5C 683.884,352.586 684.717,356.586 686,360.5C 686.499,365.155 686.666,369.821 686.5,374.5C 690.833,374.5 695.167,374.5 699.5,374.5C 709.36,377.185 717.527,382.518 724,390.5C 726.347,393.194 728.18,396.194 729.5,399.5C 729.427,401.027 730.094,402.027 731.5,402.5C 732.674,403.514 733.34,404.847 733.5,406.5C 733.427,408.027 734.094,409.027 735.5,409.5C 736.537,410.93 737.204,412.597 737.5,414.5C 737.755,416.967 738.755,418.967 740.5,420.5C 741.79,424.082 742.79,427.749 743.5,431.5C 743.41,434.152 744.076,436.485 745.5,438.5C 745.5,439.5 745.5,440.5 745.5,441.5C 746.294,452.815 746.627,464.148 746.5,475.5C 745.78,481.138 745.447,486.804 745.5,492.5C 744.778,492.918 744.278,493.584 744,494.5C 743.535,498.848 743.035,503.181 742.5,507.5C 742.5,510.167 742.5,512.833 742.5,515.5C 741.693,519.021 741.026,522.688 740.5,526.5C 739.076,528.515 738.41,530.848 738.5,533.5C 737.838,537.466 737.505,541.466 737.5,545.5C 737.483,547.565 737.15,549.565 736.5,551.5C 734.783,554.845 734.116,558.511 734.5,562.5C 733.92,566.81 733.586,571.143 733.5,575.5C 733.5,578.833 733.5,582.167 733.5,585.5C 732.527,587.948 732.194,590.615 732.5,593.5C 725.477,593.031 718.477,592.364 711.5,591.5C 708.726,589.936 706.059,588.103 703.5,586C 700.223,584.857 696.89,584.023 693.5,583.5C 685.294,578.882 676.627,578.216 667.5,581.5C 664.825,583.513 663.158,586.18 662.5,589.5C 661.837,591.473 661.504,593.639 661.5,596C 661.792,600.614 662.625,605.114 664,609.5C 665.564,612.438 667.73,614.772 670.5,616.5C 680.965,628.904 694.298,636.404 710.5,639C 715.833,639.667 721.167,639.667 726.5,639C 727.737,638.768 728.737,638.268 729.5,637.5C 730.15,637.196 730.817,636.863 731.5,636.5C 732.167,642.319 732.833,647.986 733.5,653.5C 733.5,655.833 733.5,658.167 733.5,660.5C 733.709,670.172 734.042,679.839 734.5,689.5C 734.302,694.75 734.969,699.75 736.5,704.5C 736.5,706.167 736.5,707.833 736.5,709.5C 736.5,710.5 736.5,711.5 736.5,712.5C 731.482,712.387 726.482,712.053 721.5,711.5C 716.725,710.906 712.059,709.906 707.5,708.5C 703.689,707.355 699.689,707.188 695.5,708C 693.026,708.037 691.026,708.87 689.5,710.5C 685.792,712.384 683.292,715.384 682,719.5C 681.333,724.167 681.333,728.833 682,733.5C 682.383,734.056 682.883,734.389 683.5,734.5C 684.657,740.506 687.99,745.006 693.5,748C 703.143,749.774 712.81,751.274 722.5,752.5C 724.476,754.011 726.809,754.844 729.5,755C 733.152,755.499 736.818,755.665 740.5,755.5C 740.735,762.354 741.402,769.021 742.5,775.5C 742.365,782.862 742.698,790.196 743.5,797.5C 743.198,801.79 743.864,805.79 745.5,809.5C 746.159,812.455 746.492,815.455 746.5,818.5C 746.425,822.897 746.925,827.23 748,831.5C 748.383,832.056 748.883,832.389 749.5,832.5C 749.808,836.36 750.475,840.026 751.5,843.5C 751.5,847.833 751.5,852.167 751.5,856.5C 748.885,857.291 746.218,857.957 743.5,858.5C 740.422,858.62 737.755,859.62 735.5,861.5C 729.665,862.937 723.998,864.604 718.5,866.5C 716.435,866.517 714.435,866.85 712.5,867.5C 710.517,867.157 709.183,867.824 708.5,869.5C 704.96,869.753 701.627,870.419 698.5,871.5C 695.848,871.41 693.515,872.076 691.5,873.5C 689.194,873.993 686.861,874.326 684.5,874.5C 680.837,874.952 677.17,875.452 673.5,876C 672.944,876.383 672.611,876.883 672.5,877.5C 670.833,877.5 669.167,877.5 667.5,877.5C 663.154,877.334 658.821,877.501 654.5,878C 653.944,878.383 653.611,878.883 653.5,879.5C 633.183,880.399 612.849,880.732 592.5,880.5C 581.78,880.575 571.113,879.909 560.5,878.5C 555.438,878.726 550.438,878.392 545.5,877.5C 540.731,876.111 535.731,875.444 530.5,875.5C 524.833,874.833 519.167,874.167 513.5,873.5C 513.389,872.883 513.056,872.383 512.5,872C 508.83,871.452 505.163,870.952 501.5,870.5C 501.167,870.5 500.833,870.5 500.5,870.5C 499.653,869.034 498.32,868.2 496.5,868C 493.173,867.39 489.839,866.89 486.5,866.5C 483.311,866.142 480.311,865.475 477.5,864.5C 476.07,863.463 474.403,862.796 472.5,862.5C 470.302,862.125 468.302,861.458 466.5,860.5C 464.898,858.926 462.898,858.259 460.5,858.5C 460.047,857.542 459.381,856.708 458.5,856C 455.588,855.725 452.921,854.891 450.5,853.5C 449.833,853.167 449.167,852.833 448.5,852.5C 448.573,850.973 447.906,849.973 446.5,849.5C 445.182,840.993 445.516,832.66 447.5,824.5C 448.525,821.026 449.192,817.36 449.5,813.5C 449.741,808.306 450.407,803.306 451.5,798.5C 453.669,792.48 454.669,786.147 454.5,779.5C 454.263,778.209 454.596,777.209 455.5,776.5C 457.415,776.784 459.081,776.451 460.5,775.5C 470.79,772.541 480.456,768.207 489.5,762.5C 490.167,762.5 490.833,762.5 491.5,762.5C 504.655,759.285 517.989,758.618 531.5,760.5C 544.015,764.41 556.682,768.076 569.5,771.5C 574.915,774.891 580.915,776.224 587.5,775.5C 595.855,775.821 603.522,774.154 610.5,770.5C 615.377,768.061 620.377,765.561 625.5,763C 630.316,758.704 633.65,753.538 635.5,747.5C 636.931,747.119 637.764,746.119 638,744.5C 638.876,737.679 638.209,731.012 636,724.5C 634.669,722.004 632.836,720.004 630.5,718.5C 628.833,716.167 626.833,714.167 624.5,712.5C 615.303,706.596 605.637,705.929 595.5,710.5C 583.95,713.842 572.95,712.509 562.5,706.5C 555.223,702.174 547.889,697.84 540.5,693.5C 536.14,691.242 531.473,689.909 526.5,689.5C 523.833,689.167 521.167,688.833 518.5,688.5C 516.631,687.835 514.631,687.169 512.5,686.5C 503.675,685.179 495.009,685.179 486.5,686.5C 486.167,686.5 485.833,686.5 485.5,686.5C 477.839,686.862 471.173,689.529 465.5,694.5C 464.167,694.833 462.833,695.167 461.5,695.5C 461.5,695.167 461.5,694.833 461.5,694.5C 462.222,694.082 462.722,693.416 463,692.5C 463.763,680.508 464.263,668.508 464.5,656.5C 465.207,648.854 465.54,641.187 465.5,633.5C 469.739,636.527 474.406,637.194 479.5,635.5C 480.612,634.735 481.279,633.735 481.5,632.5C 486.069,630.269 489.736,626.936 492.5,622.5C 495.833,620.841 497.5,618.175 497.5,614.5C 497.328,613.508 497.662,612.842 498.5,612.5C 499.117,612.389 499.617,612.056 500,611.5C 500.838,608.148 501.671,604.815 502.5,601.5C 504.358,592.691 503.525,584.024 500,575.5C 499.292,574.619 498.458,573.953 497.5,573.5C 497.116,569.728 495.45,566.728 492.5,564.5C 491.457,561.944 489.79,559.777 487.5,558C 483.565,556.063 480.232,553.396 477.5,550C 472.237,547.864 466.904,546.031 461.5,544.5C 459.39,530.841 457.39,517.175 455.5,503.5C 455.397,497.139 454.897,490.806 454,484.5C 453.617,483.944 453.117,483.611 452.5,483.5C 450.828,467.365 450.161,451.031 450.5,434.5C 451.525,431.026 452.192,427.36 452.5,423.5C 453.57,416.69 455.237,410.023 457.5,403.5C 459.771,401.388 461.104,398.721 461.5,395.5C 462.433,392.63 464.1,390.296 466.5,388.5C 467.833,387.833 468.833,386.833 469.5,385.5C 470.891,383.11 472.891,381.443 475.5,380.5C 477.027,380.573 478.027,379.906 478.5,378.5C 480.698,378.88 482.365,378.213 483.5,376.5C 483.833,376.5 484.167,376.5 484.5,376.5C 486.861,376.326 489.194,375.993 491.5,375.5C 496.5,375.5 501.5,375.5 506.5,375.5C 506.5,369.167 506.5,362.833 506.5,356.5C 506.5,356.167 506.5,355.833 506.5,355.5C 508.245,353.967 509.245,351.967 509.5,349.5C 509.66,347.847 510.326,346.514 511.5,345.5C 512.906,345.027 513.573,344.027 513.5,342.5C 515.817,338.854 518.484,335.52 521.5,332.5C 523.404,332.262 524.738,331.262 525.5,329.5C 527.267,327.11 529.6,325.443 532.5,324.5C 536.395,323.538 540.061,322.204 543.5,320.5C 543.833,320.5 544.167,320.5 544.5,320.5C 551.833,319.167 559.167,319.167 566.5,320.5C 569.127,321.092 571.794,321.425 574.5,321.5C 575.635,323.213 577.302,323.88 579.5,323.5C 581.701,324.566 584.035,325.233 586.5,325.5C 586.973,326.906 587.973,327.573 589.5,327.5C 592.945,328.73 595.945,330.73 598.5,333.5C 601.235,334.821 602.902,333.821 603.5,330.5C 605.617,327.051 608.617,324.718 612.5,323.5C 615.947,322.917 618.947,321.584 621.5,319.5C 622.167,319.5 622.833,319.5 623.5,319.5C 632.167,318.167 640.833,318.167 649.5,319.5 Z"/></g>
<g><path style="opacity:1" fill="#acacac" d="M 621.5,319.5 C 618.947,321.584 615.947,322.917 612.5,323.5C 615.053,321.416 618.053,320.083 621.5,319.5 Z"/></g>
<g><path style="opacity:1" fill="#959595" d="M 543.5,320.5 C 540.061,322.204 536.395,323.538 532.5,324.5C 535.626,322.01 539.292,320.677 543.5,320.5 Z"/></g>
<g><path style="opacity:1" fill="#888888" d="M 574.5,321.5 C 576.698,321.12 578.365,321.787 579.5,323.5C 577.302,323.88 575.635,323.213 574.5,321.5 Z"/></g>
<g><path style="opacity:1" fill="#646464" d="M 501.5,319.5 C 500.581,322.089 498.914,324.089 496.5,325.5C 497.419,322.911 499.086,320.911 501.5,319.5 Z"/></g>
<g><path style="opacity:1" fill="#757575" d="M 664.5,325.5 C 666.027,325.427 667.027,326.094 667.5,327.5C 665.973,327.573 664.973,326.906 664.5,325.5 Z"/></g>
<g><path style="opacity:1" fill="#7c7c7c" d="M 586.5,325.5 C 588.027,325.427 589.027,326.094 589.5,327.5C 587.973,327.573 586.973,326.906 586.5,325.5 Z"/></g>
<g><path style="opacity:1" fill="#b1b1b1" d="M 525.5,329.5 C 524.738,331.262 523.404,332.262 521.5,332.5C 522.262,330.738 523.596,329.738 525.5,329.5 Z"/></g>
<g><path style="opacity:1" fill="#ababab" d="M 603.5,330.5 C 602.902,333.821 601.235,334.821 598.5,333.5C 600.411,332.925 602.078,331.925 603.5,330.5 Z"/></g>
<g><path style="opacity:1" fill="#b0b0b0" d="M 673.5,333.5 C 675.262,334.262 676.262,335.596 676.5,337.5C 674.738,336.738 673.738,335.404 673.5,333.5 Z"/></g>
<g><path style="opacity:1" fill="#7b7b7b" d="M 492.5,331.5 C 491.385,334.887 489.718,337.887 487.5,340.5C 487.918,336.651 489.585,333.651 492.5,331.5 Z"/></g>
<g><path style="opacity:1" fill="#7f7f7f" d="M 487.5,341.5 C 486.41,345.355 485.077,349.021 483.5,352.5C 483.5,352.167 483.5,351.833 483.5,351.5C 483.927,348.624 484.594,345.791 485.5,343C 485.836,341.97 486.503,341.47 487.5,341.5 Z"/></g>
<g><path style="opacity:1" fill="#a1a1a1" d="M 513.5,342.5 C 513.573,344.027 512.906,345.027 511.5,345.5C 511.427,343.973 512.094,342.973 513.5,342.5 Z"/></g>
<g><path style="opacity:1" fill="#616161" d="M 704.5,336.5 C 705.946,339.254 706.946,342.254 707.5,345.5C 706.351,345.209 705.684,344.376 705.5,343C 704.923,340.863 704.59,338.696 704.5,336.5 Z"/></g>
<g><path style="opacity:1" fill="#999999" d="M 681.5,345.5 C 682.906,345.973 683.573,346.973 683.5,348.5C 682.094,348.027 681.427,347.027 681.5,345.5 Z"/></g>
<g><path style="opacity:1" fill="#7f7f7f" d="M 509.5,349.5 C 509.245,351.967 508.245,353.967 506.5,355.5C 506.755,353.033 507.755,351.033 509.5,349.5 Z"/></g>
<g><path style="opacity:1" fill="#bfbfbf" d="M 483.5,351.5 C 483.5,351.833 483.5,352.167 483.5,352.5C 476.839,353.941 470.505,356.274 464.5,359.5C 464.369,358.624 464.702,357.957 465.5,357.5C 471.028,354.102 477.028,352.102 483.5,351.5 Z"/></g>
<g><path style="opacity:1" fill="#9f9f9f" d="M 709.5,351.5 C 711.967,351.755 713.967,352.755 715.5,354.5C 713.033,354.245 711.033,353.245 709.5,351.5 Z"/></g>
<g><path style="opacity:1" fill="#cccccc" d="M 506.5,356.5 C 506.5,362.833 506.5,369.167 506.5,375.5C 501.5,375.5 496.5,375.5 491.5,375.5C 491.5,375.167 491.5,374.833 491.5,374.5C 496.167,374.5 500.833,374.5 505.5,374.5C 505.177,368.31 505.51,362.31 506.5,356.5 Z"/></g>
<g><path style="opacity:1" fill="#b9b9b9" d="M 731.5,364.5 C 734.167,365.167 735.833,366.833 736.5,369.5C 734.5,368.167 732.833,366.5 731.5,364.5 Z"/></g>
<g><path style="opacity:1" fill="#acacac" d="M 683.5,348.5 C 686.91,356.02 688.244,364.02 687.5,372.5C 690.85,372.335 694.183,372.502 697.5,373C 698.416,373.278 699.082,373.778 699.5,374.5C 695.167,374.5 690.833,374.5 686.5,374.5C 686.666,369.821 686.499,365.155 686,360.5C 684.717,356.586 683.884,352.586 683.5,348.5 Z"/></g>
<g><path style="opacity:1" fill="#737373" d="M 449.5,371.5 C 448.92,373.749 447.587,375.415 445.5,376.5C 446.08,374.251 447.413,372.585 449.5,371.5 Z"/></g>
<g><path style="opacity:1" fill="#929292" d="M 491.5,374.5 C 491.5,374.833 491.5,375.167 491.5,375.5C 489.194,375.993 486.861,376.326 484.5,376.5C 486.515,375.076 488.848,374.41 491.5,374.5 Z"/></g>
<g><path style="opacity:1" fill="#f3bccc" d="M 640.5,378.5 C 635.156,378.334 629.823,378.501 624.5,379C 623.672,380.992 622.339,382.492 620.5,383.5C 622.622,377.591 626.955,374.924 633.5,375.5C 636.488,375.193 638.821,376.193 640.5,378.5 Z"/></g>
<g><path style="opacity:1" fill="#9d9d9d" d="M 483.5,376.5 C 482.365,378.213 480.698,378.88 478.5,378.5C 479.93,377.463 481.597,376.796 483.5,376.5 Z"/></g>
<g><path style="opacity:1" fill="#f1becc" d="M 576.5,378.5 C 571.156,378.334 565.823,378.501 560.5,379C 559.295,380.376 557.962,381.542 556.5,382.5C 557.8,378.704 560.467,376.537 564.5,376C 567.167,375.333 569.833,375.333 572.5,376C 574.32,376.2 575.653,377.034 576.5,378.5 Z"/></g>
<g><path style="opacity:1" fill="#797979" d="M 445.5,376.5 C 445.262,378.404 444.262,379.738 442.5,380.5C 442.738,378.596 443.738,377.262 445.5,376.5 Z"/></g>
<g><path style="opacity:1" fill="#fdb0c6" d="M 576.5,378.5 C 578.371,378.859 579.871,379.859 581,381.5C 582.459,383.432 583.625,385.432 584.5,387.5C 584.98,396.957 584.314,406.29 582.5,415.5C 581.833,415.833 581.167,416.167 580.5,416.5C 578.75,417.742 577.083,419.242 575.5,421C 573.188,422.349 570.688,423.182 568,423.5C 563.736,422.557 559.569,421.224 555.5,419.5C 555.167,418.5 554.5,417.833 553.5,417.5C 553.5,416.833 553.5,416.167 553.5,415.5C 551.802,404.231 552.802,393.231 556.5,382.5C 557.962,381.542 559.295,380.376 560.5,379C 565.823,378.501 571.156,378.334 576.5,378.5 Z"/></g>
<g><path style="opacity:1" fill="#fdb0c7" d="M 640.5,378.5 C 641.833,379.167 642.833,380.167 643.5,381.5C 646.1,392.168 646.1,402.834 643.5,413.5C 642.796,418.204 640.129,420.871 635.5,421.5C 631.774,421.823 628.107,421.489 624.5,420.5C 622.753,418.41 620.753,416.743 618.5,415.5C 615.85,408.838 614.85,401.838 615.5,394.5C 616.963,391.797 617.796,388.797 618,385.5C 618.417,384.244 619.25,383.577 620.5,383.5C 622.339,382.492 623.672,380.992 624.5,379C 629.823,378.501 635.156,378.334 640.5,378.5 Z"/></g>
<g><path style="opacity:1" fill="#949494" d="M 478.5,378.5 C 478.027,379.906 477.027,380.573 475.5,380.5C 475.973,379.094 476.973,378.427 478.5,378.5 Z"/></g>
<g><path style="opacity:1" fill="#8b8b8b" d="M 746.5,381.5 C 747.906,381.973 748.573,382.973 748.5,384.5C 747.094,384.027 746.427,383.027 746.5,381.5 Z"/></g>
<g><path style="opacity:1" fill="#a8a8a8" d="M 440.5,384.5 C 440.068,385.71 439.401,386.71 438.5,387.5C 438.285,385.821 438.952,384.821 440.5,384.5 Z"/></g>
<g><path style="opacity:1" fill="#a3a3a3" d="M 469.5,385.5 C 468.833,386.833 467.833,387.833 466.5,388.5C 466.5,386.5 467.5,385.5 469.5,385.5 Z"/></g>
<g><path style="opacity:1" fill="#f3c9d5" d="M 643.5,381.5 C 644.966,382.347 645.8,383.68 646,385.5C 646.832,393.521 646.665,401.521 645.5,409.5C 644.828,410.949 644.161,412.282 643.5,413.5C 646.1,402.834 646.1,392.168 643.5,381.5 Z"/></g>
<g><path style="opacity:1" fill="#949494" d="M 436.5,392.5 C 435.613,396.414 434.28,400.081 432.5,403.5C 432.768,400.26 433.434,397.094 434.5,394C 434.836,392.97 435.503,392.47 436.5,392.5 Z"/></g>
<g><path style="opacity:1" fill="#f6d4de" d="M 584.5,387.5 C 586.895,394.963 587.061,402.629 585,410.5C 584.901,412.653 584.067,414.319 582.5,415.5C 584.314,406.29 584.98,396.957 584.5,387.5 Z"/></g>
<g><path style="opacity:1" fill="#adadad" d="M 461.5,395.5 C 461.104,398.721 459.771,401.388 457.5,403.5C 457.896,400.279 459.229,397.612 461.5,395.5 Z"/></g>
<g><path style="opacity:1" fill="#efbac9" d="M 556.5,382.5 C 552.802,393.231 551.802,404.231 553.5,415.5C 549.86,407.768 549.527,399.768 552.5,391.5C 552.838,389.146 553.338,386.813 554,384.5C 554.417,383.244 555.25,382.577 556.5,382.5 Z"/></g>
<g><path style="opacity:1" fill="#b0b0b0" d="M 729.5,399.5 C 730.906,399.973 731.573,400.973 731.5,402.5C 730.094,402.027 729.427,401.027 729.5,399.5 Z"/></g>
<g><path style="opacity:1" fill="#fde6ed" d="M 552.5,391.5 C 549.527,399.768 549.86,407.768 553.5,415.5C 553.5,416.167 553.5,416.833 553.5,417.5C 552.542,417.047 551.708,416.381 551,415.5C 549.576,409.224 549.242,402.891 550,396.5C 550.099,394.347 550.933,392.681 552.5,391.5 Z"/></g>
<g><path style="opacity:1" fill="#a2a2a2" d="M 733.5,406.5 C 734.906,406.973 735.573,407.973 735.5,409.5C 734.094,409.027 733.427,408.027 733.5,406.5 Z"/></g>
<g><path style="opacity:1" fill="#7d7d7d" d="M 760.5,406.5 C 761.537,407.93 762.204,409.597 762.5,411.5C 760.787,410.365 760.12,408.698 760.5,406.5 Z"/></g>
<g><path style="opacity:1" fill="#f7d8e1" d="M 615.5,394.5 C 614.85,401.838 615.85,408.838 618.5,415.5C 619.6,416.605 620.267,417.938 620.5,419.5C 618.407,417.47 616.574,415.136 615,412.5C 614.181,406.319 614.347,400.319 615.5,394.5 Z"/></g>
<g><path style="opacity:1" fill="#9a9a9a" d="M 430.5,411.5 C 430.5,412.833 430.5,414.167 430.5,415.5C 429.833,416.5 429.167,417.5 428.5,418.5C 428.41,415.848 429.076,413.515 430.5,411.5 Z"/></g>
<g><path style="opacity:1" fill="#eeb9c8" d="M 618.5,415.5 C 620.753,416.743 622.753,418.41 624.5,420.5C 628.107,421.489 631.774,421.823 635.5,421.5C 635.389,422.117 635.056,422.617 634.5,423C 629.095,424.255 624.428,423.088 620.5,419.5C 620.267,417.938 619.6,416.605 618.5,415.5 Z"/></g>
<g><path style="opacity:1" fill="#acacac" d="M 762.5,412.5 C 764.448,414.32 765.448,416.654 765.5,419.5C 763.935,417.491 762.935,415.157 762.5,412.5 Z"/></g>
<g><path style="opacity:1" fill="#909090" d="M 737.5,414.5 C 739.245,416.033 740.245,418.033 740.5,420.5C 738.755,418.967 737.755,416.967 737.5,414.5 Z"/></g>
<g><path style="opacity:1" fill="#f2baca" d="M 580.5,416.5 C 577.109,425.202 570.776,428.035 561.5,425C 559.004,423.669 557.004,421.836 555.5,419.5C 559.569,421.224 563.736,422.557 568,423.5C 570.688,423.182 573.188,422.349 575.5,421C 577.083,419.242 578.75,417.742 580.5,416.5 Z"/></g>
<g><path style="opacity:1" fill="#f2bccb" d="M 697.5,458.5 C 698.256,451.509 698.423,444.509 698,437.5C 695.05,423.909 687.217,420.075 674.5,426C 674.085,428.026 673.085,429.526 671.5,430.5C 671.557,429.391 671.89,428.391 672.5,427.5C 674.594,422.883 678.261,420.55 683.5,420.5C 689.231,421.019 694.064,423.352 698,427.5C 701.248,435.192 702.248,443.192 701,451.5C 700.33,454.174 699.163,456.507 697.5,458.5 Z"/></g>
<g><path style="opacity:1" fill="#feb0c6" d="M 697.5,458.5 C 691.52,465.669 684.187,467.169 675.5,463C 669.56,454.893 667.227,445.727 668.5,435.5C 669.687,433.928 670.687,432.261 671.5,430.5C 673.085,429.526 674.085,428.026 674.5,426C 687.217,420.075 695.05,423.909 698,437.5C 698.423,444.509 698.256,451.509 697.5,458.5 Z"/></g>
<g><path style="opacity:1" fill="#d0d0d0" d="M 428.5,420.5 C 428.116,425.01 427.449,429.343 426.5,433.5C 426.335,429.818 426.501,426.152 427,422.5C 427.278,421.584 427.778,420.918 428.5,420.5 Z"/></g>
<g><path style="opacity:1" fill="#fdb0c6" d="M 528.5,460.5 C 525.577,462.415 522.91,464.749 520.5,467.5C 515.544,468.494 510.544,468.827 505.5,468.5C 504.167,466.833 502.833,465.167 501.5,463.5C 501.496,461.158 500.663,459.158 499,457.5C 498.333,450.167 498.333,442.833 499,435.5C 500.666,433.004 502.5,430.671 504.5,428.5C 504.5,427.833 504.833,427.5 505.5,427.5C 510.284,425.353 515.284,425.019 520.5,426.5C 523.172,429.006 525.672,431.672 528,434.5C 528.7,439.384 529.534,444.217 530.5,449C 530.062,452.909 529.396,456.742 528.5,460.5 Z"/></g>
<g><path style="opacity:1" fill="#787878" d="M 452.5,423.5 C 452.192,427.36 451.525,431.026 450.5,434.5C 450.116,430.511 450.783,426.845 452.5,423.5 Z"/></g>
<g><path style="opacity:1" fill="#f2c2d0" d="M 528.5,460.5 C 529.396,456.742 530.062,452.909 530.5,449C 529.534,444.217 528.7,439.384 528,434.5C 525.672,431.672 523.172,429.006 520.5,426.5C 515.284,425.019 510.284,425.353 505.5,427.5C 506.453,425.39 508.119,424.223 510.5,424C 514.594,423.233 518.594,423.566 522.5,425C 529.649,430.702 532.649,438.202 531.5,447.5C 531.333,450.5 531.167,453.5 531,456.5C 530.8,458.32 529.966,459.653 528.5,460.5 Z"/></g>
<g><path style="opacity:1" fill="#929292" d="M 743.5,431.5 C 744.924,433.515 745.59,435.848 745.5,438.5C 744.076,436.485 743.41,434.152 743.5,431.5 Z"/></g>
<g><path style="opacity:1" fill="#fbe3eb" d="M 672.5,427.5 C 671.89,428.391 671.557,429.391 671.5,430.5C 670.687,432.261 669.687,433.928 668.5,435.5C 667.23,441.704 667.23,448.037 668.5,454.5C 667.883,454.389 667.383,454.056 667,453.5C 666.333,447.167 666.333,440.833 667,434.5C 668.391,431.664 670.224,429.331 672.5,427.5 Z"/></g>
<g><path style="opacity:1" fill="#f0c7d3" d="M 504.5,428.5 C 502.5,430.671 500.666,433.004 499,435.5C 498.333,442.833 498.333,450.167 499,457.5C 500.663,459.158 501.496,461.158 501.5,463.5C 498.438,461.377 496.938,458.377 497,454.5C 495.874,446.955 496.54,439.621 499,432.5C 500.451,430.536 502.284,429.203 504.5,428.5 Z"/></g>
<g><path style="opacity:1" fill="#979797" d="M 767.5,430.5 C 769.876,435.106 770.876,440.106 770.5,445.5C 769.833,443.167 769.167,440.833 768.5,438.5C 768.167,435.833 767.833,433.167 767.5,430.5 Z"/></g>
<g><path style="opacity:1" fill="#505050" d="M 430.5,415.5 C 428.003,431.726 427.003,448.059 427.5,464.5C 426.506,454.347 426.172,444.014 426.5,433.5C 427.449,429.343 428.116,425.01 428.5,420.5C 428.5,419.833 428.5,419.167 428.5,418.5C 429.167,417.5 429.833,416.5 430.5,415.5 Z"/></g>
<g><path style="opacity:1" fill="#b3b3b3" d="M 426.5,433.5 C 426.172,444.014 426.506,454.347 427.5,464.5C 427.5,467.167 427.5,469.833 427.5,472.5C 425.953,465.234 425.286,457.734 425.5,450C 425.501,444.323 425.834,438.823 426.5,433.5 Z"/></g>
<g><path style="opacity:1" fill="#8e8e8e" d="M 745.5,441.5 C 746.29,442.609 746.79,443.942 747,445.5C 747.825,455.675 747.658,465.675 746.5,475.5C 746.627,464.148 746.294,452.815 745.5,441.5 Z"/></g>
<g><path style="opacity:1" fill="#f0bdcb" d="M 668.5,435.5 C 667.227,445.727 669.56,454.893 675.5,463C 684.187,467.169 691.52,465.669 697.5,458.5C 696.577,461.838 694.577,464.338 691.5,466C 686.924,467.476 682.257,467.81 677.5,467C 675,464.5 672.5,462 670,459.5C 668.991,457.975 668.491,456.308 668.5,454.5C 667.23,448.037 667.23,441.704 668.5,435.5 Z"/></g>
<g><path style="opacity:1" fill="#efbdcb" d="M 528.5,460.5 C 523.309,470.341 515.642,473.008 505.5,468.5C 510.544,468.827 515.544,468.494 520.5,467.5C 522.91,464.749 525.577,462.415 528.5,460.5 Z"/></g>
<g><path style="opacity:1" fill="#656565" d="M 768.5,438.5 C 769.167,440.833 769.833,443.167 770.5,445.5C 771.81,459.165 771.81,472.831 770.5,486.5C 769.833,488.5 769.167,490.5 768.5,492.5C 769.833,474.5 769.833,456.5 768.5,438.5 Z"/></g>
<g><path style="opacity:1" fill="#feb0c6" d="M 609.5,480.5 C 609.369,481.376 609.702,482.043 610.5,482.5C 616.631,484.401 622.298,487.068 627.5,490.5C 629.167,493.167 630.833,495.833 632.5,498.5C 633.5,498.5 634.5,498.5 635.5,498.5C 638.432,503.792 641.432,509.125 644.5,514.5C 645.419,519.514 646.419,524.514 647.5,529.5C 646.5,533.5 645.5,537.5 644.5,541.5C 642.813,544.024 641.48,546.69 640.5,549.5C 636.583,551.642 632.417,553.309 628,554.5C 623.639,552.682 618.972,551.349 614,550.5C 609.311,547.393 604.478,544.56 599.5,542C 593.317,541.386 587.317,541.886 581.5,543.5C 581.5,544.5 581.5,545.5 581.5,546.5C 581.5,546.833 581.5,547.167 581.5,547.5C 578.888,548.371 576.221,549.037 573.5,549.5C 569.932,549.917 566.432,550.584 563,551.5C 555.104,551.585 550.104,547.918 548,540.5C 547.329,539.748 546.496,539.414 545.5,539.5C 545.335,535.818 545.501,532.152 546,528.5C 548.167,523.659 549.834,518.659 551,513.5C 554.288,511.38 556.122,508.38 556.5,504.5C 560.833,500.833 564.833,496.833 568.5,492.5C 577.41,487.968 586.743,484.135 596.5,481C 600.821,480.501 605.154,480.334 609.5,480.5 Z"/></g>
<g><path style="opacity:1" fill="#6c6c6c" d="M 427.5,479.5 C 428.222,479.918 428.722,480.584 429,481.5C 429.465,485.848 429.965,490.181 430.5,494.5C 429.833,493.5 429.167,492.5 428.5,491.5C 428.495,487.466 428.162,483.466 427.5,479.5 Z"/></g>
<g><path style="opacity:1" fill="#d3d3d3" d="M 452.5,483.5 C 453.117,483.611 453.617,483.944 454,484.5C 454.897,490.806 455.397,497.139 455.5,503.5C 453.781,497.076 452.781,490.409 452.5,483.5 Z"/></g>
<g><path style="opacity:1" fill="#f2bbcb" d="M 609.5,480.5 C 616.906,481.495 622.906,484.828 627.5,490.5C 622.298,487.068 616.631,484.401 610.5,482.5C 609.702,482.043 609.369,481.376 609.5,480.5 Z"/></g>
<g><path style="opacity:1" fill="#f3c3d1" d="M 609.5,480.5 C 605.154,480.334 600.821,480.501 596.5,481C 586.743,484.135 577.41,487.968 568.5,492.5C 580.112,481.445 593.778,477.445 609.5,480.5 Z"/></g>
<g><path style="opacity:1" fill="#a5a5a5" d="M 428.5,491.5 C 429.167,492.5 429.833,493.5 430.5,494.5C 430.5,495.833 430.5,497.167 430.5,498.5C 430.5,499.833 430.5,501.167 430.5,502.5C 429.475,499.026 428.808,495.36 428.5,491.5 Z"/></g>
<g><path style="opacity:1" fill="#f3ccd6" d="M 568.5,492.5 C 564.833,496.833 560.833,500.833 556.5,504.5C 559.5,499.5 563.5,495.5 568.5,492.5 Z"/></g>
<g><path style="opacity:1" fill="#c0c0c0" d="M 745.5,492.5 C 744.838,496.466 744.505,500.466 744.5,504.5C 743.833,505.5 743.167,506.5 742.5,507.5C 743.035,503.181 743.535,498.848 744,494.5C 744.278,493.584 744.778,492.918 745.5,492.5 Z"/></g>
<g><path style="opacity:1" fill="#4a4a4a" d="M 430.5,498.5 C 431.268,499.263 431.768,500.263 432,501.5C 432.333,500.5 432.667,499.5 433,498.5C 433.219,506.739 433.719,515.072 434.5,523.5C 434.167,523.5 433.833,523.5 433.5,523.5C 433.167,520.167 432.833,516.833 432.5,513.5C 432.192,509.64 431.525,505.974 430.5,502.5C 430.5,501.167 430.5,499.833 430.5,498.5 Z"/></g>
<g><path style="opacity:1" fill="#b2b2b2" d="M 770.5,486.5 C 770.04,493.68 769.374,500.847 768.5,508C 768.453,510.295 767.787,512.129 766.5,513.5C 767.459,506.532 768.126,499.532 768.5,492.5C 769.167,490.5 769.833,488.5 770.5,486.5 Z"/></g>
<g><path style="opacity:1" fill="#c6c6c6" d="M 430.5,502.5 C 431.525,505.974 432.192,509.64 432.5,513.5C 431.778,513.082 431.278,512.416 431,511.5C 430.502,508.518 430.335,505.518 430.5,502.5 Z"/></g>
<g><path style="opacity:1" fill="#7a7a7a" d="M 744.5,504.5 C 744.192,508.36 743.525,512.026 742.5,515.5C 742.5,512.833 742.5,510.167 742.5,507.5C 743.167,506.5 743.833,505.5 744.5,504.5 Z"/></g>
<g><path style="opacity:1" fill="#f2c0ce" d="M 556.5,504.5 C 556.122,508.38 554.288,511.38 551,513.5C 549.834,518.659 548.167,523.659 546,528.5C 545.501,532.152 545.335,535.818 545.5,539.5C 544.349,534.35 544.183,529.016 545,523.5C 547.047,520.036 548.713,516.37 550,512.5C 551.965,509.509 554.132,506.843 556.5,504.5 Z"/></g>
<g><path style="opacity:1" fill="#fad6e1" d="M 646.5,516.5 C 647.558,517.6 648.392,518.934 649,520.5C 649.667,526.5 649.667,532.5 649,538.5C 648.722,539.416 648.222,540.082 647.5,540.5C 649.062,532.383 648.729,524.383 646.5,516.5 Z"/></g>
<g><path style="opacity:1" fill="#a5a5a5" d="M 766.5,518.5 C 766.001,522.49 765.501,526.49 765,530.5C 764.722,531.416 764.222,532.082 763.5,532.5C 763.044,527.393 764.044,522.726 766.5,518.5 Z"/></g>
<g><path style="opacity:1" fill="#b5b5b5" d="M 740.5,526.5 C 740.5,527.833 740.5,529.167 740.5,530.5C 739.833,531.5 739.167,532.5 738.5,533.5C 738.41,530.848 739.076,528.515 740.5,526.5 Z"/></g>
<g><path style="opacity:1" fill="#c2c2c2" d="M 433.5,523.5 C 433.833,523.5 434.167,523.5 434.5,523.5C 435.167,528.167 435.833,532.833 436.5,537.5C 434.044,533.274 433.044,528.607 433.5,523.5 Z"/></g>
<g><path style="opacity:1" fill="#f1b8c9" d="M 627.5,490.5 C 632.713,493.876 637.213,498.209 641,503.5C 643.947,507.39 645.78,511.723 646.5,516.5C 648.729,524.383 649.062,532.383 647.5,540.5C 644.991,543.341 642.658,546.341 640.5,549.5C 641.48,546.69 642.813,544.024 644.5,541.5C 645.5,537.5 646.5,533.5 647.5,529.5C 646.419,524.514 645.419,519.514 644.5,514.5C 641.432,509.125 638.432,503.792 635.5,498.5C 634.5,498.5 633.5,498.5 632.5,498.5C 630.833,495.833 629.167,493.167 627.5,490.5 Z"/></g>
<g><path style="opacity:1" fill="#6f6f6f" d="M 436.5,539.5 C 437.222,539.918 437.722,540.584 438,541.5C 438.498,544.482 438.665,547.482 438.5,550.5C 437.475,547.026 436.808,543.36 436.5,539.5 Z"/></g>
<g><path style="opacity:1" fill="#fce3eb" d="M 601.5,545.5 C 594.695,545.185 588.029,545.852 581.5,547.5C 581.5,547.167 581.5,546.833 581.5,546.5C 588.138,543.493 594.804,543.16 601.5,545.5 Z"/></g>
<g><path style="opacity:1" fill="#777777" d="M 740.5,530.5 C 740.138,535.752 739.138,540.752 737.5,545.5C 737.505,541.466 737.838,537.466 738.5,533.5C 739.167,532.5 739.833,531.5 740.5,530.5 Z"/></g>
<g><path style="opacity:1" fill="#f3becd" d="M 640.5,549.5 C 639.02,552.307 636.687,553.973 633.5,554.5C 628.869,555.662 624.202,555.828 619.5,555C 613.161,552.291 607.161,549.124 601.5,545.5C 594.804,543.16 588.138,543.493 581.5,546.5C 581.5,545.5 581.5,544.5 581.5,543.5C 587.317,541.886 593.317,541.386 599.5,542C 604.478,544.56 609.311,547.393 614,550.5C 618.972,551.349 623.639,552.682 628,554.5C 632.417,553.309 636.583,551.642 640.5,549.5 Z"/></g>
<g><path style="opacity:1" fill="#f7c692" d="M 492.5,564.5 C 495.45,566.728 497.116,569.728 497.5,573.5C 502.044,582.21 503.711,591.543 502.5,601.5C 501.351,601.791 500.684,602.624 500.5,604C 499.907,606.87 499.241,609.703 498.5,612.5C 497.662,612.842 497.328,613.508 497.5,614.5C 495.336,616.822 493.669,619.489 492.5,622.5C 489.736,626.936 486.069,630.269 481.5,632.5C 476.823,633.704 472.156,633.704 467.5,632.5C 467.667,612.831 467.5,593.164 467,573.5C 466.243,571.685 465.41,570.019 464.5,568.5C 464.5,565.5 464.5,562.5 464.5,559.5C 464.5,555.833 464.5,552.167 464.5,548.5C 470.214,549.591 475.547,551.591 480.5,554.5C 484.78,557.442 488.78,560.776 492.5,564.5 Z"/></g>
<g><path style="opacity:1" fill="#fadde6" d="M 581.5,547.5 C 578.291,549.934 574.624,551.601 570.5,552.5C 571.306,551.272 572.306,550.272 573.5,549.5C 576.221,549.037 578.888,548.371 581.5,547.5 Z"/></g>
<g><path style="opacity:1" fill="#f1b8c8" d="M 545.5,539.5 C 546.496,539.414 547.329,539.748 548,540.5C 550.104,547.918 555.104,551.585 563,551.5C 566.432,550.584 569.932,549.917 573.5,549.5C 572.306,550.272 571.306,551.272 570.5,552.5C 562.47,553.844 555.304,552.177 549,547.5C 547.546,544.929 546.38,542.262 545.5,539.5 Z"/></g>
<g><path style="opacity:1" fill="#ecc9a5" d="M 461.5,544.5 C 466.904,546.031 472.237,547.864 477.5,550C 480.232,553.396 483.565,556.063 487.5,558C 489.79,559.777 491.457,561.944 492.5,564.5C 488.78,560.776 484.78,557.442 480.5,554.5C 475.547,551.591 470.214,549.591 464.5,548.5C 464.5,552.167 464.5,555.833 464.5,559.5C 463.833,557.833 463.167,556.167 462.5,554.5C 462.384,551.14 462.051,547.807 461.5,544.5 Z"/></g>
<g><path style="opacity:1" fill="#767676" d="M 762.5,540.5 C 761.886,544.135 761.552,547.802 761.5,551.5C 760.833,552.5 760.167,553.5 759.5,554.5C 759.999,550.51 760.499,546.51 761,542.5C 761.278,541.584 761.778,540.918 762.5,540.5 Z"/></g>
<g><path style="opacity:1" fill="#c5c5c5" d="M 736.5,551.5 C 736.5,552.833 736.5,554.167 736.5,555.5C 735.833,557.833 735.167,560.167 734.5,562.5C 734.116,558.511 734.783,554.845 736.5,551.5 Z"/></g>
<g><path style="opacity:1" fill="#afafaf" d="M 761.5,551.5 C 760.951,557.374 759.951,563.041 758.5,568.5C 758.669,563.819 759.002,559.152 759.5,554.5C 760.167,553.5 760.833,552.5 761.5,551.5 Z"/></g>
<g><path style="opacity:1" fill="#967e65" d="M 462.5,554.5 C 463.167,556.167 463.833,557.833 464.5,559.5C 464.5,562.5 464.5,565.5 464.5,568.5C 464.5,570.833 464.5,573.167 464.5,575.5C 464.167,575.5 463.833,575.5 463.5,575.5C 463.422,568.485 463.089,561.485 462.5,554.5 Z"/></g>
<g><path style="opacity:1" fill="#999999" d="M 438.5,550.5 C 439.636,556.641 440.303,562.974 440.5,569.5C 439.778,569.082 439.278,568.416 439,567.5C 438.501,561.843 438.334,556.176 438.5,550.5 Z"/></g>
<g><path style="opacity:1" fill="#797979" d="M 736.5,555.5 C 736.415,562.435 735.415,569.101 733.5,575.5C 733.586,571.143 733.92,566.81 734.5,562.5C 735.167,560.167 735.833,557.833 736.5,555.5 Z"/></g>
<g><path style="opacity:1" fill="#f7c592" d="M 710.5,592.5 C 717.363,594.169 724.363,594.836 731.5,594.5C 732.093,609.008 731.426,623.342 729.5,637.5C 723.158,637.666 716.825,637.5 710.5,637C 701.254,634.308 692.254,631.141 683.5,627.5C 683.5,626.5 683.5,625.5 683.5,624.5C 681.187,623.332 678.854,621.998 676.5,620.5C 674.847,618.035 672.847,616.035 670.5,614.5C 669.664,611.813 668.164,609.48 666,607.5C 665.327,603.139 664.493,598.806 663.5,594.5C 663.582,591.02 664.248,587.687 665.5,584.5C 674.462,581.676 683.462,581.842 692.5,585C 697.534,589.528 703.534,592.028 710.5,592.5 Z"/></g>
<g><path style="opacity:1" fill="#f5dfc8" d="M 497.5,573.5 C 498.458,573.953 499.292,574.619 500,575.5C 503.525,584.024 504.358,592.691 502.5,601.5C 503.711,591.543 502.044,582.21 497.5,573.5 Z"/></g>
<g><path style="opacity:1" fill="#f9edde" d="M 693.5,583.5 C 696.89,584.023 700.223,584.857 703.5,586C 706.059,588.103 708.726,589.936 711.5,591.5C 711.167,591.5 710.833,591.5 710.5,591.5C 704.341,589.584 698.674,586.917 693.5,583.5 Z"/></g>
<g><path style="opacity:1" fill="#e2cdb8" d="M 733.5,585.5 C 733.81,588.713 733.477,591.713 732.5,594.5C 732.167,594.5 731.833,594.5 731.5,594.5C 724.363,594.836 717.363,594.169 710.5,592.5C 710.5,592.167 710.5,591.833 710.5,591.5C 710.833,591.5 711.167,591.5 711.5,591.5C 718.477,592.364 725.477,593.031 732.5,593.5C 732.194,590.615 732.527,587.948 733.5,585.5 Z"/></g>
<g><path style="opacity:1" fill="#f0cca8" d="M 693.5,583.5 C 698.674,586.917 704.341,589.584 710.5,591.5C 710.5,591.833 710.5,592.167 710.5,592.5C 703.534,592.028 697.534,589.528 692.5,585C 683.462,581.842 674.462,581.676 665.5,584.5C 664.248,587.687 663.582,591.02 663.5,594.5C 664.493,598.806 665.327,603.139 666,607.5C 668.164,609.48 669.664,611.813 670.5,614.5C 668.45,612.763 666.617,610.763 665,608.5C 663.296,602.277 662.463,595.944 662.5,589.5C 663.158,586.18 664.825,583.513 667.5,581.5C 676.627,578.216 685.294,578.882 693.5,583.5 Z"/></g>
<g><path style="opacity:1" fill="#666666" d="M 440.5,574.5 C 441.314,576.631 441.814,578.964 442,581.5C 442.167,590.167 442.333,598.833 442.5,607.5C 442.681,620.369 442.014,633.036 440.5,645.5C 441.748,621.829 441.748,598.163 440.5,574.5 Z"/></g>
<g><path style="opacity:1" fill="#e9c49e" d="M 464.5,568.5 C 465.41,570.019 466.243,571.685 467,573.5C 467.5,593.164 467.667,612.831 467.5,632.5C 472.156,633.704 476.823,633.704 481.5,632.5C 481.279,633.735 480.612,634.735 479.5,635.5C 474.406,637.194 469.739,636.527 465.5,633.5C 465.5,632.833 465.5,632.167 465.5,631.5C 465.82,612.757 465.486,594.09 464.5,575.5C 464.5,573.167 464.5,570.833 464.5,568.5 Z"/></g>
<g><path style="opacity:1" fill="#edd1b4" d="M 502.5,601.5 C 501.671,604.815 500.838,608.148 500,611.5C 499.617,612.056 499.117,612.389 498.5,612.5C 499.241,609.703 499.907,606.87 500.5,604C 500.684,602.624 501.351,601.791 502.5,601.5 Z"/></g>
<g><path style="opacity:1" fill="#4e3f30" d="M 463.5,575.5 C 463.833,575.5 464.167,575.5 464.5,575.5C 465.486,594.09 465.82,612.757 465.5,631.5C 465.167,631.5 464.833,631.5 464.5,631.5C 463.503,613.007 463.17,594.341 463.5,575.5 Z"/></g>
<g><path style="opacity:1" fill="#faecdc" d="M 662.5,589.5 C 662.463,595.944 663.296,602.277 665,608.5C 666.617,610.763 668.45,612.763 670.5,614.5C 670.5,615.167 670.5,615.833 670.5,616.5C 667.73,614.772 665.564,612.438 664,609.5C 662.625,605.114 661.792,600.614 661.5,596C 661.504,593.639 661.837,591.473 662.5,589.5 Z"/></g>
<g><path style="opacity:1" fill="#c4a98e" d="M 731.5,594.5 C 731.833,594.5 732.167,594.5 732.5,594.5C 732.46,614.175 732.793,633.841 733.5,653.5C 732.833,647.986 732.167,642.319 731.5,636.5C 730.817,636.863 730.15,637.196 729.5,637.5C 731.426,623.342 732.093,609.008 731.5,594.5 Z"/></g>
<g><path style="opacity:1" fill="#7a7a7a" d="M 757.5,581.5 C 756.861,600.493 756.527,619.493 756.5,638.5C 755.834,631.007 755.5,623.341 755.5,615.5C 755.325,603.961 755.991,592.627 757.5,581.5 Z"/></g>
<g><path style="opacity:1" fill="#f6e3cf" d="M 497.5,614.5 C 497.5,618.175 495.833,620.841 492.5,622.5C 493.669,619.489 495.336,616.822 497.5,614.5 Z"/></g>
<g><path style="opacity:1" fill="#9c9c9c" d="M 644.5,627.5 C 644.731,631.993 644.064,636.326 642.5,640.5C 629.932,656.922 613.265,663.089 592.5,659C 578.775,655.615 568.941,647.449 563,634.5C 562.333,631.5 562.333,628.5 563,625.5C 565.21,624.251 567.376,624.418 569.5,626C 581.247,645.701 598.247,652.034 620.5,645C 623.646,642.688 626.646,640.188 629.5,637.5C 631.582,633.253 634.249,629.419 637.5,626C 640.171,625.167 642.504,625.667 644.5,627.5 Z"/></g>
<g><path style="opacity:1" fill="#d1d1d1" d="M 644.5,627.5 C 645.638,630.304 645.805,633.304 645,636.5C 644.8,638.32 643.966,639.653 642.5,640.5C 644.064,636.326 644.731,631.993 644.5,627.5 Z"/></g>
<g><path style="opacity:1" fill="#efcaa5" d="M 670.5,614.5 C 672.847,616.035 674.847,618.035 676.5,620.5C 678.854,621.998 681.187,623.332 683.5,624.5C 683.5,625.5 683.5,626.5 683.5,627.5C 692.254,631.141 701.254,634.308 710.5,637C 716.825,637.5 723.158,637.666 729.5,637.5C 728.737,638.268 727.737,638.768 726.5,639C 721.167,639.667 715.833,639.667 710.5,639C 694.298,636.404 680.965,628.904 670.5,616.5C 670.5,615.833 670.5,615.167 670.5,614.5 Z"/></g>
<g><path style="opacity:1" fill="#8c8c8c" d="M 464.5,631.5 C 464.833,631.5 465.167,631.5 465.5,631.5C 465.5,632.167 465.5,632.833 465.5,633.5C 465.54,641.187 465.207,648.854 464.5,656.5C 464.167,656.5 463.833,656.5 463.5,656.5C 463.482,648.149 463.815,639.816 464.5,631.5 Z"/></g>
<g><path style="opacity:1" fill="#bababa" d="M 440.5,651.5 C 440.123,660.338 439.457,669.005 438.5,677.5C 438.334,669.493 438.5,661.493 439,653.5C 439.278,652.584 439.778,651.918 440.5,651.5 Z"/></g>
<g><path style="opacity:1" fill="#949494" d="M 733.5,660.5 C 735.041,672.307 736.041,684.307 736.5,696.5C 735.833,694.167 735.167,691.833 734.5,689.5C 734.042,679.839 733.709,670.172 733.5,660.5 Z"/></g>
<g><path style="opacity:1" fill="#f1d2b2" d="M 486.5,686.5 C 495.009,685.179 503.675,685.179 512.5,686.5C 514.631,687.169 516.631,687.835 518.5,688.5C 508.016,686.767 497.35,686.1 486.5,686.5 Z"/></g>
<g><path style="opacity:1" fill="#cecece" d="M 757.5,657.5 C 758.822,660.768 759.489,664.435 759.5,668.5C 760.011,677.162 760.344,685.829 760.5,694.5C 760.167,694.5 759.833,694.5 759.5,694.5C 758.867,682.164 758.2,669.831 757.5,657.5 Z"/></g>
<g><path style="opacity:1" fill="#d4d4d4" d="M 463.5,656.5 C 463.833,656.5 464.167,656.5 464.5,656.5C 464.263,668.508 463.763,680.508 463,692.5C 462.722,693.416 462.222,694.082 461.5,694.5C 461.833,689.167 462.167,683.833 462.5,678.5C 462.944,671.173 463.277,663.84 463.5,656.5 Z"/></g>
<g><path style="opacity:1" fill="#f7c692" d="M 555.5,704.5 C 555.833,704.5 556.167,704.5 556.5,704.5C 556.414,705.496 556.748,706.329 557.5,707C 560.689,708.426 563.689,710.092 566.5,712C 573.104,712.356 579.604,713.19 586,714.5C 593.979,713.037 601.979,711.704 610,710.5C 613.349,710.696 616.516,711.363 619.5,712.5C 621.167,712.5 622.833,712.5 624.5,712.5C 626.833,714.167 628.833,716.167 630.5,718.5C 632.156,722.633 633.989,726.633 636,730.5C 636.554,736.188 636.387,741.855 635.5,747.5C 633.65,753.538 630.316,758.704 625.5,763C 620.377,765.561 615.377,768.061 610.5,770.5C 599.307,773.133 587.974,773.966 576.5,773C 575.263,772.768 574.263,772.268 573.5,771.5C 566.096,769.193 558.763,766.359 551.5,763C 546.903,761.684 542.236,760.684 537.5,760C 536.833,759.333 536.167,758.667 535.5,758C 525.903,756.155 516.236,755.489 506.5,756C 505.944,756.383 505.611,756.883 505.5,757.5C 500.708,758.764 496.042,760.431 491.5,762.5C 490.833,762.5 490.167,762.5 489.5,762.5C 487.473,762.338 485.473,762.505 483.5,763C 475.561,766.785 467.894,770.952 460.5,775.5C 459.081,776.451 457.415,776.784 455.5,776.5C 455.5,772.833 455.5,769.167 455.5,765.5C 455.586,761.143 455.92,756.81 456.5,752.5C 457.232,751.192 458.066,749.858 459,748.5C 459.406,731.133 460.239,713.8 461.5,696.5C 461.5,696.167 461.5,695.833 461.5,695.5C 462.833,695.167 464.167,694.833 465.5,694.5C 471.327,691.891 477.327,689.891 483.5,688.5C 488.683,688.465 493.85,688.132 499,687.5C 506.116,688.728 513.283,689.728 520.5,690.5C 527.248,693.147 534.248,695.48 541.5,697.5C 546.181,699.858 550.848,702.192 555.5,704.5 Z"/></g>
<g><path style="opacity:1" fill="#5b5a59" d="M 462.5,678.5 C 462.167,683.833 461.833,689.167 461.5,694.5C 461.5,694.833 461.5,695.167 461.5,695.5C 461.5,695.833 461.5,696.167 461.5,696.5C 461.167,696.5 460.833,696.5 460.5,696.5C 460.276,690.261 460.943,684.261 462.5,678.5 Z"/></g>
<g><path style="opacity:1" fill="#f0d4b8" d="M 485.5,686.5 C 484.833,687.167 484.167,687.833 483.5,688.5C 477.327,689.891 471.327,691.891 465.5,694.5C 471.173,689.529 477.839,686.862 485.5,686.5 Z"/></g>
<g><path style="opacity:1" fill="#f1c8a0" d="M 485.5,686.5 C 485.833,686.5 486.167,686.5 486.5,686.5C 497.35,686.1 508.016,686.767 518.5,688.5C 521.167,688.833 523.833,689.167 526.5,689.5C 533.965,692.153 541.299,695.32 548.5,699C 550.903,700.853 553.236,702.686 555.5,704.5C 550.848,702.192 546.181,699.858 541.5,697.5C 534.248,695.48 527.248,693.147 520.5,690.5C 513.283,689.728 506.116,688.728 499,687.5C 493.85,688.132 488.683,688.465 483.5,688.5C 484.167,687.833 484.833,687.167 485.5,686.5 Z"/></g>
<g><path style="opacity:1" fill="#fbf0e3" d="M 526.5,689.5 C 531.473,689.909 536.14,691.242 540.5,693.5C 547.889,697.84 555.223,702.174 562.5,706.5C 560.142,706.747 558.142,706.081 556.5,704.5C 556.167,704.5 555.833,704.5 555.5,704.5C 553.236,702.686 550.903,700.853 548.5,699C 541.299,695.32 533.965,692.153 526.5,689.5 Z"/></g>
<g><path style="opacity:1" fill="#949494" d="M 438.5,677.5 C 438.666,683.842 438.5,690.175 438,696.5C 437.768,697.737 437.268,698.737 436.5,699.5C 436.796,691.986 437.462,684.653 438.5,677.5 Z"/></g>
<g><path style="opacity:1" fill="#cecece" d="M 734.5,689.5 C 735.167,691.833 735.833,694.167 736.5,696.5C 736.5,699.167 736.5,701.833 736.5,704.5C 734.969,699.75 734.302,694.75 734.5,689.5 Z"/></g>
<g><path style="opacity:1" fill="#efd9c2" d="M 707.5,708.5 C 701.38,708.268 695.38,708.935 689.5,710.5C 691.026,708.87 693.026,708.037 695.5,708C 699.689,707.188 703.689,707.355 707.5,708.5 Z"/></g>
<g><path style="opacity:1" fill="#f0d6bb" d="M 624.5,712.5 C 622.833,712.5 621.167,712.5 619.5,712.5C 619.586,711.504 619.252,710.671 618.5,710C 610.805,709.309 603.139,709.475 595.5,710.5C 605.637,705.929 615.303,706.596 624.5,712.5 Z"/></g>
<g><path style="opacity:1" fill="#f6c593" d="M 707.5,708.5 C 712.059,709.906 716.725,710.906 721.5,711.5C 726.638,713.252 731.971,714.586 737.5,715.5C 737.5,717.5 737.5,719.5 737.5,721.5C 737.444,726.731 738.111,731.731 739.5,736.5C 740.372,742.789 740.705,749.122 740.5,755.5C 736.818,755.665 733.152,755.499 729.5,755C 726.809,754.844 724.476,754.011 722.5,752.5C 722.5,751.5 722.5,750.5 722.5,749.5C 717.156,749.666 711.823,749.499 706.5,749C 702.644,747.897 698.644,747.064 694.5,746.5C 692.253,745.755 690.42,744.422 689,742.5C 687.456,739.513 685.622,736.846 683.5,734.5C 683.334,729.489 683.501,724.489 684,719.5C 685.844,716.472 687.678,713.472 689.5,710.5C 695.38,708.935 701.38,708.268 707.5,708.5 Z"/></g>
<g><path style="opacity:1" fill="#edd3bb" d="M 736.5,709.5 C 737.434,710.568 737.768,711.901 737.5,713.5C 737.5,714.167 737.5,714.833 737.5,715.5C 731.971,714.586 726.638,713.252 721.5,711.5C 726.482,712.053 731.482,712.387 736.5,712.5C 736.5,711.5 736.5,710.5 736.5,709.5 Z"/></g>
<g><path style="opacity:1" fill="#f0c8a0" d="M 556.5,704.5 C 558.142,706.081 560.142,706.747 562.5,706.5C 572.95,712.509 583.95,713.842 595.5,710.5C 603.139,709.475 610.805,709.309 618.5,710C 619.252,710.671 619.586,711.504 619.5,712.5C 616.516,711.363 613.349,710.696 610,710.5C 601.979,711.704 593.979,713.037 586,714.5C 579.604,713.19 573.104,712.356 566.5,712C 563.689,710.092 560.689,708.426 557.5,707C 556.748,706.329 556.414,705.496 556.5,704.5 Z"/></g>
<g><path style="opacity:1" fill="#846d53" d="M 460.5,704.5 C 460.638,709.414 459.972,714.081 458.5,718.5C 458.362,713.586 459.028,708.919 460.5,704.5 Z"/></g>
<g><path style="opacity:1" fill="#eed0b3" d="M 689.5,710.5 C 687.678,713.472 685.844,716.472 684,719.5C 683.501,724.489 683.334,729.489 683.5,734.5C 682.883,734.389 682.383,734.056 682,733.5C 681.333,728.833 681.333,724.167 682,719.5C 683.292,715.384 685.792,712.384 689.5,710.5 Z"/></g>
<g><path style="opacity:1" fill="#8c8c8c" d="M 759.5,694.5 C 759.833,694.5 760.167,694.5 760.5,694.5C 761.362,704.479 762.028,714.479 762.5,724.5C 760.758,714.723 759.758,704.723 759.5,694.5 Z"/></g>
<g><path style="opacity:1" fill="#756351" d="M 737.5,713.5 C 738.889,718.269 739.556,723.269 739.5,728.5C 738.833,726.167 738.167,723.833 737.5,721.5C 737.5,719.5 737.5,717.5 737.5,715.5C 737.5,714.833 737.5,714.167 737.5,713.5 Z"/></g>
<g><path style="opacity:1" fill="#c0c0c0" d="M 762.5,727.5 C 763.268,728.263 763.768,729.263 764,730.5C 764.499,735.155 764.666,739.821 764.5,744.5C 764.167,744.5 763.833,744.5 763.5,744.5C 762.78,738.862 762.447,733.196 762.5,727.5 Z"/></g>
<g><path style="opacity:1" fill="#f1d2b3" d="M 630.5,718.5 C 632.836,720.004 634.669,722.004 636,724.5C 638.209,731.012 638.876,737.679 638,744.5C 637.764,746.119 636.931,747.119 635.5,747.5C 636.387,741.855 636.554,736.188 636,730.5C 633.989,726.633 632.156,722.633 630.5,718.5 Z"/></g>
<g><path style="opacity:1" fill="#af9172" d="M 737.5,721.5 C 738.167,723.833 738.833,726.167 739.5,728.5C 739.5,731.167 739.5,733.833 739.5,736.5C 738.111,731.731 737.444,726.731 737.5,721.5 Z"/></g>
<g><path style="opacity:1" fill="#efcba8" d="M 683.5,734.5 C 685.622,736.846 687.456,739.513 689,742.5C 690.42,744.422 692.253,745.755 694.5,746.5C 698.644,747.064 702.644,747.897 706.5,749C 711.823,749.499 717.156,749.666 722.5,749.5C 722.5,750.5 722.5,751.5 722.5,752.5C 712.81,751.274 703.143,749.774 693.5,748C 687.99,745.006 684.657,740.506 683.5,734.5 Z"/></g>
<g><path style="opacity:1" fill="#9c9c9c" d="M 435.5,719.5 C 435.242,729.723 434.242,739.723 432.5,749.5C 432.845,740.828 433.345,732.162 434,723.5C 434.21,721.942 434.71,720.609 435.5,719.5 Z"/></g>
<g><path style="opacity:1" fill="#deb992" d="M 460.5,696.5 C 460.833,696.5 461.167,696.5 461.5,696.5C 460.239,713.8 459.406,731.133 459,748.5C 458.066,749.858 457.232,751.192 456.5,752.5C 456.833,747.167 457.167,741.833 457.5,736.5C 458.241,730.529 458.575,724.529 458.5,718.5C 459.972,714.081 460.638,709.414 460.5,704.5C 460.5,701.833 460.5,699.167 460.5,696.5 Z"/></g>
<g><path style="opacity:1" fill="#acacac" d="M 763.5,744.5 C 763.833,744.5 764.167,744.5 764.5,744.5C 765.386,751.457 765.72,758.457 765.5,765.5C 765.167,765.5 764.833,765.5 764.5,765.5C 764.422,758.485 764.089,751.485 763.5,744.5 Z"/></g>
<g><path style="opacity:1" fill="#fcefdf" d="M 505.5,757.5 C 514.503,756.865 523.17,757.865 531.5,760.5C 517.989,758.618 504.655,759.285 491.5,762.5C 496.042,760.431 500.708,758.764 505.5,757.5 Z"/></g>
<g><path style="opacity:1" fill="#c2c2c2" d="M 432.5,753.5 C 432.167,758.833 431.833,764.167 431.5,769.5C 430.833,770.167 430.167,770.833 429.5,771.5C 429.78,765.246 430.78,759.246 432.5,753.5 Z"/></g>
<g><path style="opacity:1" fill="#f0caa4" d="M 489.5,762.5 C 480.456,768.207 470.79,772.541 460.5,775.5C 467.894,770.952 475.561,766.785 483.5,763C 485.473,762.505 487.473,762.338 489.5,762.5 Z"/></g>
<g><path style="opacity:1" fill="#705e4b" d="M 457.5,736.5 C 457.167,741.833 456.833,747.167 456.5,752.5C 455.92,756.81 455.586,761.143 455.5,765.5C 455.167,765.5 454.833,765.5 454.5,765.5C 454.666,755.596 455.666,745.929 457.5,736.5 Z"/></g>
<g><path style="opacity:1" fill="#f0cba6" d="M 573.5,771.5 C 572.167,771.5 570.833,771.5 569.5,771.5C 556.682,768.076 544.015,764.41 531.5,760.5C 523.17,757.865 514.503,756.865 505.5,757.5C 505.611,756.883 505.944,756.383 506.5,756C 516.236,755.489 525.903,756.155 535.5,758C 536.167,758.667 536.833,759.333 537.5,760C 542.236,760.684 546.903,761.684 551.5,763C 558.763,766.359 566.096,769.193 573.5,771.5 Z"/></g>
<g><path style="opacity:1" fill="#ac9379" d="M 454.5,765.5 C 454.833,765.5 455.167,765.5 455.5,765.5C 455.5,769.167 455.5,772.833 455.5,776.5C 454.596,777.209 454.263,778.209 454.5,779.5C 454.167,779.5 453.833,779.5 453.5,779.5C 454.229,774.87 454.563,770.203 454.5,765.5 Z"/></g>
<g><path style="opacity:1" fill="#6e6e6e" d="M 764.5,765.5 C 764.833,765.5 765.167,765.5 765.5,765.5C 766.457,773.995 767.123,782.662 767.5,791.5C 765.67,783.071 764.67,774.404 764.5,765.5 Z"/></g>
<g><path style="opacity:1" fill="#ababab" d="M 431.5,769.5 C 430.8,773.798 430.467,778.131 430.5,782.5C 429.833,783.5 429.167,784.5 428.5,785.5C 429.229,780.87 429.563,776.203 429.5,771.5C 430.167,770.833 430.833,770.167 431.5,769.5 Z"/></g>
<g><path style="opacity:1" fill="#fcf2e5" d="M 610.5,770.5 C 603.522,774.154 595.855,775.821 587.5,775.5C 580.915,776.224 574.915,774.891 569.5,771.5C 570.833,771.5 572.167,771.5 573.5,771.5C 574.263,772.268 575.263,772.768 576.5,773C 587.974,773.966 599.307,773.133 610.5,770.5 Z"/></g>
<g><path style="opacity:1" fill="#bebebe" d="M 453.5,779.5 C 453.833,779.5 454.167,779.5 454.5,779.5C 454.669,786.147 453.669,792.48 451.5,798.5C 452.005,792.147 452.672,785.813 453.5,779.5 Z"/></g>
<g><path style="opacity:1" fill="#747474" d="M 430.5,782.5 C 430.435,785.428 429.768,788.095 428.5,790.5C 428.5,788.833 428.5,787.167 428.5,785.5C 429.167,784.5 429.833,783.5 430.5,782.5 Z"/></g>
<g><path style="opacity:1" fill="#8f8f8f" d="M 742.5,775.5 C 743.538,782.653 744.204,789.986 744.5,797.5C 744.167,797.5 743.833,797.5 743.5,797.5C 742.698,790.196 742.365,782.862 742.5,775.5 Z"/></g>
<g><path style="opacity:1" fill="#9d9d9d" d="M 767.5,793.5 C 768.268,794.263 768.768,795.263 769,796.5C 769.757,802.149 770.257,807.816 770.5,813.5C 769.732,812.737 769.232,811.737 769,810.5C 768.555,804.82 768.055,799.154 767.5,793.5 Z"/></g>
<g><path style="opacity:1" fill="#b7b7b7" d="M 427.5,798.5 C 426.838,802.466 426.505,806.466 426.5,810.5C 425.833,811.5 425.167,812.5 424.5,813.5C 424.775,808.223 425.775,803.223 427.5,798.5 Z"/></g>
<g><path style="opacity:1" fill="#505050" d="M 745.5,806.5 C 746.117,806.611 746.617,806.944 747,807.5C 747.499,811.152 747.665,814.818 747.5,818.5C 747.167,818.5 746.833,818.5 746.5,818.5C 746.492,815.455 746.159,812.455 745.5,809.5C 745.5,808.5 745.5,807.5 745.5,806.5 Z"/></g>
<g><path style="opacity:1" fill="#c3c3c3" d="M 743.5,797.5 C 743.833,797.5 744.167,797.5 744.5,797.5C 744.963,800.482 745.296,803.482 745.5,806.5C 745.5,807.5 745.5,808.5 745.5,809.5C 743.864,805.79 743.198,801.79 743.5,797.5 Z"/></g>
<g><path style="opacity:1" fill="#7d7d7d" d="M 426.5,810.5 C 426.048,814.163 425.548,817.83 425,821.5C 424.722,822.416 424.222,823.082 423.5,823.5C 424.051,820.193 424.384,816.86 424.5,813.5C 425.167,812.5 425.833,811.5 426.5,810.5 Z"/></g>
<g><path style="opacity:1" fill="#5e5e5e" d="M 449.5,813.5 C 449.192,817.36 448.525,821.026 447.5,824.5C 447.335,821.482 447.502,818.482 448,815.5C 448.278,814.584 448.778,813.918 449.5,813.5 Z"/></g>
<g><path style="opacity:1" fill="#b8b8b8" d="M 746.5,818.5 C 746.833,818.5 747.167,818.5 747.5,818.5C 748.037,823.186 748.704,827.853 749.5,832.5C 748.883,832.389 748.383,832.056 748,831.5C 746.925,827.23 746.425,822.897 746.5,818.5 Z"/></g>
<g><path style="opacity:1" fill="#7b7b7b" d="M 772.5,829.5 C 773.222,829.918 773.722,830.584 774,831.5C 774.548,835.17 775.048,838.837 775.5,842.5C 773.763,838.458 772.763,834.124 772.5,829.5 Z"/></g>
<g><path style="opacity:1" fill="#9e9e9e" d="M 423.5,826.5 C 422.782,835.482 422.448,844.482 422.5,853.5C 421.343,845.01 421.176,836.343 422,827.5C 422.383,826.944 422.883,826.611 423.5,826.5 Z"/></g>
<g><path style="opacity:1" fill="#7c7c7c" d="M 446.5,849.5 C 447.906,849.973 448.573,850.973 448.5,852.5C 447.094,852.027 446.427,851.027 446.5,849.5 Z"/></g>
<g><path style="opacity:1" fill="#bdbdbd" d="M 751.5,843.5 C 752.474,846.298 753.14,849.298 753.5,852.5C 753.66,854.355 752.993,855.688 751.5,856.5C 751.5,852.167 751.5,847.833 751.5,843.5 Z"/></g>
<g><path style="opacity:1" fill="#c2c2c2" d="M 450.5,853.5 C 452.921,854.891 455.588,855.725 458.5,856C 459.381,856.708 460.047,857.542 460.5,858.5C 456.489,857.956 453.156,856.289 450.5,853.5 Z"/></g>
<g><path style="opacity:1" fill="#a4a4a4" d="M 460.5,858.5 C 462.898,858.259 464.898,858.926 466.5,860.5C 464.102,860.741 462.102,860.074 460.5,858.5 Z"/></g>
<g><path style="opacity:1" fill="#707070" d="M 743.5,858.5 C 741.245,860.38 738.578,861.38 735.5,861.5C 737.755,859.62 740.422,858.62 743.5,858.5 Z"/></g>
<g><path style="opacity:1" fill="#7d7d7d" d="M 472.5,862.5 C 474.403,862.796 476.07,863.463 477.5,864.5C 475.302,864.88 473.635,864.213 472.5,862.5 Z"/></g>
<g><path style="opacity:1" fill="#a4a4a4" d="M 429.5,866.5 C 430.906,866.973 431.573,867.973 431.5,869.5C 430.094,869.027 429.427,868.027 429.5,866.5 Z"/></g>
<g><path style="opacity:1" fill="#a5a5a5" d="M 712.5,867.5 C 712.5,867.833 712.5,868.167 712.5,868.5C 711.167,868.833 709.833,869.167 708.5,869.5C 709.183,867.824 710.517,867.157 712.5,867.5 Z"/></g>
<g><path style="opacity:1" fill="#5d5d5d" d="M 718.5,866.5 C 716.898,868.074 714.898,868.741 712.5,868.5C 712.5,868.167 712.5,867.833 712.5,867.5C 714.435,866.85 716.435,866.517 718.5,866.5 Z"/></g>
<g><path style="opacity:1" fill="#bdbdbd" d="M 486.5,866.5 C 489.839,866.89 493.173,867.39 496.5,868C 498.32,868.2 499.653,869.034 500.5,870.5C 495.4,870.289 490.734,868.955 486.5,866.5 Z"/></g>
<g><path style="opacity:1" fill="#888888" d="M 501.5,870.5 C 505.163,870.952 508.83,871.452 512.5,872C 513.056,872.383 513.389,872.883 513.5,873.5C 509.2,873.245 505.2,872.245 501.5,870.5 Z"/></g>
<g><path style="opacity:1" fill="#858585" d="M 698.5,871.5 C 696.485,872.924 694.152,873.59 691.5,873.5C 693.515,872.076 695.848,871.41 698.5,871.5 Z"/></g>
<g><path style="opacity:1" fill="#bfbfbf" d="M 774.5,865.5 C 773.669,870.328 771.002,873.662 766.5,875.5C 769.605,872.408 772.271,869.075 774.5,865.5 Z"/></g>
<g><path style="opacity:1" fill="#9c9c9c" d="M 530.5,875.5 C 535.731,875.444 540.731,876.111 545.5,877.5C 540.269,877.556 535.269,876.889 530.5,875.5 Z"/></g>
<g><path style="opacity:1" fill="#8f8f8f" d="M 684.5,874.5 C 680.8,876.245 676.8,877.245 672.5,877.5C 672.611,876.883 672.944,876.383 673.5,876C 677.17,875.452 680.837,874.952 684.5,874.5 Z"/></g>
<g><path style="opacity:1" fill="#8d8d8d" d="M 766.5,875.5 C 765.341,877.25 763.674,878.25 761.5,878.5C 762.659,876.75 764.326,875.75 766.5,875.5 Z"/></g>
<g><path style="opacity:1" fill="#727272" d="M 440.5,875.5 C 442.967,875.755 444.967,876.755 446.5,878.5C 444.033,878.245 442.033,877.245 440.5,875.5 Z"/></g>
<g><path style="opacity:1" fill="#d7d7d7" d="M 667.5,877.5 C 663.036,878.644 658.37,879.31 653.5,879.5C 653.611,878.883 653.944,878.383 654.5,878C 658.821,877.501 663.154,877.334 667.5,877.5 Z"/></g>
<g><path style="opacity:1" fill="#b3b3b3" d="M 446.5,878.5 C 449.096,879.055 451.429,880.055 453.5,881.5C 450.423,881.821 448.09,880.821 446.5,878.5 Z"/></g>
<g><path style="opacity:1" fill="#6f6f6f" d="M 560.5,878.5 C 571.113,879.909 581.78,880.575 592.5,880.5C 592.5,880.833 592.5,881.167 592.5,881.5C 581.551,881.971 570.884,880.971 560.5,878.5 Z"/></g>
<g><path style="opacity:1" fill="#8c8c8c" d="M 653.5,879.5 C 651.708,880.309 649.708,880.809 647.5,881C 629.17,881.5 610.836,881.667 592.5,881.5C 592.5,881.167 592.5,880.833 592.5,880.5C 612.849,880.732 633.183,880.399 653.5,879.5 Z"/></g>
<g><path style="opacity:1" fill="#5e5e5e" d="M 753.5,880.5 C 751.698,881.458 749.698,882.125 747.5,882.5C 746.391,882.557 745.391,882.89 744.5,883.5C 746.841,881.149 749.841,880.149 753.5,880.5 Z"/></g>
<g><path style="opacity:1" fill="#bcbcbc" d="M 747.5,882.5 C 747.389,883.117 747.056,883.617 746.5,884C 742.93,885.31 739.263,886.143 735.5,886.5C 738.084,884.528 741.084,883.528 744.5,883.5C 745.391,882.89 746.391,882.557 747.5,882.5 Z"/></g>
<g><path style="opacity:1" fill="#aaaaaa" d="M 472.5,887.5 C 475.486,887.903 478.152,888.903 480.5,890.5C 477.284,890.655 474.617,889.655 472.5,887.5 Z"/></g>
<g><path style="opacity:1" fill="#949494" d="M 729.5,887.5 C 727.302,889.397 724.636,890.397 721.5,890.5C 720.833,890.5 720.167,890.5 719.5,890.5C 722.583,889.007 725.917,888.007 729.5,887.5 Z"/></g>
<g><path style="opacity:1" fill="#5e5e5e" d="M 719.5,890.5 C 717.698,891.458 715.698,892.125 713.5,892.5C 714.918,890.692 716.918,890.025 719.5,890.5 Z"/></g>
<g><path style="opacity:1" fill="#bebebe" d="M 486.5,891.5 C 489.01,891.927 491.343,892.593 493.5,893.5C 491.473,893.662 489.473,893.495 487.5,893C 486.944,892.617 486.611,892.117 486.5,891.5 Z"/></g>
<g><path style="opacity:1" fill="#d5d5d5" d="M 719.5,890.5 C 720.167,890.5 720.833,890.5 721.5,890.5C 720.653,891.966 719.32,892.8 717.5,893C 714.146,893.455 710.813,893.955 707.5,894.5C 707.5,894.167 707.5,893.833 707.5,893.5C 709.435,892.85 711.435,892.517 713.5,892.5C 715.698,892.125 717.698,891.458 719.5,890.5 Z"/></g>
<g><path style="opacity:1" fill="#636363" d="M 707.5,893.5 C 707.5,893.833 707.5,894.167 707.5,894.5C 705.435,894.517 703.435,894.85 701.5,895.5C 701.167,895.5 700.833,895.5 700.5,895.5C 702.438,893.837 704.772,893.171 707.5,893.5 Z"/></g>
<g><path style="opacity:1" fill="#676767" d="M 493.5,893.5 C 499.503,893.333 505.17,894.333 510.5,896.5C 504.626,895.951 498.959,894.951 493.5,893.5 Z"/></g>
<g><path style="opacity:1" fill="#aeaeae" d="M 700.5,895.5 C 700.833,895.5 701.167,895.5 701.5,895.5C 699.852,896.927 697.852,897.76 695.5,898C 691.509,898.642 687.509,899.142 683.5,899.5C 688.875,897.43 694.542,896.096 700.5,895.5 Z"/></g>
<g><path style="opacity:1" fill="#adadad" d="M 510.5,896.5 C 513.807,897.051 517.14,897.384 520.5,897.5C 520.5,897.833 520.5,898.167 520.5,898.5C 517.813,898.664 515.146,898.497 512.5,898C 511.584,897.722 510.918,897.222 510.5,896.5 Z"/></g>
<g><path style="opacity:1" fill="#565656" d="M 520.5,897.5 C 530.167,897.527 539.5,898.86 548.5,901.5C 545.833,901.5 543.167,901.5 540.5,901.5C 536.382,900.291 532.049,899.624 527.5,899.5C 524.941,899.802 522.607,899.468 520.5,898.5C 520.5,898.167 520.5,897.833 520.5,897.5 Z"/></g>
<g><path style="opacity:1" fill="#d6d6d6" d="M 527.5,899.5 C 532.049,899.624 536.382,900.291 540.5,901.5C 536.486,901.666 532.486,901.499 528.5,901C 527.944,900.617 527.611,900.117 527.5,899.5 Z"/></g>
<g><path style="opacity:1" fill="#a3a3a3" d="M 551.5,901.5 C 559.507,902.093 567.507,902.76 575.5,903.5C 575.5,903.833 575.5,904.167 575.5,904.5C 567.092,904.492 559.092,903.492 551.5,901.5 Z"/></g>
<g><path style="opacity:1" fill="#9c9c9c" d="M 675.5,900.5 C 670.453,902.306 665.12,903.306 659.5,903.5C 659.5,903.167 659.5,902.833 659.5,902.5C 664.833,901.833 670.167,901.167 675.5,900.5 Z"/></g>
<g><path style="opacity:1" fill="#5b5b5b" d="M 659.5,902.5 C 659.5,902.833 659.5,903.167 659.5,903.5C 638.536,905.116 617.536,905.782 596.5,905.5C 589.504,905.106 582.504,904.773 575.5,904.5C 575.5,904.167 575.5,903.833 575.5,903.5C 603.511,903.722 631.511,903.389 659.5,902.5 Z"/></g>
<g><path style="opacity:1" fill="#dcdcdc" d="M 659.5,903.5 C 658.737,904.268 657.737,904.768 656.5,905C 636.347,906.576 616.347,906.742 596.5,905.5C 617.536,905.782 638.536,905.116 659.5,903.5 Z"/></g>
</svg>
