<?xml version="1.0" encoding="UTF-8"?>
<!DOCTYPE svg PUBLIC "-//W3C//DTD SVG 1.1//EN" "http://www.w3.org/Graphics/SVG/1.1/DTD/svg11.dtd">
<svg xmlns="http://www.w3.org/2000/svg" version="1.1" width="1200px" height="1200px" style="shape-rendering:geometricPrecision; text-rendering:geometricPrecision; image-rendering:optimizeQuality; fill-rule:evenodd; clip-rule:evenodd" xmlns:xlink="http://www.w3.org/1999/xlink">
<g><path style="opacity:1" fill="#fefefe" d="M -0.5,-0.5 C 399.5,-0.5 799.5,-0.5 1199.5,-0.5C 1199.5,399.5 1199.5,799.5 1199.5,1199.5C 799.5,1199.5 399.5,1199.5 -0.5,1199.5C -0.5,799.5 -0.5,399.5 -0.5,-0.5 Z"/></g>
<g><path style="opacity:1" fill="#94a4ec" d="M 582.5,344.5 C 580.345,344.372 578.345,344.872 576.5,346C 581.489,346.499 586.489,346.666 591.5,346.5C 653.294,346.372 714.627,351.538 775.5,362C 807.108,368.152 837.442,378.152 866.5,392C 877.667,397.833 886.167,406.333 892,417.5C 897.795,442.073 888.961,459.24 865.5,469C 858.039,471.782 850.372,473.782 842.5,475C 798.024,481.095 753.358,485.095 708.5,487C 643.557,492.368 578.89,500.035 514.5,510C 561.469,508.238 608.469,507.071 655.5,506.5C 736.953,507.176 817.619,515.343 897.5,531C 938.515,540.228 977.848,554.228 1015.5,573C 1027.57,581.068 1038.4,590.568 1048,601.5C 1066.8,628.835 1065.8,655.502 1045,681.5C 1033.57,691.97 1020.4,699.47 1005.5,704C 987.304,707.355 968.971,709.689 950.5,711C 881.198,715.52 811.865,719.52 742.5,723C 657.935,729.051 573.601,737.385 489.5,748C 464.909,752.185 440.576,757.518 416.5,764C 497.712,772.434 579.045,779.434 660.5,785C 704.804,788.438 747.804,797.772 789.5,813C 801.049,817.018 811.216,823.185 820,831.5C 828.028,844.805 827.028,857.472 817,869.5C 810.238,875.201 802.405,878.368 793.5,879C 786.333,879.167 779.167,879.333 772,879.5C 726.155,878.65 680.321,877.817 634.5,877C 604.265,878.809 574.265,882.476 544.5,888C 540.737,889.187 537.07,890.52 533.5,892C 545.089,895.964 556.755,899.63 568.5,903C 603.325,911.746 637.991,921.079 672.5,931C 687.134,935.211 701.467,940.211 715.5,946C 729.931,955.626 732.264,967.626 722.5,982C 712.457,988.09 704.457,986.09 698.5,976C 675.1,965.867 651.1,957.534 626.5,951C 585.522,940.839 544.522,930.839 503.5,921C 493.9,917.617 485.733,912.117 479,904.5C 470.431,887.872 473.931,874.372 489.5,864C 511.561,851.647 535.227,844.314 560.5,842C 589.345,837.696 618.345,835.529 647.5,835.5C 652.511,835.666 657.511,835.499 662.5,835C 658.886,834.064 655.22,833.564 651.5,833.5C 598.57,828.897 545.57,825.064 492.5,822C 435.845,820.203 379.178,818.87 322.5,818C 303.16,817.077 286.993,809.577 274,795.5C 258.75,771.337 260.416,748.337 279,726.5C 297.88,707.801 320.047,694.301 345.5,686C 405.236,665.4 466.569,652.067 529.5,646C 630.919,635.773 732.586,629.606 834.5,627.5C 838.846,627.666 843.179,627.499 847.5,627C 845.187,626.338 842.854,625.838 840.5,625.5C 741.177,609.072 641.177,603.239 540.5,608C 467.133,609.761 393.8,612.428 320.5,616C 302.42,617.098 284.42,616.432 266.5,614C 233.459,607.132 215.459,586.965 212.5,553.5C 213.392,540.718 217.892,529.385 226,519.5C 247.056,499.813 271.223,484.979 298.5,475C 347.396,455.443 398.063,442.776 450.5,437C 479.112,433.488 507.779,430.488 536.5,428C 588.81,424.909 641.143,422.409 693.5,420.5C 697.182,420.665 700.848,420.499 704.5,420C 702.323,418.798 699.989,418.298 697.5,418.5C 665.933,414.508 634.266,411.341 602.5,409C 549.854,406.201 497.187,403.868 444.5,402C 431.27,401.663 419.77,397.163 410,388.5C 396.662,369.079 399.162,351.912 417.5,337C 432.072,328.717 447.405,322.051 463.5,317C 508.417,302.784 554.417,294.284 601.5,291.5C 605.514,291.666 609.514,291.499 613.5,291C 614.712,289.893 614.379,289.393 612.5,289.5C 597.007,286.293 581.674,282.46 566.5,278C 554.051,274.442 542.718,268.775 532.5,261C 521.939,250.23 521.939,239.563 532.5,229C 535.795,226.566 539.462,224.899 543.5,224C 557.532,220.991 571.532,217.991 585.5,215C 596.775,213.139 608.108,212.472 619.5,213C 629.525,217.9 632.025,225.4 627,235.5C 624.441,238.531 621.274,240.698 617.5,242C 606.819,241.645 596.486,243.311 586.5,247C 623.876,254.952 661.542,261.285 699.5,266C 718.153,268.996 735.819,274.996 752.5,284C 764.877,296.304 764.211,307.97 750.5,319C 743.773,322.131 736.773,324.464 729.5,326C 691.268,331.211 652.934,335.544 614.5,339C 603.774,340.603 593.107,342.437 582.5,344.5 Z"/></g>
<g><path style="opacity:1" fill="#c9d1f5" d="M 612.5,289.5 C 614.379,289.393 614.712,289.893 613.5,291C 609.514,291.499 605.514,291.666 601.5,291.5C 605.167,290.833 608.833,290.167 612.5,289.5 Z"/></g>
<g><path style="opacity:1" fill="#c9d1f5" d="M 582.5,344.5 C 585.5,345.167 588.5,345.833 591.5,346.5C 586.489,346.666 581.489,346.499 576.5,346C 578.345,344.872 580.345,344.372 582.5,344.5 Z"/></g>
<g><path style="opacity:1" fill="#c6cef5" d="M 697.5,418.5 C 699.989,418.298 702.323,418.798 704.5,420C 700.848,420.499 697.182,420.665 693.5,420.5C 694.833,419.833 696.167,419.167 697.5,418.5 Z"/></g>
<g><path style="opacity:1" fill="#dde2f8" d="M 840.5,625.5 C 842.854,625.838 845.187,626.338 847.5,627C 843.179,627.499 838.846,627.666 834.5,627.5C 836.5,626.833 838.5,626.167 840.5,625.5 Z"/></g>
<g><path style="opacity:1" fill="#ccd3f6" d="M 651.5,833.5 C 655.22,833.564 658.886,834.064 662.5,835C 657.511,835.499 652.511,835.666 647.5,835.5C 648.833,834.833 650.167,834.167 651.5,833.5 Z"/></g>
</svg>
