<?xml version="1.0" encoding="UTF-8"?>
<!DOCTYPE svg PUBLIC "-//W3C//DTD SVG 1.1//EN" "http://www.w3.org/Graphics/SVG/1.1/DTD/svg11.dtd">
<svg xmlns="http://www.w3.org/2000/svg" version="1.1" width="1200px" height="1200px" style="shape-rendering:geometricPrecision; text-rendering:geometricPrecision; image-rendering:optimizeQuality; fill-rule:evenodd; clip-rule:evenodd" xmlns:xlink="http://www.w3.org/1999/xlink">
<g><path style="opacity:1" fill="#94a4ec" d="M -0.5,-0.5 C 399.5,-0.5 799.5,-0.5 1199.5,-0.5C 1199.5,399.5 1199.5,799.5 1199.5,1199.5C 799.5,1199.5 399.5,1199.5 -0.5,1199.5C -0.5,799.5 -0.5,399.5 -0.5,-0.5 Z"/></g>
<g><path style="opacity:1" fill="#fefefe" d="M 582.5,344.5 C 580.345,344.372 578.345,344.872 576.5,346C 581.489,346.499 586.489,346.666 591.5,346.5C 653.278,346.494 714.612,351.661 775.5,362C 807.157,368.16 837.49,378.16 866.5,392C 877.667,397.833 886.167,406.333 892,417.5C 897.795,442.073 888.961,459.24 865.5,469C 858.039,471.782 850.372,473.782 842.5,475C 794.023,481.415 745.357,485.748 696.5,488C 635.582,493.287 574.916,500.62 514.5,510C 560.137,508.308 605.804,507.141 651.5,506.5C 734.297,506.951 816.297,515.118 897.5,531C 938.559,540.241 977.893,554.241 1015.5,573C 1027.57,581.068 1038.4,590.568 1048,601.5C 1067.19,629.696 1065.69,656.863 1043.5,683C 1027.79,696.019 1009.79,704.019 989.5,707C 968.52,709.22 947.52,711.22 926.5,713C 865.161,716.218 803.827,719.551 742.5,723C 657.93,729.052 573.596,737.385 489.5,748C 464.917,752.183 440.584,757.517 416.5,764C 500.392,772.571 584.392,779.904 668.5,786C 708.241,789.401 746.908,797.734 784.5,811C 797.822,815.406 809.656,822.24 820,831.5C 828.158,845.107 826.991,857.941 816.5,870C 811.725,873.721 806.391,876.388 800.5,878C 793.327,878.885 786.161,879.718 779,880.5C 730.873,878.392 682.706,877.225 634.5,877C 604.22,878.428 574.22,882.095 544.5,888C 540.737,889.187 537.07,890.52 533.5,892C 570.457,903.573 607.791,913.907 645.5,923C 666.955,929.263 688.289,935.929 709.5,943C 724.991,948.823 730.824,959.656 727,975.5C 721.762,984.801 714.262,987.301 704.5,983C 702.126,980.961 700.126,978.628 698.5,976C 678.662,967.277 658.329,959.943 637.5,954C 596.002,943.251 554.335,933.251 512.5,924C 499.248,920.962 488.081,914.462 479,904.5C 471.031,889.607 473.531,876.773 486.5,866C 503.151,855.669 521.151,848.669 540.5,845C 571.63,839.787 602.963,836.62 634.5,835.5C 643.839,835.666 653.173,835.5 662.5,835C 658.886,834.064 655.22,833.564 651.5,833.5C 598.547,829.171 545.547,825.337 492.5,822C 435.845,820.203 379.178,818.87 322.5,818C 294.21,817.131 275.044,803.631 265,777.5C 261.203,758.689 265.536,742.022 278,727.5C 297.068,708.21 319.568,694.376 345.5,686C 410.968,663.198 478.302,649.198 547.5,644C 642.971,635.103 738.637,629.603 834.5,627.5C 838.846,627.666 843.179,627.499 847.5,627C 845.187,626.338 842.854,625.838 840.5,625.5C 741.184,609.083 641.184,603.25 540.5,608C 467.134,609.761 393.8,612.428 320.5,616C 302.42,617.098 284.42,616.432 266.5,614C 226.783,604.634 209.616,579.801 215,539.5C 219.787,526.715 227.62,516.215 238.5,508C 262.215,490.474 288.215,477.141 316.5,468C 355.13,454.092 394.797,444.426 435.5,439C 469.087,434.601 502.754,430.935 536.5,428C 585.824,425.241 635.157,422.741 684.5,420.5C 690.206,420.829 695.872,420.495 701.5,419.5C 700.311,418.571 698.978,418.238 697.5,418.5C 670.922,415.007 644.255,412.174 617.5,410C 559.863,406.701 502.196,404.035 444.5,402C 434.652,401.073 425.319,398.406 416.5,394C 400.739,381.117 397.572,365.617 407,347.5C 411.907,341.922 417.407,337.089 423.5,333C 459.764,317.014 497.431,305.68 536.5,299C 561.71,294.899 587.044,291.899 612.5,290C 593.931,285.775 575.598,280.775 557.5,275C 545.48,270.753 535.314,263.92 527,254.5C 521.275,238.457 526.775,228.291 543.5,224C 563.3,219.091 583.3,215.425 603.5,213C 609.167,212.333 614.833,212.333 620.5,213C 631.727,221.165 632.394,230.165 622.5,240C 615.71,242.116 608.71,243.116 601.5,243C 596.363,243.867 591.363,245.201 586.5,247C 627.558,255.51 668.891,262.51 710.5,268C 724.118,270.986 737.118,275.653 749.5,282C 763.262,291.179 765.095,302.346 755,315.5C 747.37,320.937 738.87,324.437 729.5,326C 691.266,331.211 652.932,335.545 614.5,339C 603.774,340.603 593.107,342.437 582.5,344.5 Z"/></g>
<g><path style="opacity:1" fill="#c9d1f5" d="M 582.5,344.5 C 585.5,345.167 588.5,345.833 591.5,346.5C 586.489,346.666 581.489,346.499 576.5,346C 578.345,344.872 580.345,344.372 582.5,344.5 Z"/></g>
<g><path style="opacity:1" fill="#b6c1f2" d="M 697.5,418.5 C 698.978,418.238 700.311,418.571 701.5,419.5C 695.872,420.495 690.206,420.829 684.5,420.5C 688.833,419.833 693.167,419.167 697.5,418.5 Z"/></g>
<g><path style="opacity:1" fill="#b5c0f2" d="M 840.5,625.5 C 842.854,625.838 845.187,626.338 847.5,627C 843.179,627.499 838.846,627.666 834.5,627.5C 836.5,626.833 838.5,626.167 840.5,625.5 Z"/></g>
<g><path style="opacity:1" fill="#c0c9f3" d="M 651.5,833.5 C 655.22,833.564 658.886,834.064 662.5,835C 653.173,835.5 643.839,835.666 634.5,835.5C 640.167,834.833 645.833,834.167 651.5,833.5 Z"/></g>
</svg>
