<?xml version="1.0" encoding="UTF-8"?>
<!DOCTYPE svg PUBLIC "-//W3C//DTD SVG 1.1//EN" "http://www.w3.org/Graphics/SVG/1.1/DTD/svg11.dtd">
<svg xmlns="http://www.w3.org/2000/svg" version="1.1" width="1200px" height="1200px" style="shape-rendering:geometricPrecision; text-rendering:geometricPrecision; image-rendering:optimizeQuality; fill-rule:evenodd; clip-rule:evenodd" xmlns:xlink="http://www.w3.org/1999/xlink">
<g><path style="opacity:0.99" fill="#fefffe" d="M 608.5,211.5 C 626.797,210.955 632.963,219.288 627,236.5C 624.559,238.969 621.726,240.802 618.5,242C 608.243,242.274 598.243,243.941 588.5,247C 625.892,254.954 663.559,261.288 701.5,266C 716.713,268.516 731.38,272.849 745.5,279C 760.752,286.095 764.919,297.262 758,312.5C 752.294,319.105 745.127,323.272 736.5,325C 694.671,331.388 652.671,336.388 610.5,340C 601.128,341.451 591.794,343.118 582.5,345C 645.901,345.743 708.901,351.076 771.5,361C 802.281,366.443 831.947,375.443 860.5,388C 869.84,393.006 878.34,399.172 886,406.5C 899.158,426.817 896.991,445.317 879.5,462C 870.846,467.552 861.513,471.552 851.5,474C 834.234,476.825 816.901,479.158 799.5,481C 706.759,486.307 614.426,495.641 522.5,509C 566.149,507.796 609.816,506.962 653.5,506.5C 737.722,506.384 821.056,514.884 903.5,532C 942.958,540.928 980.624,554.595 1016.5,573C 1032.71,583.546 1045.88,597.046 1056,613.5C 1067.99,648.863 1058.16,676.363 1026.5,696C 1018.46,699.791 1010.13,702.791 1001.5,705C 977.979,708.91 954.313,711.576 930.5,713C 805.879,718.019 681.545,727.019 557.5,740C 510.504,744.222 464.17,752.222 418.5,764C 499.72,772.324 581.053,779.324 662.5,785C 708.392,788.244 752.725,798.244 795.5,815C 802.488,818.159 809.154,821.826 815.5,826C 825.851,836.058 828.351,847.892 823,861.5C 817.534,871.657 809.034,877.49 797.5,879C 791.035,879.933 784.535,880.433 778,880.5C 727.521,878.345 677.021,877.512 626.5,878C 607.098,879.34 587.764,881.34 568.5,884C 556.862,885.659 545.529,888.325 534.5,892C 580.034,905.134 625.701,917.8 671.5,930C 685.637,934.268 699.637,938.934 713.5,944C 728.195,951.755 732.361,963.255 726,978.5C 719.705,985.914 712.205,987.414 703.5,983C 701.126,980.961 699.126,978.628 697.5,976C 679.691,967.952 661.358,961.285 642.5,956C 594.861,943.84 547.194,931.84 499.5,920C 489.27,915.818 481.437,908.985 476,899.5C 471.374,882.921 476.541,870.421 491.5,862C 512.551,851.095 534.884,844.428 558.5,842C 589.033,837.805 619.699,835.139 650.5,834C 544.756,823.618 438.756,818.618 332.5,819C 313.891,819.102 296.891,814.102 281.5,804C 261.234,784.141 257.734,761.641 271,736.5C 288.704,713.372 311.537,697.205 339.5,688C 389.731,669.526 441.398,656.859 494.5,650C 571.236,640.508 648.236,634.174 725.5,631C 763.85,629.333 802.183,627.666 840.5,626C 775.644,614.831 710.311,608.831 644.5,608C 539.103,607.928 433.77,610.594 328.5,616C 312.167,616.667 295.833,616.667 279.5,616C 256.02,614.843 236.853,605.343 222,587.5C 205.496,556.676 210.663,530.176 237.5,508C 260.329,491.083 285.329,478.083 312.5,469C 373.414,447.884 436.081,435.217 500.5,431C 516.134,429.281 531.801,427.947 547.5,427C 597.509,424.481 647.509,421.814 697.5,419C 668.263,415.076 638.929,412.076 609.5,410C 551.82,407.128 494.154,404.128 436.5,401C 411.641,397.49 400.141,383.323 402,358.5C 404.452,349.772 409.286,342.605 416.5,337C 431.96,328.107 448.293,321.107 465.5,316C 513.102,301.413 561.769,292.746 611.5,290C 588.032,285.469 565.366,278.469 543.5,269C 537.129,265.635 531.629,261.135 527,255.5C 520.724,242.662 523.89,232.829 536.5,226C 560.287,219.41 584.287,214.576 608.5,211.5 Z"/></g>
</svg>
